%TF.GenerationSoftware,KiCad,Pcbnew,8.0.0*%
%TF.CreationDate,2024-11-08T21:50:39+01:00*%
%TF.ProjectId,Coincidence_board,436f696e-6369-4646-956e-63655f626f61,rev?*%
%TF.SameCoordinates,Original*%
%TF.FileFunction,Drillmap*%
%TF.FilePolarity,Positive*%
%FSLAX45Y45*%
G04 Gerber Fmt 4.5, Leading zero omitted, Abs format (unit mm)*
G04 Created by KiCad (PCBNEW 8.0.0) date 2024-11-08 21:50:39*
%MOMM*%
%LPD*%
G01*
G04 APERTURE LIST*
%ADD10C,0.050000*%
%ADD11C,0.200000*%
%ADD12C,0.100000*%
%ADD13C,0.110000*%
%ADD14C,0.130000*%
G04 APERTURE END LIST*
D10*
X12350000Y-6545000D02*
X26030000Y-6545000D01*
X26030000Y-15050000D01*
X12350000Y-15050000D01*
X12350000Y-6545000D01*
D11*
D12*
X15921200Y-9063200D02*
X15981200Y-9123200D01*
X15981200Y-9063200D02*
X15921200Y-9123200D01*
X16429200Y-9114000D02*
X16489200Y-9174000D01*
X16489200Y-9114000D02*
X16429200Y-9174000D01*
X16990000Y-10360000D02*
X17050000Y-10420000D01*
X17050000Y-10360000D02*
X16990000Y-10420000D01*
X17090000Y-9400000D02*
X17150000Y-9460000D01*
X17150000Y-9400000D02*
X17090000Y-9460000D01*
X17365000Y-12595000D02*
X17425000Y-12655000D01*
X17425000Y-12595000D02*
X17365000Y-12655000D01*
X17490000Y-9580000D02*
X17550000Y-9640000D01*
X17550000Y-9580000D02*
X17490000Y-9640000D01*
X19756600Y-8240000D02*
X19816600Y-8300000D01*
X19816600Y-8240000D02*
X19756600Y-8300000D01*
X19858200Y-8580600D02*
X19918200Y-8640600D01*
X19918200Y-8580600D02*
X19858200Y-8640600D01*
X20899600Y-7717000D02*
X20959600Y-7777000D01*
X20959600Y-7717000D02*
X20899600Y-7777000D01*
X21775900Y-9647400D02*
X21835900Y-9707400D01*
X21835900Y-9647400D02*
X21775900Y-9707400D01*
X21950000Y-13770000D02*
X22010000Y-13830000D01*
X22010000Y-13770000D02*
X21950000Y-13830000D01*
X22210000Y-11060000D02*
X22270000Y-11120000D01*
X22270000Y-11060000D02*
X22210000Y-11120000D01*
X22350000Y-14100000D02*
X22410000Y-14160000D01*
X22410000Y-14100000D02*
X22350000Y-14160000D01*
X23110000Y-11620000D02*
X23170000Y-11680000D01*
X23170000Y-11620000D02*
X23110000Y-11680000D01*
X23180000Y-7960000D02*
X23240000Y-8020000D01*
X23240000Y-7960000D02*
X23180000Y-8020000D01*
X23420000Y-8270000D02*
X23480000Y-8330000D01*
X23480000Y-8270000D02*
X23420000Y-8330000D01*
X23440000Y-13020000D02*
X23500000Y-13080000D01*
X23500000Y-13020000D02*
X23440000Y-13080000D01*
X23440000Y-13020000D02*
X23500000Y-13080000D01*
X23500000Y-13020000D02*
X23440000Y-13080000D01*
X23450000Y-13640000D02*
X23510000Y-13700000D01*
X23510000Y-13640000D02*
X23450000Y-13700000D01*
X23480000Y-12030000D02*
X23540000Y-12090000D01*
X23540000Y-12030000D02*
X23480000Y-12090000D01*
X23530000Y-13290000D02*
X23590000Y-13350000D01*
X23590000Y-13290000D02*
X23530000Y-13350000D01*
X23530000Y-14030000D02*
X23590000Y-14090000D01*
X23590000Y-14030000D02*
X23530000Y-14090000D01*
X23570000Y-8830000D02*
X23630000Y-8890000D01*
X23630000Y-8830000D02*
X23570000Y-8890000D01*
X24120000Y-11910000D02*
X24180000Y-11970000D01*
X24180000Y-11910000D02*
X24120000Y-11970000D01*
X24440000Y-9920000D02*
X24500000Y-9980000D01*
X24500000Y-9920000D02*
X24440000Y-9980000D01*
X24570000Y-8790000D02*
X24630000Y-8850000D01*
X24630000Y-8790000D02*
X24570000Y-8850000D01*
X24810000Y-8420000D02*
X24870000Y-8480000D01*
X24870000Y-8420000D02*
X24810000Y-8480000D01*
X16723000Y-12567000D02*
G75*
G02*
X16653000Y-12567000I-35000J0D01*
G01*
X16653000Y-12567000D02*
G75*
G02*
X16723000Y-12567000I35000J0D01*
G01*
X16723000Y-12817000D02*
G75*
G02*
X16653000Y-12817000I-35000J0D01*
G01*
X16653000Y-12817000D02*
G75*
G02*
X16723000Y-12817000I35000J0D01*
G01*
X17315000Y-8390000D02*
G75*
G02*
X17245000Y-8390000I-35000J0D01*
G01*
X17245000Y-8390000D02*
G75*
G02*
X17315000Y-8390000I35000J0D01*
G01*
X17315000Y-8640000D02*
G75*
G02*
X17245000Y-8640000I-35000J0D01*
G01*
X17245000Y-8640000D02*
G75*
G02*
X17315000Y-8640000I35000J0D01*
G01*
X18255000Y-12680000D02*
G75*
G02*
X18185000Y-12680000I-35000J0D01*
G01*
X18185000Y-12680000D02*
G75*
G02*
X18255000Y-12680000I35000J0D01*
G01*
X18255000Y-12930000D02*
G75*
G02*
X18185000Y-12930000I-35000J0D01*
G01*
X18185000Y-12930000D02*
G75*
G02*
X18255000Y-12930000I35000J0D01*
G01*
X18350000Y-8095000D02*
G75*
G02*
X18280000Y-8095000I-35000J0D01*
G01*
X18280000Y-8095000D02*
G75*
G02*
X18350000Y-8095000I35000J0D01*
G01*
X18350000Y-8345000D02*
G75*
G02*
X18280000Y-8345000I-35000J0D01*
G01*
X18280000Y-8345000D02*
G75*
G02*
X18350000Y-8345000I35000J0D01*
G01*
X19975000Y-7510000D02*
G75*
G02*
X19905000Y-7510000I-35000J0D01*
G01*
X19905000Y-7510000D02*
G75*
G02*
X19975000Y-7510000I35000J0D01*
G01*
X19975000Y-7760000D02*
G75*
G02*
X19905000Y-7760000I-35000J0D01*
G01*
X19905000Y-7760000D02*
G75*
G02*
X19975000Y-7760000I35000J0D01*
G01*
X22677000Y-12780000D02*
G75*
G02*
X22607000Y-12780000I-35000J0D01*
G01*
X22607000Y-12780000D02*
G75*
G02*
X22677000Y-12780000I35000J0D01*
G01*
X22927000Y-12780000D02*
G75*
G02*
X22857000Y-12780000I-35000J0D01*
G01*
X22857000Y-12780000D02*
G75*
G02*
X22927000Y-12780000I35000J0D01*
G01*
X23623000Y-10578000D02*
G75*
G02*
X23553000Y-10578000I-35000J0D01*
G01*
X23553000Y-10578000D02*
G75*
G02*
X23623000Y-10578000I35000J0D01*
G01*
X23623000Y-10828000D02*
G75*
G02*
X23553000Y-10828000I-35000J0D01*
G01*
X23553000Y-10828000D02*
G75*
G02*
X23623000Y-10828000I35000J0D01*
G01*
X23870000Y-7485000D02*
G75*
G02*
X23800000Y-7485000I-35000J0D01*
G01*
X23800000Y-7485000D02*
G75*
G02*
X23870000Y-7485000I35000J0D01*
G01*
X24120000Y-7485000D02*
G75*
G02*
X24050000Y-7485000I-35000J0D01*
G01*
X24050000Y-7485000D02*
G75*
G02*
X24120000Y-7485000I35000J0D01*
G01*
X25165000Y-8175000D02*
G75*
G02*
X25095000Y-8175000I-35000J0D01*
G01*
X25095000Y-8175000D02*
G75*
G02*
X25165000Y-8175000I35000J0D01*
G01*
X25165000Y-8425000D02*
G75*
G02*
X25095000Y-8425000I-35000J0D01*
G01*
X25095000Y-8425000D02*
G75*
G02*
X25165000Y-8425000I35000J0D01*
G01*
X13100000Y-13981900D02*
X13100000Y-14058100D01*
X13061900Y-14020000D02*
X13138100Y-14020000D01*
X13600000Y-13981900D02*
X13600000Y-14058100D01*
X13561900Y-14020000D02*
X13638100Y-14020000D01*
X13128284Y-13148284D02*
X13128284Y-13091715D01*
X13071715Y-13091715D01*
X13071715Y-13148284D01*
X13128284Y-13148284D01*
X13334284Y-9794285D02*
X13334284Y-9737716D01*
X13277715Y-9737716D01*
X13277715Y-9794285D01*
X13334284Y-9794285D01*
X13334284Y-10302285D02*
X13334284Y-10245716D01*
X13277715Y-10245716D01*
X13277715Y-10302285D01*
X13334284Y-10302285D01*
X13588284Y-10048285D02*
X13588284Y-9991716D01*
X13531715Y-9991716D01*
X13531715Y-10048285D01*
X13588284Y-10048285D01*
X13628284Y-13148284D02*
X13628284Y-13091715D01*
X13571715Y-13091715D01*
X13571715Y-13148284D01*
X13628284Y-13148284D01*
X13708284Y-8528285D02*
X13708284Y-8471716D01*
X13651715Y-8471716D01*
X13651715Y-8528285D01*
X13708284Y-8528285D01*
X13708284Y-9028285D02*
X13708284Y-8971716D01*
X13651715Y-8971716D01*
X13651715Y-9028285D01*
X13708284Y-9028285D01*
X13860284Y-11200284D02*
X13860284Y-11143716D01*
X13803715Y-11143716D01*
X13803715Y-11200284D01*
X13860284Y-11200284D01*
X13860284Y-12216284D02*
X13860284Y-12159715D01*
X13803715Y-12159715D01*
X13803715Y-12216284D01*
X13860284Y-12216284D01*
X14116284Y-12840284D02*
X14116284Y-12783715D01*
X14059715Y-12783715D01*
X14059715Y-12840284D01*
X14116284Y-12840284D01*
X14116284Y-13856284D02*
X14116284Y-13799715D01*
X14059715Y-13799715D01*
X14059715Y-13856284D01*
X14116284Y-13856284D01*
X14608284Y-7560284D02*
X14608284Y-7503715D01*
X14551715Y-7503715D01*
X14551715Y-7560284D01*
X14608284Y-7560284D01*
X14608284Y-7810284D02*
X14608284Y-7753715D01*
X14551715Y-7753715D01*
X14551715Y-7810284D01*
X14608284Y-7810284D01*
X14608284Y-8350284D02*
X14608284Y-8293715D01*
X14551715Y-8293715D01*
X14551715Y-8350284D01*
X14608284Y-8350284D01*
X14608284Y-8600285D02*
X14608284Y-8543716D01*
X14551715Y-8543716D01*
X14551715Y-8600285D01*
X14608284Y-8600285D01*
X15400284Y-9780285D02*
X15400284Y-9723716D01*
X15343715Y-9723716D01*
X15343715Y-9780285D01*
X15400284Y-9780285D01*
X15400284Y-10796285D02*
X15400284Y-10739716D01*
X15343715Y-10739716D01*
X15343715Y-10796285D01*
X15400284Y-10796285D01*
X15725484Y-9248485D02*
X15725484Y-9191916D01*
X15668915Y-9191916D01*
X15668915Y-9248485D01*
X15725484Y-9248485D01*
X15725484Y-10264485D02*
X15725484Y-10207916D01*
X15668915Y-10207916D01*
X15668915Y-10264485D01*
X15725484Y-10264485D01*
X15752284Y-10788285D02*
X15752284Y-10731716D01*
X15695715Y-10731716D01*
X15695715Y-10788285D01*
X15752284Y-10788285D01*
X16328284Y-12492284D02*
X16328284Y-12435715D01*
X16271715Y-12435715D01*
X16271715Y-12492284D01*
X16328284Y-12492284D01*
X16328284Y-13508284D02*
X16328284Y-13451715D01*
X16271715Y-13451715D01*
X16271715Y-13508284D01*
X16328284Y-13508284D01*
X16388284Y-8268284D02*
X16388284Y-8211715D01*
X16331715Y-8211715D01*
X16331715Y-8268284D01*
X16388284Y-8268284D01*
X16680284Y-11960284D02*
X16680284Y-11903715D01*
X16623715Y-11903715D01*
X16623715Y-11960284D01*
X16680284Y-11960284D01*
X16768284Y-10788285D02*
X16768284Y-10731716D01*
X16711715Y-10731716D01*
X16711715Y-10788285D01*
X16768284Y-10788285D01*
X16888285Y-8268284D02*
X16888285Y-8211715D01*
X16831716Y-8211715D01*
X16831716Y-8268284D01*
X16888285Y-8268284D01*
X17308285Y-9028285D02*
X17308285Y-8971716D01*
X17251716Y-8971716D01*
X17251716Y-9028285D01*
X17308285Y-9028285D01*
X17308285Y-10044285D02*
X17308285Y-9987716D01*
X17251716Y-9987716D01*
X17251716Y-10044285D01*
X17308285Y-10044285D01*
X17696285Y-11960284D02*
X17696285Y-11903715D01*
X17639716Y-11903715D01*
X17639716Y-11960284D01*
X17696285Y-11960284D01*
X17812285Y-9588285D02*
X17812285Y-9531716D01*
X17755716Y-9531716D01*
X17755716Y-9588285D01*
X17812285Y-9588285D01*
X17812285Y-10096285D02*
X17812285Y-10039716D01*
X17755716Y-10039716D01*
X17755716Y-10096285D01*
X17812285Y-10096285D01*
X18008285Y-8108284D02*
X18008285Y-8051715D01*
X17951716Y-8051715D01*
X17951716Y-8108284D01*
X18008285Y-8108284D01*
X18008285Y-9124285D02*
X18008285Y-9067716D01*
X17951716Y-9067716D01*
X17951716Y-9124285D01*
X18008285Y-9124285D01*
X18232285Y-10988285D02*
X18232285Y-10931716D01*
X18175716Y-10931716D01*
X18175716Y-10988285D01*
X18232285Y-10988285D01*
X18232285Y-11308284D02*
X18232285Y-11251715D01*
X18175716Y-11251715D01*
X18175716Y-11308284D01*
X18232285Y-11308284D01*
X18728285Y-12288284D02*
X18728285Y-12231715D01*
X18671716Y-12231715D01*
X18671716Y-12288284D01*
X18728285Y-12288284D01*
X18728285Y-13304284D02*
X18728285Y-13247715D01*
X18671716Y-13247715D01*
X18671716Y-13304284D01*
X18728285Y-13304284D01*
X18828285Y-7308284D02*
X18828285Y-7251715D01*
X18771716Y-7251715D01*
X18771716Y-7308284D01*
X18828285Y-7308284D01*
X18828285Y-9588285D02*
X18828285Y-9531716D01*
X18771716Y-9531716D01*
X18771716Y-9588285D01*
X18828285Y-9588285D01*
X18828285Y-10096285D02*
X18828285Y-10039716D01*
X18771716Y-10039716D01*
X18771716Y-10096285D01*
X18828285Y-10096285D01*
X19248285Y-10988285D02*
X19248285Y-10931716D01*
X19191716Y-10931716D01*
X19191716Y-10988285D01*
X19248285Y-10988285D01*
X19248285Y-11308284D02*
X19248285Y-11251715D01*
X19191716Y-11251715D01*
X19191716Y-11308284D01*
X19248285Y-11308284D01*
X19328285Y-7308284D02*
X19328285Y-7251715D01*
X19271716Y-7251715D01*
X19271716Y-7308284D01*
X19328285Y-7308284D01*
X20308285Y-7798284D02*
X20308285Y-7741715D01*
X20251716Y-7741715D01*
X20251716Y-7798284D01*
X20308285Y-7798284D01*
X20308285Y-8814285D02*
X20308285Y-8757716D01*
X20251716Y-8757716D01*
X20251716Y-8814285D01*
X20308285Y-8814285D01*
X20800285Y-8188284D02*
X20800285Y-8131715D01*
X20743716Y-8131715D01*
X20743716Y-8188284D01*
X20800285Y-8188284D01*
X20802285Y-8548285D02*
X20802285Y-8491716D01*
X20745716Y-8491716D01*
X20745716Y-8548285D01*
X20802285Y-8548285D01*
X21348285Y-11568284D02*
X21348285Y-11511715D01*
X21291716Y-11511715D01*
X21291716Y-11568284D01*
X21348285Y-11568284D01*
X21348285Y-12584284D02*
X21348285Y-12527715D01*
X21291716Y-12527715D01*
X21291716Y-12584284D01*
X21348285Y-12584284D01*
X21783385Y-11572584D02*
X21783385Y-11516015D01*
X21726816Y-11516015D01*
X21726816Y-11572584D01*
X21783385Y-11572584D01*
X21783385Y-12588584D02*
X21783385Y-12532015D01*
X21726816Y-12532015D01*
X21726816Y-12588584D01*
X21783385Y-12588584D01*
X21816285Y-8188284D02*
X21816285Y-8131715D01*
X21759716Y-8131715D01*
X21759716Y-8188284D01*
X21816285Y-8188284D01*
X21818285Y-8548285D02*
X21818285Y-8491716D01*
X21761716Y-8491716D01*
X21761716Y-8548285D01*
X21818285Y-8548285D01*
X22193285Y-9600285D02*
X22193285Y-9543716D01*
X22136716Y-9543716D01*
X22136716Y-9600285D01*
X22193285Y-9600285D01*
X22193285Y-10616285D02*
X22193285Y-10559716D01*
X22136716Y-10559716D01*
X22136716Y-10616285D01*
X22193285Y-10616285D01*
X22260285Y-12908284D02*
X22260285Y-12851715D01*
X22203716Y-12851715D01*
X22203716Y-12908284D01*
X22260285Y-12908284D01*
X22260285Y-13924284D02*
X22260285Y-13867715D01*
X22203716Y-13867715D01*
X22203716Y-13924284D01*
X22260285Y-13924284D01*
X22583484Y-9654885D02*
X22583484Y-9598316D01*
X22526915Y-9598316D01*
X22526915Y-9654885D01*
X22583484Y-9654885D01*
X22640284Y-12368284D02*
X22640284Y-12311715D01*
X22583715Y-12311715D01*
X22583715Y-12368284D01*
X22640284Y-12368284D01*
X22673284Y-10000285D02*
X22673284Y-9943716D01*
X22616715Y-9943716D01*
X22616715Y-10000285D01*
X22673284Y-10000285D01*
X22680284Y-14528284D02*
X22680284Y-14471715D01*
X22623715Y-14471715D01*
X22623715Y-14528284D01*
X22680284Y-14528284D01*
X22948284Y-7508284D02*
X22948284Y-7451715D01*
X22891715Y-7451715D01*
X22891715Y-7508284D01*
X22948284Y-7508284D01*
X22948284Y-8524285D02*
X22948284Y-8467716D01*
X22891715Y-8467716D01*
X22891715Y-8524285D01*
X22948284Y-8524285D01*
X23140284Y-12368284D02*
X23140284Y-12311715D01*
X23083715Y-12311715D01*
X23083715Y-12368284D01*
X23140284Y-12368284D01*
X23173284Y-10000285D02*
X23173284Y-9943716D01*
X23116715Y-9943716D01*
X23116715Y-10000285D01*
X23173284Y-10000285D01*
X23348284Y-9308285D02*
X23348284Y-9251716D01*
X23291715Y-9251716D01*
X23291715Y-9308285D01*
X23348284Y-9308285D01*
X23599484Y-9654885D02*
X23599484Y-9598316D01*
X23542915Y-9598316D01*
X23542915Y-9654885D01*
X23599484Y-9654885D01*
X23696284Y-14528284D02*
X23696284Y-14471715D01*
X23639715Y-14471715D01*
X23639715Y-14528284D01*
X23696284Y-14528284D01*
X23978284Y-13058284D02*
X23978284Y-13001715D01*
X23921715Y-13001715D01*
X23921715Y-13058284D01*
X23978284Y-13058284D01*
X23978284Y-14074284D02*
X23978284Y-14017715D01*
X23921715Y-14017715D01*
X23921715Y-14074284D01*
X23978284Y-14074284D01*
X23992284Y-14536284D02*
X23992284Y-14479715D01*
X23935715Y-14479715D01*
X23935715Y-14536284D01*
X23992284Y-14536284D01*
X24108284Y-9972285D02*
X24108284Y-9915716D01*
X24051715Y-9915716D01*
X24051715Y-9972285D01*
X24108284Y-9972285D01*
X24108284Y-10988285D02*
X24108284Y-10931716D01*
X24051715Y-10931716D01*
X24051715Y-10988285D01*
X24108284Y-10988285D01*
X24364284Y-9308285D02*
X24364284Y-9251716D01*
X24307715Y-9251716D01*
X24307715Y-9308285D01*
X24364284Y-9308285D01*
X24468284Y-7528284D02*
X24468284Y-7471715D01*
X24411715Y-7471715D01*
X24411715Y-7528284D01*
X24468284Y-7528284D01*
X24648284Y-11548284D02*
X24648284Y-11491715D01*
X24591715Y-11491715D01*
X24591715Y-11548284D01*
X24648284Y-11548284D01*
X24648284Y-12310284D02*
X24648284Y-12253715D01*
X24591715Y-12253715D01*
X24591715Y-12310284D01*
X24648284Y-12310284D01*
X24648284Y-13068284D02*
X24648284Y-13011715D01*
X24591715Y-13011715D01*
X24591715Y-13068284D01*
X24648284Y-13068284D01*
X24648284Y-13830284D02*
X24648284Y-13773715D01*
X24591715Y-13773715D01*
X24591715Y-13830284D01*
X24648284Y-13830284D01*
X24968284Y-7528284D02*
X24968284Y-7471715D01*
X24911715Y-7471715D01*
X24911715Y-7528284D01*
X24968284Y-7528284D01*
X24988284Y-11548284D02*
X24988284Y-11491715D01*
X24931715Y-11491715D01*
X24931715Y-11548284D01*
X24988284Y-11548284D01*
X24988284Y-12310284D02*
X24988284Y-12253715D01*
X24931715Y-12253715D01*
X24931715Y-12310284D01*
X24988284Y-12310284D01*
X24989284Y-13067284D02*
X24989284Y-13010715D01*
X24932715Y-13010715D01*
X24932715Y-13067284D01*
X24989284Y-13067284D01*
X24989284Y-13829284D02*
X24989284Y-13772715D01*
X24932715Y-13772715D01*
X24932715Y-13829284D01*
X24989284Y-13829284D01*
X25008284Y-14536284D02*
X25008284Y-14479715D01*
X24951715Y-14479715D01*
X24951715Y-14536284D01*
X25008284Y-14536284D01*
X25328284Y-9968285D02*
X25328284Y-9911716D01*
X25271715Y-9911716D01*
X25271715Y-9968285D01*
X25328284Y-9968285D01*
X25328284Y-10984285D02*
X25328284Y-10927716D01*
X25271715Y-10927716D01*
X25271715Y-10984285D01*
X25328284Y-10984285D01*
X25328284Y-11548284D02*
X25328284Y-11491715D01*
X25271715Y-11491715D01*
X25271715Y-11548284D01*
X25328284Y-11548284D01*
X25328284Y-12310284D02*
X25328284Y-12253715D01*
X25271715Y-12253715D01*
X25271715Y-12310284D01*
X25328284Y-12310284D01*
X25328284Y-13068284D02*
X25328284Y-13011715D01*
X25271715Y-13011715D01*
X25271715Y-13068284D01*
X25328284Y-13068284D01*
X25328284Y-13830284D02*
X25328284Y-13773715D01*
X25271715Y-13773715D01*
X25271715Y-13830284D01*
X25328284Y-13830284D01*
X25578284Y-8208284D02*
X25578284Y-8151715D01*
X25521715Y-8151715D01*
X25521715Y-8208284D01*
X25578284Y-8208284D01*
X25578284Y-9224285D02*
X25578284Y-9167716D01*
X25521715Y-9167716D01*
X25521715Y-9224285D01*
X25578284Y-9224285D01*
X13333500Y-12237500D02*
X13378500Y-12192500D01*
X13333500Y-12147500D01*
X13288500Y-12192500D01*
X13333500Y-12237500D01*
X13333500Y-12491500D02*
X13378500Y-12446500D01*
X13333500Y-12401500D01*
X13288500Y-12446500D01*
X13333500Y-12491500D01*
X14442000Y-9468000D02*
X14542000Y-9568000D01*
X14542000Y-9468000D02*
X14442000Y-9568000D01*
X14542000Y-9518000D02*
G75*
G02*
X14442000Y-9518000I-50000J0D01*
G01*
X14442000Y-9518000D02*
G75*
G02*
X14542000Y-9518000I50000J0D01*
G01*
X14442000Y-9722000D02*
X14542000Y-9822000D01*
X14542000Y-9722000D02*
X14442000Y-9822000D01*
X14542000Y-9772000D02*
G75*
G02*
X14442000Y-9772000I-50000J0D01*
G01*
X14442000Y-9772000D02*
G75*
G02*
X14542000Y-9772000I50000J0D01*
G01*
X14442000Y-9976000D02*
X14542000Y-10076000D01*
X14542000Y-9976000D02*
X14442000Y-10076000D01*
X14542000Y-10026000D02*
G75*
G02*
X14442000Y-10026000I-50000J0D01*
G01*
X14442000Y-10026000D02*
G75*
G02*
X14542000Y-10026000I50000J0D01*
G01*
X14442000Y-10230000D02*
X14542000Y-10330000D01*
X14542000Y-10230000D02*
X14442000Y-10330000D01*
X14542000Y-10280000D02*
G75*
G02*
X14442000Y-10280000I-50000J0D01*
G01*
X14442000Y-10280000D02*
G75*
G02*
X14542000Y-10280000I50000J0D01*
G01*
X14442000Y-10484000D02*
X14542000Y-10584000D01*
X14542000Y-10484000D02*
X14442000Y-10584000D01*
X14542000Y-10534000D02*
G75*
G02*
X14442000Y-10534000I-50000J0D01*
G01*
X14442000Y-10534000D02*
G75*
G02*
X14542000Y-10534000I50000J0D01*
G01*
X14442000Y-10738000D02*
X14542000Y-10838000D01*
X14542000Y-10738000D02*
X14442000Y-10838000D01*
X14542000Y-10788000D02*
G75*
G02*
X14442000Y-10788000I-50000J0D01*
G01*
X14442000Y-10788000D02*
G75*
G02*
X14542000Y-10788000I50000J0D01*
G01*
X14442000Y-10992000D02*
X14542000Y-11092000D01*
X14542000Y-10992000D02*
X14442000Y-11092000D01*
X14542000Y-11042000D02*
G75*
G02*
X14442000Y-11042000I-50000J0D01*
G01*
X14442000Y-11042000D02*
G75*
G02*
X14542000Y-11042000I50000J0D01*
G01*
X14442000Y-11246000D02*
X14542000Y-11346000D01*
X14542000Y-11246000D02*
X14442000Y-11346000D01*
X14542000Y-11296000D02*
G75*
G02*
X14442000Y-11296000I-50000J0D01*
G01*
X14442000Y-11296000D02*
G75*
G02*
X14542000Y-11296000I50000J0D01*
G01*
X14442000Y-11500000D02*
X14542000Y-11600000D01*
X14542000Y-11500000D02*
X14442000Y-11600000D01*
X14542000Y-11550000D02*
G75*
G02*
X14442000Y-11550000I-50000J0D01*
G01*
X14442000Y-11550000D02*
G75*
G02*
X14542000Y-11550000I50000J0D01*
G01*
X14442000Y-11754000D02*
X14542000Y-11854000D01*
X14542000Y-11754000D02*
X14442000Y-11854000D01*
X14542000Y-11804000D02*
G75*
G02*
X14442000Y-11804000I-50000J0D01*
G01*
X14442000Y-11804000D02*
G75*
G02*
X14542000Y-11804000I50000J0D01*
G01*
X14442000Y-12008000D02*
X14542000Y-12108000D01*
X14542000Y-12008000D02*
X14442000Y-12108000D01*
X14542000Y-12058000D02*
G75*
G02*
X14442000Y-12058000I-50000J0D01*
G01*
X14442000Y-12058000D02*
G75*
G02*
X14542000Y-12058000I50000J0D01*
G01*
X14442000Y-12262000D02*
X14542000Y-12362000D01*
X14542000Y-12262000D02*
X14442000Y-12362000D01*
X14542000Y-12312000D02*
G75*
G02*
X14442000Y-12312000I-50000J0D01*
G01*
X14442000Y-12312000D02*
G75*
G02*
X14542000Y-12312000I50000J0D01*
G01*
X14442000Y-12516000D02*
X14542000Y-12616000D01*
X14542000Y-12516000D02*
X14442000Y-12616000D01*
X14542000Y-12566000D02*
G75*
G02*
X14442000Y-12566000I-50000J0D01*
G01*
X14442000Y-12566000D02*
G75*
G02*
X14542000Y-12566000I50000J0D01*
G01*
X14442000Y-12770000D02*
X14542000Y-12870000D01*
X14542000Y-12770000D02*
X14442000Y-12870000D01*
X14542000Y-12820000D02*
G75*
G02*
X14442000Y-12820000I-50000J0D01*
G01*
X14442000Y-12820000D02*
G75*
G02*
X14542000Y-12820000I50000J0D01*
G01*
X14442000Y-13024000D02*
X14542000Y-13124000D01*
X14542000Y-13024000D02*
X14442000Y-13124000D01*
X14542000Y-13074000D02*
G75*
G02*
X14442000Y-13074000I-50000J0D01*
G01*
X14442000Y-13074000D02*
G75*
G02*
X14542000Y-13074000I50000J0D01*
G01*
X14442000Y-13278000D02*
X14542000Y-13378000D01*
X14542000Y-13278000D02*
X14442000Y-13378000D01*
X14542000Y-13328000D02*
G75*
G02*
X14442000Y-13328000I-50000J0D01*
G01*
X14442000Y-13328000D02*
G75*
G02*
X14542000Y-13328000I50000J0D01*
G01*
X14442000Y-13532000D02*
X14542000Y-13632000D01*
X14542000Y-13532000D02*
X14442000Y-13632000D01*
X14542000Y-13582000D02*
G75*
G02*
X14442000Y-13582000I-50000J0D01*
G01*
X14442000Y-13582000D02*
G75*
G02*
X14542000Y-13582000I50000J0D01*
G01*
X14442000Y-13786000D02*
X14542000Y-13886000D01*
X14542000Y-13786000D02*
X14442000Y-13886000D01*
X14542000Y-13836000D02*
G75*
G02*
X14442000Y-13836000I-50000J0D01*
G01*
X14442000Y-13836000D02*
G75*
G02*
X14542000Y-13836000I50000J0D01*
G01*
X14442000Y-14040000D02*
X14542000Y-14140000D01*
X14542000Y-14040000D02*
X14442000Y-14140000D01*
X14542000Y-14090000D02*
G75*
G02*
X14442000Y-14090000I-50000J0D01*
G01*
X14442000Y-14090000D02*
G75*
G02*
X14542000Y-14090000I50000J0D01*
G01*
X14442000Y-14294000D02*
X14542000Y-14394000D01*
X14542000Y-14294000D02*
X14442000Y-14394000D01*
X14542000Y-14344000D02*
G75*
G02*
X14442000Y-14344000I-50000J0D01*
G01*
X14442000Y-14344000D02*
G75*
G02*
X14542000Y-14344000I50000J0D01*
G01*
X14696000Y-9468000D02*
X14796000Y-9568000D01*
X14796000Y-9468000D02*
X14696000Y-9568000D01*
X14796000Y-9518000D02*
G75*
G02*
X14696000Y-9518000I-50000J0D01*
G01*
X14696000Y-9518000D02*
G75*
G02*
X14796000Y-9518000I50000J0D01*
G01*
X14696000Y-9722000D02*
X14796000Y-9822000D01*
X14796000Y-9722000D02*
X14696000Y-9822000D01*
X14796000Y-9772000D02*
G75*
G02*
X14696000Y-9772000I-50000J0D01*
G01*
X14696000Y-9772000D02*
G75*
G02*
X14796000Y-9772000I50000J0D01*
G01*
X14696000Y-9976000D02*
X14796000Y-10076000D01*
X14796000Y-9976000D02*
X14696000Y-10076000D01*
X14796000Y-10026000D02*
G75*
G02*
X14696000Y-10026000I-50000J0D01*
G01*
X14696000Y-10026000D02*
G75*
G02*
X14796000Y-10026000I50000J0D01*
G01*
X14696000Y-10230000D02*
X14796000Y-10330000D01*
X14796000Y-10230000D02*
X14696000Y-10330000D01*
X14796000Y-10280000D02*
G75*
G02*
X14696000Y-10280000I-50000J0D01*
G01*
X14696000Y-10280000D02*
G75*
G02*
X14796000Y-10280000I50000J0D01*
G01*
X14696000Y-10484000D02*
X14796000Y-10584000D01*
X14796000Y-10484000D02*
X14696000Y-10584000D01*
X14796000Y-10534000D02*
G75*
G02*
X14696000Y-10534000I-50000J0D01*
G01*
X14696000Y-10534000D02*
G75*
G02*
X14796000Y-10534000I50000J0D01*
G01*
X14696000Y-10738000D02*
X14796000Y-10838000D01*
X14796000Y-10738000D02*
X14696000Y-10838000D01*
X14796000Y-10788000D02*
G75*
G02*
X14696000Y-10788000I-50000J0D01*
G01*
X14696000Y-10788000D02*
G75*
G02*
X14796000Y-10788000I50000J0D01*
G01*
X14696000Y-10992000D02*
X14796000Y-11092000D01*
X14796000Y-10992000D02*
X14696000Y-11092000D01*
X14796000Y-11042000D02*
G75*
G02*
X14696000Y-11042000I-50000J0D01*
G01*
X14696000Y-11042000D02*
G75*
G02*
X14796000Y-11042000I50000J0D01*
G01*
X14696000Y-11246000D02*
X14796000Y-11346000D01*
X14796000Y-11246000D02*
X14696000Y-11346000D01*
X14796000Y-11296000D02*
G75*
G02*
X14696000Y-11296000I-50000J0D01*
G01*
X14696000Y-11296000D02*
G75*
G02*
X14796000Y-11296000I50000J0D01*
G01*
X14696000Y-11500000D02*
X14796000Y-11600000D01*
X14796000Y-11500000D02*
X14696000Y-11600000D01*
X14796000Y-11550000D02*
G75*
G02*
X14696000Y-11550000I-50000J0D01*
G01*
X14696000Y-11550000D02*
G75*
G02*
X14796000Y-11550000I50000J0D01*
G01*
X14696000Y-11754000D02*
X14796000Y-11854000D01*
X14796000Y-11754000D02*
X14696000Y-11854000D01*
X14796000Y-11804000D02*
G75*
G02*
X14696000Y-11804000I-50000J0D01*
G01*
X14696000Y-11804000D02*
G75*
G02*
X14796000Y-11804000I50000J0D01*
G01*
X14696000Y-12008000D02*
X14796000Y-12108000D01*
X14796000Y-12008000D02*
X14696000Y-12108000D01*
X14796000Y-12058000D02*
G75*
G02*
X14696000Y-12058000I-50000J0D01*
G01*
X14696000Y-12058000D02*
G75*
G02*
X14796000Y-12058000I50000J0D01*
G01*
X14696000Y-12262000D02*
X14796000Y-12362000D01*
X14796000Y-12262000D02*
X14696000Y-12362000D01*
X14796000Y-12312000D02*
G75*
G02*
X14696000Y-12312000I-50000J0D01*
G01*
X14696000Y-12312000D02*
G75*
G02*
X14796000Y-12312000I50000J0D01*
G01*
X14696000Y-12516000D02*
X14796000Y-12616000D01*
X14796000Y-12516000D02*
X14696000Y-12616000D01*
X14796000Y-12566000D02*
G75*
G02*
X14696000Y-12566000I-50000J0D01*
G01*
X14696000Y-12566000D02*
G75*
G02*
X14796000Y-12566000I50000J0D01*
G01*
X14696000Y-12770000D02*
X14796000Y-12870000D01*
X14796000Y-12770000D02*
X14696000Y-12870000D01*
X14796000Y-12820000D02*
G75*
G02*
X14696000Y-12820000I-50000J0D01*
G01*
X14696000Y-12820000D02*
G75*
G02*
X14796000Y-12820000I50000J0D01*
G01*
X14696000Y-13024000D02*
X14796000Y-13124000D01*
X14796000Y-13024000D02*
X14696000Y-13124000D01*
X14796000Y-13074000D02*
G75*
G02*
X14696000Y-13074000I-50000J0D01*
G01*
X14696000Y-13074000D02*
G75*
G02*
X14796000Y-13074000I50000J0D01*
G01*
X14696000Y-13278000D02*
X14796000Y-13378000D01*
X14796000Y-13278000D02*
X14696000Y-13378000D01*
X14796000Y-13328000D02*
G75*
G02*
X14696000Y-13328000I-50000J0D01*
G01*
X14696000Y-13328000D02*
G75*
G02*
X14796000Y-13328000I50000J0D01*
G01*
X14696000Y-13532000D02*
X14796000Y-13632000D01*
X14796000Y-13532000D02*
X14696000Y-13632000D01*
X14796000Y-13582000D02*
G75*
G02*
X14696000Y-13582000I-50000J0D01*
G01*
X14696000Y-13582000D02*
G75*
G02*
X14796000Y-13582000I50000J0D01*
G01*
X14696000Y-13786000D02*
X14796000Y-13886000D01*
X14796000Y-13786000D02*
X14696000Y-13886000D01*
X14796000Y-13836000D02*
G75*
G02*
X14696000Y-13836000I-50000J0D01*
G01*
X14696000Y-13836000D02*
G75*
G02*
X14796000Y-13836000I50000J0D01*
G01*
X14696000Y-14040000D02*
X14796000Y-14140000D01*
X14796000Y-14040000D02*
X14696000Y-14140000D01*
X14796000Y-14090000D02*
G75*
G02*
X14696000Y-14090000I-50000J0D01*
G01*
X14696000Y-14090000D02*
G75*
G02*
X14796000Y-14090000I50000J0D01*
G01*
X14696000Y-14294000D02*
X14796000Y-14394000D01*
X14796000Y-14294000D02*
X14696000Y-14394000D01*
X14796000Y-14344000D02*
G75*
G02*
X14696000Y-14344000I-50000J0D01*
G01*
X14696000Y-14344000D02*
G75*
G02*
X14796000Y-14344000I50000J0D01*
G01*
X15825000Y-8459000D02*
X15925000Y-8559000D01*
X15925000Y-8459000D02*
X15825000Y-8559000D01*
X15925000Y-8509000D02*
G75*
G02*
X15825000Y-8509000I-50000J0D01*
G01*
X15825000Y-8509000D02*
G75*
G02*
X15925000Y-8509000I50000J0D01*
G01*
X15825000Y-8713000D02*
X15925000Y-8813000D01*
X15925000Y-8713000D02*
X15825000Y-8813000D01*
X15925000Y-8763000D02*
G75*
G02*
X15825000Y-8763000I-50000J0D01*
G01*
X15825000Y-8763000D02*
G75*
G02*
X15925000Y-8763000I50000J0D01*
G01*
X20546000Y-9468000D02*
X20646000Y-9568000D01*
X20646000Y-9468000D02*
X20546000Y-9568000D01*
X20646000Y-9518000D02*
G75*
G02*
X20546000Y-9518000I-50000J0D01*
G01*
X20546000Y-9518000D02*
G75*
G02*
X20646000Y-9518000I50000J0D01*
G01*
X20546000Y-9722000D02*
X20646000Y-9822000D01*
X20646000Y-9722000D02*
X20546000Y-9822000D01*
X20646000Y-9772000D02*
G75*
G02*
X20546000Y-9772000I-50000J0D01*
G01*
X20546000Y-9772000D02*
G75*
G02*
X20646000Y-9772000I50000J0D01*
G01*
X20546000Y-9976000D02*
X20646000Y-10076000D01*
X20646000Y-9976000D02*
X20546000Y-10076000D01*
X20646000Y-10026000D02*
G75*
G02*
X20546000Y-10026000I-50000J0D01*
G01*
X20546000Y-10026000D02*
G75*
G02*
X20646000Y-10026000I50000J0D01*
G01*
X20546000Y-10230000D02*
X20646000Y-10330000D01*
X20646000Y-10230000D02*
X20546000Y-10330000D01*
X20646000Y-10280000D02*
G75*
G02*
X20546000Y-10280000I-50000J0D01*
G01*
X20546000Y-10280000D02*
G75*
G02*
X20646000Y-10280000I50000J0D01*
G01*
X20546000Y-10484000D02*
X20646000Y-10584000D01*
X20646000Y-10484000D02*
X20546000Y-10584000D01*
X20646000Y-10534000D02*
G75*
G02*
X20546000Y-10534000I-50000J0D01*
G01*
X20546000Y-10534000D02*
G75*
G02*
X20646000Y-10534000I50000J0D01*
G01*
X20546000Y-10738000D02*
X20646000Y-10838000D01*
X20646000Y-10738000D02*
X20546000Y-10838000D01*
X20646000Y-10788000D02*
G75*
G02*
X20546000Y-10788000I-50000J0D01*
G01*
X20546000Y-10788000D02*
G75*
G02*
X20646000Y-10788000I50000J0D01*
G01*
X20546000Y-10992000D02*
X20646000Y-11092000D01*
X20646000Y-10992000D02*
X20546000Y-11092000D01*
X20646000Y-11042000D02*
G75*
G02*
X20546000Y-11042000I-50000J0D01*
G01*
X20546000Y-11042000D02*
G75*
G02*
X20646000Y-11042000I50000J0D01*
G01*
X20546000Y-11246000D02*
X20646000Y-11346000D01*
X20646000Y-11246000D02*
X20546000Y-11346000D01*
X20646000Y-11296000D02*
G75*
G02*
X20546000Y-11296000I-50000J0D01*
G01*
X20546000Y-11296000D02*
G75*
G02*
X20646000Y-11296000I50000J0D01*
G01*
X20546000Y-11500000D02*
X20646000Y-11600000D01*
X20646000Y-11500000D02*
X20546000Y-11600000D01*
X20646000Y-11550000D02*
G75*
G02*
X20546000Y-11550000I-50000J0D01*
G01*
X20546000Y-11550000D02*
G75*
G02*
X20646000Y-11550000I50000J0D01*
G01*
X20546000Y-11754000D02*
X20646000Y-11854000D01*
X20646000Y-11754000D02*
X20546000Y-11854000D01*
X20646000Y-11804000D02*
G75*
G02*
X20546000Y-11804000I-50000J0D01*
G01*
X20546000Y-11804000D02*
G75*
G02*
X20646000Y-11804000I50000J0D01*
G01*
X20546000Y-12008000D02*
X20646000Y-12108000D01*
X20646000Y-12008000D02*
X20546000Y-12108000D01*
X20646000Y-12058000D02*
G75*
G02*
X20546000Y-12058000I-50000J0D01*
G01*
X20546000Y-12058000D02*
G75*
G02*
X20646000Y-12058000I50000J0D01*
G01*
X20546000Y-12262000D02*
X20646000Y-12362000D01*
X20646000Y-12262000D02*
X20546000Y-12362000D01*
X20646000Y-12312000D02*
G75*
G02*
X20546000Y-12312000I-50000J0D01*
G01*
X20546000Y-12312000D02*
G75*
G02*
X20646000Y-12312000I50000J0D01*
G01*
X20546000Y-12516000D02*
X20646000Y-12616000D01*
X20646000Y-12516000D02*
X20546000Y-12616000D01*
X20646000Y-12566000D02*
G75*
G02*
X20546000Y-12566000I-50000J0D01*
G01*
X20546000Y-12566000D02*
G75*
G02*
X20646000Y-12566000I50000J0D01*
G01*
X20546000Y-12770000D02*
X20646000Y-12870000D01*
X20646000Y-12770000D02*
X20546000Y-12870000D01*
X20646000Y-12820000D02*
G75*
G02*
X20546000Y-12820000I-50000J0D01*
G01*
X20546000Y-12820000D02*
G75*
G02*
X20646000Y-12820000I50000J0D01*
G01*
X20546000Y-13024000D02*
X20646000Y-13124000D01*
X20646000Y-13024000D02*
X20546000Y-13124000D01*
X20646000Y-13074000D02*
G75*
G02*
X20546000Y-13074000I-50000J0D01*
G01*
X20546000Y-13074000D02*
G75*
G02*
X20646000Y-13074000I50000J0D01*
G01*
X20546000Y-13278000D02*
X20646000Y-13378000D01*
X20646000Y-13278000D02*
X20546000Y-13378000D01*
X20646000Y-13328000D02*
G75*
G02*
X20546000Y-13328000I-50000J0D01*
G01*
X20546000Y-13328000D02*
G75*
G02*
X20646000Y-13328000I50000J0D01*
G01*
X20546000Y-13532000D02*
X20646000Y-13632000D01*
X20646000Y-13532000D02*
X20546000Y-13632000D01*
X20646000Y-13582000D02*
G75*
G02*
X20546000Y-13582000I-50000J0D01*
G01*
X20546000Y-13582000D02*
G75*
G02*
X20646000Y-13582000I50000J0D01*
G01*
X20546000Y-13786000D02*
X20646000Y-13886000D01*
X20646000Y-13786000D02*
X20546000Y-13886000D01*
X20646000Y-13836000D02*
G75*
G02*
X20546000Y-13836000I-50000J0D01*
G01*
X20546000Y-13836000D02*
G75*
G02*
X20646000Y-13836000I50000J0D01*
G01*
X20546000Y-14040000D02*
X20646000Y-14140000D01*
X20646000Y-14040000D02*
X20546000Y-14140000D01*
X20646000Y-14090000D02*
G75*
G02*
X20546000Y-14090000I-50000J0D01*
G01*
X20546000Y-14090000D02*
G75*
G02*
X20646000Y-14090000I50000J0D01*
G01*
X20546000Y-14294000D02*
X20646000Y-14394000D01*
X20646000Y-14294000D02*
X20546000Y-14394000D01*
X20646000Y-14344000D02*
G75*
G02*
X20546000Y-14344000I-50000J0D01*
G01*
X20546000Y-14344000D02*
G75*
G02*
X20646000Y-14344000I50000J0D01*
G01*
X20800000Y-9468000D02*
X20900000Y-9568000D01*
X20900000Y-9468000D02*
X20800000Y-9568000D01*
X20900000Y-9518000D02*
G75*
G02*
X20800000Y-9518000I-50000J0D01*
G01*
X20800000Y-9518000D02*
G75*
G02*
X20900000Y-9518000I50000J0D01*
G01*
X20800000Y-9722000D02*
X20900000Y-9822000D01*
X20900000Y-9722000D02*
X20800000Y-9822000D01*
X20900000Y-9772000D02*
G75*
G02*
X20800000Y-9772000I-50000J0D01*
G01*
X20800000Y-9772000D02*
G75*
G02*
X20900000Y-9772000I50000J0D01*
G01*
X20800000Y-9976000D02*
X20900000Y-10076000D01*
X20900000Y-9976000D02*
X20800000Y-10076000D01*
X20900000Y-10026000D02*
G75*
G02*
X20800000Y-10026000I-50000J0D01*
G01*
X20800000Y-10026000D02*
G75*
G02*
X20900000Y-10026000I50000J0D01*
G01*
X20800000Y-10230000D02*
X20900000Y-10330000D01*
X20900000Y-10230000D02*
X20800000Y-10330000D01*
X20900000Y-10280000D02*
G75*
G02*
X20800000Y-10280000I-50000J0D01*
G01*
X20800000Y-10280000D02*
G75*
G02*
X20900000Y-10280000I50000J0D01*
G01*
X20800000Y-10484000D02*
X20900000Y-10584000D01*
X20900000Y-10484000D02*
X20800000Y-10584000D01*
X20900000Y-10534000D02*
G75*
G02*
X20800000Y-10534000I-50000J0D01*
G01*
X20800000Y-10534000D02*
G75*
G02*
X20900000Y-10534000I50000J0D01*
G01*
X20800000Y-10738000D02*
X20900000Y-10838000D01*
X20900000Y-10738000D02*
X20800000Y-10838000D01*
X20900000Y-10788000D02*
G75*
G02*
X20800000Y-10788000I-50000J0D01*
G01*
X20800000Y-10788000D02*
G75*
G02*
X20900000Y-10788000I50000J0D01*
G01*
X20800000Y-10992000D02*
X20900000Y-11092000D01*
X20900000Y-10992000D02*
X20800000Y-11092000D01*
X20900000Y-11042000D02*
G75*
G02*
X20800000Y-11042000I-50000J0D01*
G01*
X20800000Y-11042000D02*
G75*
G02*
X20900000Y-11042000I50000J0D01*
G01*
X20800000Y-11246000D02*
X20900000Y-11346000D01*
X20900000Y-11246000D02*
X20800000Y-11346000D01*
X20900000Y-11296000D02*
G75*
G02*
X20800000Y-11296000I-50000J0D01*
G01*
X20800000Y-11296000D02*
G75*
G02*
X20900000Y-11296000I50000J0D01*
G01*
X20800000Y-11500000D02*
X20900000Y-11600000D01*
X20900000Y-11500000D02*
X20800000Y-11600000D01*
X20900000Y-11550000D02*
G75*
G02*
X20800000Y-11550000I-50000J0D01*
G01*
X20800000Y-11550000D02*
G75*
G02*
X20900000Y-11550000I50000J0D01*
G01*
X20800000Y-11754000D02*
X20900000Y-11854000D01*
X20900000Y-11754000D02*
X20800000Y-11854000D01*
X20900000Y-11804000D02*
G75*
G02*
X20800000Y-11804000I-50000J0D01*
G01*
X20800000Y-11804000D02*
G75*
G02*
X20900000Y-11804000I50000J0D01*
G01*
X20800000Y-12008000D02*
X20900000Y-12108000D01*
X20900000Y-12008000D02*
X20800000Y-12108000D01*
X20900000Y-12058000D02*
G75*
G02*
X20800000Y-12058000I-50000J0D01*
G01*
X20800000Y-12058000D02*
G75*
G02*
X20900000Y-12058000I50000J0D01*
G01*
X20800000Y-12262000D02*
X20900000Y-12362000D01*
X20900000Y-12262000D02*
X20800000Y-12362000D01*
X20900000Y-12312000D02*
G75*
G02*
X20800000Y-12312000I-50000J0D01*
G01*
X20800000Y-12312000D02*
G75*
G02*
X20900000Y-12312000I50000J0D01*
G01*
X20800000Y-12516000D02*
X20900000Y-12616000D01*
X20900000Y-12516000D02*
X20800000Y-12616000D01*
X20900000Y-12566000D02*
G75*
G02*
X20800000Y-12566000I-50000J0D01*
G01*
X20800000Y-12566000D02*
G75*
G02*
X20900000Y-12566000I50000J0D01*
G01*
X20800000Y-12770000D02*
X20900000Y-12870000D01*
X20900000Y-12770000D02*
X20800000Y-12870000D01*
X20900000Y-12820000D02*
G75*
G02*
X20800000Y-12820000I-50000J0D01*
G01*
X20800000Y-12820000D02*
G75*
G02*
X20900000Y-12820000I50000J0D01*
G01*
X20800000Y-13024000D02*
X20900000Y-13124000D01*
X20900000Y-13024000D02*
X20800000Y-13124000D01*
X20900000Y-13074000D02*
G75*
G02*
X20800000Y-13074000I-50000J0D01*
G01*
X20800000Y-13074000D02*
G75*
G02*
X20900000Y-13074000I50000J0D01*
G01*
X20800000Y-13278000D02*
X20900000Y-13378000D01*
X20900000Y-13278000D02*
X20800000Y-13378000D01*
X20900000Y-13328000D02*
G75*
G02*
X20800000Y-13328000I-50000J0D01*
G01*
X20800000Y-13328000D02*
G75*
G02*
X20900000Y-13328000I50000J0D01*
G01*
X20800000Y-13532000D02*
X20900000Y-13632000D01*
X20900000Y-13532000D02*
X20800000Y-13632000D01*
X20900000Y-13582000D02*
G75*
G02*
X20800000Y-13582000I-50000J0D01*
G01*
X20800000Y-13582000D02*
G75*
G02*
X20900000Y-13582000I50000J0D01*
G01*
X20800000Y-13786000D02*
X20900000Y-13886000D01*
X20900000Y-13786000D02*
X20800000Y-13886000D01*
X20900000Y-13836000D02*
G75*
G02*
X20800000Y-13836000I-50000J0D01*
G01*
X20800000Y-13836000D02*
G75*
G02*
X20900000Y-13836000I50000J0D01*
G01*
X20800000Y-14040000D02*
X20900000Y-14140000D01*
X20900000Y-14040000D02*
X20800000Y-14140000D01*
X20900000Y-14090000D02*
G75*
G02*
X20800000Y-14090000I-50000J0D01*
G01*
X20800000Y-14090000D02*
G75*
G02*
X20900000Y-14090000I50000J0D01*
G01*
X20800000Y-14294000D02*
X20900000Y-14394000D01*
X20900000Y-14294000D02*
X20800000Y-14394000D01*
X20900000Y-14344000D02*
G75*
G02*
X20800000Y-14344000I-50000J0D01*
G01*
X20800000Y-14344000D02*
G75*
G02*
X20900000Y-14344000I50000J0D01*
G01*
X22175000Y-8433600D02*
X22275000Y-8533600D01*
X22275000Y-8433600D02*
X22175000Y-8533600D01*
X22275000Y-8483600D02*
G75*
G02*
X22175000Y-8483600I-50000J0D01*
G01*
X22175000Y-8483600D02*
G75*
G02*
X22275000Y-8483600I50000J0D01*
G01*
X22175000Y-8687600D02*
X22275000Y-8787600D01*
X22275000Y-8687600D02*
X22175000Y-8787600D01*
X22275000Y-8737600D02*
G75*
G02*
X22175000Y-8737600I-50000J0D01*
G01*
X22175000Y-8737600D02*
G75*
G02*
X22275000Y-8737600I50000J0D01*
G01*
X22175000Y-8941600D02*
X22275000Y-9041600D01*
X22275000Y-8941600D02*
X22175000Y-9041600D01*
X22275000Y-8991600D02*
G75*
G02*
X22175000Y-8991600I-50000J0D01*
G01*
X22175000Y-8991600D02*
G75*
G02*
X22275000Y-8991600I50000J0D01*
G01*
X24649000Y-12615000D02*
X24749000Y-12715000D01*
X24749000Y-12615000D02*
X24649000Y-12715000D01*
X24749000Y-12665000D02*
G75*
G02*
X24649000Y-12665000I-50000J0D01*
G01*
X24649000Y-12665000D02*
G75*
G02*
X24749000Y-12665000I50000J0D01*
G01*
X24903000Y-12615000D02*
X25003000Y-12715000D01*
X25003000Y-12615000D02*
X24903000Y-12715000D01*
X25003000Y-12665000D02*
G75*
G02*
X24903000Y-12665000I-50000J0D01*
G01*
X24903000Y-12665000D02*
G75*
G02*
X25003000Y-12665000I50000J0D01*
G01*
X25157000Y-12615000D02*
X25257000Y-12715000D01*
X25257000Y-12615000D02*
X25157000Y-12715000D01*
X25257000Y-12665000D02*
G75*
G02*
X25157000Y-12665000I-50000J0D01*
G01*
X25157000Y-12665000D02*
G75*
G02*
X25257000Y-12665000I50000J0D01*
G01*
X25411000Y-12615000D02*
X25511000Y-12715000D01*
X25511000Y-12615000D02*
X25411000Y-12715000D01*
X25511000Y-12665000D02*
G75*
G02*
X25411000Y-12665000I-50000J0D01*
G01*
X25411000Y-12665000D02*
G75*
G02*
X25511000Y-12665000I50000J0D01*
G01*
D13*
X15225000Y-7477000D02*
X15335000Y-7587000D01*
X15335000Y-7477000D02*
X15225000Y-7587000D01*
X15280000Y-7477000D02*
X15280000Y-7587000D01*
X15225000Y-7532000D02*
X15335000Y-7532000D01*
X15225000Y-7731000D02*
X15335000Y-7841000D01*
X15335000Y-7731000D02*
X15225000Y-7841000D01*
X15280000Y-7731000D02*
X15280000Y-7841000D01*
X15225000Y-7786000D02*
X15335000Y-7786000D01*
X15225000Y-7985000D02*
X15335000Y-8095000D01*
X15335000Y-7985000D02*
X15225000Y-8095000D01*
X15280000Y-7985000D02*
X15280000Y-8095000D01*
X15225000Y-8040000D02*
X15335000Y-8040000D01*
D14*
X13087000Y-7467000D02*
X13217000Y-7597000D01*
X13217000Y-7467000D02*
X13087000Y-7597000D01*
X13197962Y-7577962D02*
X13197962Y-7486038D01*
X13106038Y-7486038D01*
X13106038Y-7577962D01*
X13197962Y-7577962D01*
X13595000Y-7467000D02*
X13725000Y-7597000D01*
X13725000Y-7467000D02*
X13595000Y-7597000D01*
X13705962Y-7577962D02*
X13705962Y-7486038D01*
X13614038Y-7486038D01*
X13614038Y-7577962D01*
X13705962Y-7577962D01*
D11*
X12608277Y-15363984D02*
X12608277Y-15163984D01*
X12608277Y-15163984D02*
X12655896Y-15163984D01*
X12655896Y-15163984D02*
X12684467Y-15173508D01*
X12684467Y-15173508D02*
X12703515Y-15192555D01*
X12703515Y-15192555D02*
X12713039Y-15211603D01*
X12713039Y-15211603D02*
X12722562Y-15249698D01*
X12722562Y-15249698D02*
X12722562Y-15278269D01*
X12722562Y-15278269D02*
X12713039Y-15316365D01*
X12713039Y-15316365D02*
X12703515Y-15335412D01*
X12703515Y-15335412D02*
X12684467Y-15354460D01*
X12684467Y-15354460D02*
X12655896Y-15363984D01*
X12655896Y-15363984D02*
X12608277Y-15363984D01*
X12808277Y-15363984D02*
X12808277Y-15230650D01*
X12808277Y-15268746D02*
X12817801Y-15249698D01*
X12817801Y-15249698D02*
X12827324Y-15240174D01*
X12827324Y-15240174D02*
X12846372Y-15230650D01*
X12846372Y-15230650D02*
X12865420Y-15230650D01*
X12932086Y-15363984D02*
X12932086Y-15230650D01*
X12932086Y-15163984D02*
X12922562Y-15173508D01*
X12922562Y-15173508D02*
X12932086Y-15183031D01*
X12932086Y-15183031D02*
X12941610Y-15173508D01*
X12941610Y-15173508D02*
X12932086Y-15163984D01*
X12932086Y-15163984D02*
X12932086Y-15183031D01*
X13055896Y-15363984D02*
X13036848Y-15354460D01*
X13036848Y-15354460D02*
X13027324Y-15335412D01*
X13027324Y-15335412D02*
X13027324Y-15163984D01*
X13160658Y-15363984D02*
X13141610Y-15354460D01*
X13141610Y-15354460D02*
X13132086Y-15335412D01*
X13132086Y-15335412D02*
X13132086Y-15163984D01*
X13389229Y-15363984D02*
X13389229Y-15163984D01*
X13389229Y-15163984D02*
X13455896Y-15306841D01*
X13455896Y-15306841D02*
X13522562Y-15163984D01*
X13522562Y-15163984D02*
X13522562Y-15363984D01*
X13703515Y-15363984D02*
X13703515Y-15259222D01*
X13703515Y-15259222D02*
X13693991Y-15240174D01*
X13693991Y-15240174D02*
X13674943Y-15230650D01*
X13674943Y-15230650D02*
X13636848Y-15230650D01*
X13636848Y-15230650D02*
X13617801Y-15240174D01*
X13703515Y-15354460D02*
X13684467Y-15363984D01*
X13684467Y-15363984D02*
X13636848Y-15363984D01*
X13636848Y-15363984D02*
X13617801Y-15354460D01*
X13617801Y-15354460D02*
X13608277Y-15335412D01*
X13608277Y-15335412D02*
X13608277Y-15316365D01*
X13608277Y-15316365D02*
X13617801Y-15297317D01*
X13617801Y-15297317D02*
X13636848Y-15287793D01*
X13636848Y-15287793D02*
X13684467Y-15287793D01*
X13684467Y-15287793D02*
X13703515Y-15278269D01*
X13798753Y-15230650D02*
X13798753Y-15430650D01*
X13798753Y-15240174D02*
X13817801Y-15230650D01*
X13817801Y-15230650D02*
X13855896Y-15230650D01*
X13855896Y-15230650D02*
X13874943Y-15240174D01*
X13874943Y-15240174D02*
X13884467Y-15249698D01*
X13884467Y-15249698D02*
X13893991Y-15268746D01*
X13893991Y-15268746D02*
X13893991Y-15325888D01*
X13893991Y-15325888D02*
X13884467Y-15344936D01*
X13884467Y-15344936D02*
X13874943Y-15354460D01*
X13874943Y-15354460D02*
X13855896Y-15363984D01*
X13855896Y-15363984D02*
X13817801Y-15363984D01*
X13817801Y-15363984D02*
X13798753Y-15354460D01*
X13979705Y-15344936D02*
X13989229Y-15354460D01*
X13989229Y-15354460D02*
X13979705Y-15363984D01*
X13979705Y-15363984D02*
X13970182Y-15354460D01*
X13970182Y-15354460D02*
X13979705Y-15344936D01*
X13979705Y-15344936D02*
X13979705Y-15363984D01*
X13979705Y-15240174D02*
X13989229Y-15249698D01*
X13989229Y-15249698D02*
X13979705Y-15259222D01*
X13979705Y-15259222D02*
X13970182Y-15249698D01*
X13970182Y-15249698D02*
X13979705Y-15240174D01*
X13979705Y-15240174D02*
X13979705Y-15259222D01*
D12*
X12287500Y-15662500D02*
X12347500Y-15722500D01*
X12347500Y-15662500D02*
X12287500Y-15722500D01*
D11*
X12646372Y-15583984D02*
X12665420Y-15583984D01*
X12665420Y-15583984D02*
X12684467Y-15593508D01*
X12684467Y-15593508D02*
X12693991Y-15603031D01*
X12693991Y-15603031D02*
X12703515Y-15622079D01*
X12703515Y-15622079D02*
X12713039Y-15660174D01*
X12713039Y-15660174D02*
X12713039Y-15707793D01*
X12713039Y-15707793D02*
X12703515Y-15745888D01*
X12703515Y-15745888D02*
X12693991Y-15764936D01*
X12693991Y-15764936D02*
X12684467Y-15774460D01*
X12684467Y-15774460D02*
X12665420Y-15783984D01*
X12665420Y-15783984D02*
X12646372Y-15783984D01*
X12646372Y-15783984D02*
X12627324Y-15774460D01*
X12627324Y-15774460D02*
X12617801Y-15764936D01*
X12617801Y-15764936D02*
X12608277Y-15745888D01*
X12608277Y-15745888D02*
X12598753Y-15707793D01*
X12598753Y-15707793D02*
X12598753Y-15660174D01*
X12598753Y-15660174D02*
X12608277Y-15622079D01*
X12608277Y-15622079D02*
X12617801Y-15603031D01*
X12617801Y-15603031D02*
X12627324Y-15593508D01*
X12627324Y-15593508D02*
X12646372Y-15583984D01*
X12798753Y-15764936D02*
X12808277Y-15774460D01*
X12808277Y-15774460D02*
X12798753Y-15783984D01*
X12798753Y-15783984D02*
X12789229Y-15774460D01*
X12789229Y-15774460D02*
X12798753Y-15764936D01*
X12798753Y-15764936D02*
X12798753Y-15783984D01*
X12979705Y-15583984D02*
X12941610Y-15583984D01*
X12941610Y-15583984D02*
X12922562Y-15593508D01*
X12922562Y-15593508D02*
X12913039Y-15603031D01*
X12913039Y-15603031D02*
X12893991Y-15631603D01*
X12893991Y-15631603D02*
X12884467Y-15669698D01*
X12884467Y-15669698D02*
X12884467Y-15745888D01*
X12884467Y-15745888D02*
X12893991Y-15764936D01*
X12893991Y-15764936D02*
X12903515Y-15774460D01*
X12903515Y-15774460D02*
X12922562Y-15783984D01*
X12922562Y-15783984D02*
X12960658Y-15783984D01*
X12960658Y-15783984D02*
X12979705Y-15774460D01*
X12979705Y-15774460D02*
X12989229Y-15764936D01*
X12989229Y-15764936D02*
X12998753Y-15745888D01*
X12998753Y-15745888D02*
X12998753Y-15698269D01*
X12998753Y-15698269D02*
X12989229Y-15679222D01*
X12989229Y-15679222D02*
X12979705Y-15669698D01*
X12979705Y-15669698D02*
X12960658Y-15660174D01*
X12960658Y-15660174D02*
X12922562Y-15660174D01*
X12922562Y-15660174D02*
X12903515Y-15669698D01*
X12903515Y-15669698D02*
X12893991Y-15679222D01*
X12893991Y-15679222D02*
X12884467Y-15698269D01*
X13122562Y-15583984D02*
X13141610Y-15583984D01*
X13141610Y-15583984D02*
X13160658Y-15593508D01*
X13160658Y-15593508D02*
X13170182Y-15603031D01*
X13170182Y-15603031D02*
X13179705Y-15622079D01*
X13179705Y-15622079D02*
X13189229Y-15660174D01*
X13189229Y-15660174D02*
X13189229Y-15707793D01*
X13189229Y-15707793D02*
X13179705Y-15745888D01*
X13179705Y-15745888D02*
X13170182Y-15764936D01*
X13170182Y-15764936D02*
X13160658Y-15774460D01*
X13160658Y-15774460D02*
X13141610Y-15783984D01*
X13141610Y-15783984D02*
X13122562Y-15783984D01*
X13122562Y-15783984D02*
X13103515Y-15774460D01*
X13103515Y-15774460D02*
X13093991Y-15764936D01*
X13093991Y-15764936D02*
X13084467Y-15745888D01*
X13084467Y-15745888D02*
X13074943Y-15707793D01*
X13074943Y-15707793D02*
X13074943Y-15660174D01*
X13074943Y-15660174D02*
X13084467Y-15622079D01*
X13084467Y-15622079D02*
X13093991Y-15603031D01*
X13093991Y-15603031D02*
X13103515Y-15593508D01*
X13103515Y-15593508D02*
X13122562Y-15583984D01*
X13313039Y-15583984D02*
X13332086Y-15583984D01*
X13332086Y-15583984D02*
X13351134Y-15593508D01*
X13351134Y-15593508D02*
X13360658Y-15603031D01*
X13360658Y-15603031D02*
X13370182Y-15622079D01*
X13370182Y-15622079D02*
X13379705Y-15660174D01*
X13379705Y-15660174D02*
X13379705Y-15707793D01*
X13379705Y-15707793D02*
X13370182Y-15745888D01*
X13370182Y-15745888D02*
X13360658Y-15764936D01*
X13360658Y-15764936D02*
X13351134Y-15774460D01*
X13351134Y-15774460D02*
X13332086Y-15783984D01*
X13332086Y-15783984D02*
X13313039Y-15783984D01*
X13313039Y-15783984D02*
X13293991Y-15774460D01*
X13293991Y-15774460D02*
X13284467Y-15764936D01*
X13284467Y-15764936D02*
X13274943Y-15745888D01*
X13274943Y-15745888D02*
X13265420Y-15707793D01*
X13265420Y-15707793D02*
X13265420Y-15660174D01*
X13265420Y-15660174D02*
X13274943Y-15622079D01*
X13274943Y-15622079D02*
X13284467Y-15603031D01*
X13284467Y-15603031D02*
X13293991Y-15593508D01*
X13293991Y-15593508D02*
X13313039Y-15583984D01*
X13465420Y-15783984D02*
X13465420Y-15650650D01*
X13465420Y-15669698D02*
X13474943Y-15660174D01*
X13474943Y-15660174D02*
X13493991Y-15650650D01*
X13493991Y-15650650D02*
X13522563Y-15650650D01*
X13522563Y-15650650D02*
X13541610Y-15660174D01*
X13541610Y-15660174D02*
X13551134Y-15679222D01*
X13551134Y-15679222D02*
X13551134Y-15783984D01*
X13551134Y-15679222D02*
X13560658Y-15660174D01*
X13560658Y-15660174D02*
X13579705Y-15650650D01*
X13579705Y-15650650D02*
X13608277Y-15650650D01*
X13608277Y-15650650D02*
X13627324Y-15660174D01*
X13627324Y-15660174D02*
X13636848Y-15679222D01*
X13636848Y-15679222D02*
X13636848Y-15783984D01*
X13732086Y-15783984D02*
X13732086Y-15650650D01*
X13732086Y-15669698D02*
X13741610Y-15660174D01*
X13741610Y-15660174D02*
X13760658Y-15650650D01*
X13760658Y-15650650D02*
X13789229Y-15650650D01*
X13789229Y-15650650D02*
X13808277Y-15660174D01*
X13808277Y-15660174D02*
X13817801Y-15679222D01*
X13817801Y-15679222D02*
X13817801Y-15783984D01*
X13817801Y-15679222D02*
X13827324Y-15660174D01*
X13827324Y-15660174D02*
X13846372Y-15650650D01*
X13846372Y-15650650D02*
X13874943Y-15650650D01*
X13874943Y-15650650D02*
X13893991Y-15660174D01*
X13893991Y-15660174D02*
X13903515Y-15679222D01*
X13903515Y-15679222D02*
X13903515Y-15783984D01*
X14293991Y-15574460D02*
X14122563Y-15831603D01*
X14551134Y-15583984D02*
X14570182Y-15583984D01*
X14570182Y-15583984D02*
X14589229Y-15593508D01*
X14589229Y-15593508D02*
X14598753Y-15603031D01*
X14598753Y-15603031D02*
X14608277Y-15622079D01*
X14608277Y-15622079D02*
X14617801Y-15660174D01*
X14617801Y-15660174D02*
X14617801Y-15707793D01*
X14617801Y-15707793D02*
X14608277Y-15745888D01*
X14608277Y-15745888D02*
X14598753Y-15764936D01*
X14598753Y-15764936D02*
X14589229Y-15774460D01*
X14589229Y-15774460D02*
X14570182Y-15783984D01*
X14570182Y-15783984D02*
X14551134Y-15783984D01*
X14551134Y-15783984D02*
X14532086Y-15774460D01*
X14532086Y-15774460D02*
X14522563Y-15764936D01*
X14522563Y-15764936D02*
X14513039Y-15745888D01*
X14513039Y-15745888D02*
X14503515Y-15707793D01*
X14503515Y-15707793D02*
X14503515Y-15660174D01*
X14503515Y-15660174D02*
X14513039Y-15622079D01*
X14513039Y-15622079D02*
X14522563Y-15603031D01*
X14522563Y-15603031D02*
X14532086Y-15593508D01*
X14532086Y-15593508D02*
X14551134Y-15583984D01*
X14703515Y-15764936D02*
X14713039Y-15774460D01*
X14713039Y-15774460D02*
X14703515Y-15783984D01*
X14703515Y-15783984D02*
X14693991Y-15774460D01*
X14693991Y-15774460D02*
X14703515Y-15764936D01*
X14703515Y-15764936D02*
X14703515Y-15783984D01*
X14836848Y-15583984D02*
X14855896Y-15583984D01*
X14855896Y-15583984D02*
X14874944Y-15593508D01*
X14874944Y-15593508D02*
X14884467Y-15603031D01*
X14884467Y-15603031D02*
X14893991Y-15622079D01*
X14893991Y-15622079D02*
X14903515Y-15660174D01*
X14903515Y-15660174D02*
X14903515Y-15707793D01*
X14903515Y-15707793D02*
X14893991Y-15745888D01*
X14893991Y-15745888D02*
X14884467Y-15764936D01*
X14884467Y-15764936D02*
X14874944Y-15774460D01*
X14874944Y-15774460D02*
X14855896Y-15783984D01*
X14855896Y-15783984D02*
X14836848Y-15783984D01*
X14836848Y-15783984D02*
X14817801Y-15774460D01*
X14817801Y-15774460D02*
X14808277Y-15764936D01*
X14808277Y-15764936D02*
X14798753Y-15745888D01*
X14798753Y-15745888D02*
X14789229Y-15707793D01*
X14789229Y-15707793D02*
X14789229Y-15660174D01*
X14789229Y-15660174D02*
X14798753Y-15622079D01*
X14798753Y-15622079D02*
X14808277Y-15603031D01*
X14808277Y-15603031D02*
X14817801Y-15593508D01*
X14817801Y-15593508D02*
X14836848Y-15583984D01*
X14979706Y-15603031D02*
X14989229Y-15593508D01*
X14989229Y-15593508D02*
X15008277Y-15583984D01*
X15008277Y-15583984D02*
X15055896Y-15583984D01*
X15055896Y-15583984D02*
X15074944Y-15593508D01*
X15074944Y-15593508D02*
X15084467Y-15603031D01*
X15084467Y-15603031D02*
X15093991Y-15622079D01*
X15093991Y-15622079D02*
X15093991Y-15641127D01*
X15093991Y-15641127D02*
X15084467Y-15669698D01*
X15084467Y-15669698D02*
X14970182Y-15783984D01*
X14970182Y-15783984D02*
X15093991Y-15783984D01*
X15160658Y-15583984D02*
X15284467Y-15583984D01*
X15284467Y-15583984D02*
X15217801Y-15660174D01*
X15217801Y-15660174D02*
X15246372Y-15660174D01*
X15246372Y-15660174D02*
X15265420Y-15669698D01*
X15265420Y-15669698D02*
X15274944Y-15679222D01*
X15274944Y-15679222D02*
X15284467Y-15698269D01*
X15284467Y-15698269D02*
X15284467Y-15745888D01*
X15284467Y-15745888D02*
X15274944Y-15764936D01*
X15274944Y-15764936D02*
X15265420Y-15774460D01*
X15265420Y-15774460D02*
X15246372Y-15783984D01*
X15246372Y-15783984D02*
X15189229Y-15783984D01*
X15189229Y-15783984D02*
X15170182Y-15774460D01*
X15170182Y-15774460D02*
X15160658Y-15764936D01*
X15455896Y-15583984D02*
X15417801Y-15583984D01*
X15417801Y-15583984D02*
X15398753Y-15593508D01*
X15398753Y-15593508D02*
X15389229Y-15603031D01*
X15389229Y-15603031D02*
X15370182Y-15631603D01*
X15370182Y-15631603D02*
X15360658Y-15669698D01*
X15360658Y-15669698D02*
X15360658Y-15745888D01*
X15360658Y-15745888D02*
X15370182Y-15764936D01*
X15370182Y-15764936D02*
X15379706Y-15774460D01*
X15379706Y-15774460D02*
X15398753Y-15783984D01*
X15398753Y-15783984D02*
X15436848Y-15783984D01*
X15436848Y-15783984D02*
X15455896Y-15774460D01*
X15455896Y-15774460D02*
X15465420Y-15764936D01*
X15465420Y-15764936D02*
X15474944Y-15745888D01*
X15474944Y-15745888D02*
X15474944Y-15698269D01*
X15474944Y-15698269D02*
X15465420Y-15679222D01*
X15465420Y-15679222D02*
X15455896Y-15669698D01*
X15455896Y-15669698D02*
X15436848Y-15660174D01*
X15436848Y-15660174D02*
X15398753Y-15660174D01*
X15398753Y-15660174D02*
X15379706Y-15669698D01*
X15379706Y-15669698D02*
X15370182Y-15679222D01*
X15370182Y-15679222D02*
X15360658Y-15698269D01*
X15551134Y-15583984D02*
X15551134Y-15622079D01*
X15627325Y-15583984D02*
X15627325Y-15622079D01*
X15922563Y-15860174D02*
X15913039Y-15850650D01*
X15913039Y-15850650D02*
X15893991Y-15822079D01*
X15893991Y-15822079D02*
X15884468Y-15803031D01*
X15884468Y-15803031D02*
X15874944Y-15774460D01*
X15874944Y-15774460D02*
X15865420Y-15726841D01*
X15865420Y-15726841D02*
X15865420Y-15688746D01*
X15865420Y-15688746D02*
X15874944Y-15641127D01*
X15874944Y-15641127D02*
X15884468Y-15612555D01*
X15884468Y-15612555D02*
X15893991Y-15593508D01*
X15893991Y-15593508D02*
X15913039Y-15564936D01*
X15913039Y-15564936D02*
X15922563Y-15555412D01*
X15989229Y-15603031D02*
X15998753Y-15593508D01*
X15998753Y-15593508D02*
X16017801Y-15583984D01*
X16017801Y-15583984D02*
X16065420Y-15583984D01*
X16065420Y-15583984D02*
X16084468Y-15593508D01*
X16084468Y-15593508D02*
X16093991Y-15603031D01*
X16093991Y-15603031D02*
X16103515Y-15622079D01*
X16103515Y-15622079D02*
X16103515Y-15641127D01*
X16103515Y-15641127D02*
X16093991Y-15669698D01*
X16093991Y-15669698D02*
X15979706Y-15783984D01*
X15979706Y-15783984D02*
X16103515Y-15783984D01*
X16170182Y-15583984D02*
X16303515Y-15583984D01*
X16303515Y-15583984D02*
X16217801Y-15783984D01*
X16532087Y-15783984D02*
X16532087Y-15583984D01*
X16617801Y-15783984D02*
X16617801Y-15679222D01*
X16617801Y-15679222D02*
X16608277Y-15660174D01*
X16608277Y-15660174D02*
X16589230Y-15650650D01*
X16589230Y-15650650D02*
X16560658Y-15650650D01*
X16560658Y-15650650D02*
X16541610Y-15660174D01*
X16541610Y-15660174D02*
X16532087Y-15669698D01*
X16741610Y-15783984D02*
X16722563Y-15774460D01*
X16722563Y-15774460D02*
X16713039Y-15764936D01*
X16713039Y-15764936D02*
X16703515Y-15745888D01*
X16703515Y-15745888D02*
X16703515Y-15688746D01*
X16703515Y-15688746D02*
X16713039Y-15669698D01*
X16713039Y-15669698D02*
X16722563Y-15660174D01*
X16722563Y-15660174D02*
X16741610Y-15650650D01*
X16741610Y-15650650D02*
X16770182Y-15650650D01*
X16770182Y-15650650D02*
X16789230Y-15660174D01*
X16789230Y-15660174D02*
X16798753Y-15669698D01*
X16798753Y-15669698D02*
X16808277Y-15688746D01*
X16808277Y-15688746D02*
X16808277Y-15745888D01*
X16808277Y-15745888D02*
X16798753Y-15764936D01*
X16798753Y-15764936D02*
X16789230Y-15774460D01*
X16789230Y-15774460D02*
X16770182Y-15783984D01*
X16770182Y-15783984D02*
X16741610Y-15783984D01*
X16922563Y-15783984D02*
X16903515Y-15774460D01*
X16903515Y-15774460D02*
X16893992Y-15755412D01*
X16893992Y-15755412D02*
X16893992Y-15583984D01*
X17074944Y-15774460D02*
X17055896Y-15783984D01*
X17055896Y-15783984D02*
X17017801Y-15783984D01*
X17017801Y-15783984D02*
X16998753Y-15774460D01*
X16998753Y-15774460D02*
X16989230Y-15755412D01*
X16989230Y-15755412D02*
X16989230Y-15679222D01*
X16989230Y-15679222D02*
X16998753Y-15660174D01*
X16998753Y-15660174D02*
X17017801Y-15650650D01*
X17017801Y-15650650D02*
X17055896Y-15650650D01*
X17055896Y-15650650D02*
X17074944Y-15660174D01*
X17074944Y-15660174D02*
X17084468Y-15679222D01*
X17084468Y-15679222D02*
X17084468Y-15698269D01*
X17084468Y-15698269D02*
X16989230Y-15717317D01*
X17160658Y-15774460D02*
X17179706Y-15783984D01*
X17179706Y-15783984D02*
X17217801Y-15783984D01*
X17217801Y-15783984D02*
X17236849Y-15774460D01*
X17236849Y-15774460D02*
X17246373Y-15755412D01*
X17246373Y-15755412D02*
X17246373Y-15745888D01*
X17246373Y-15745888D02*
X17236849Y-15726841D01*
X17236849Y-15726841D02*
X17217801Y-15717317D01*
X17217801Y-15717317D02*
X17189230Y-15717317D01*
X17189230Y-15717317D02*
X17170182Y-15707793D01*
X17170182Y-15707793D02*
X17160658Y-15688746D01*
X17160658Y-15688746D02*
X17160658Y-15679222D01*
X17160658Y-15679222D02*
X17170182Y-15660174D01*
X17170182Y-15660174D02*
X17189230Y-15650650D01*
X17189230Y-15650650D02*
X17217801Y-15650650D01*
X17217801Y-15650650D02*
X17236849Y-15660174D01*
X17313039Y-15860174D02*
X17322563Y-15850650D01*
X17322563Y-15850650D02*
X17341611Y-15822079D01*
X17341611Y-15822079D02*
X17351134Y-15803031D01*
X17351134Y-15803031D02*
X17360658Y-15774460D01*
X17360658Y-15774460D02*
X17370182Y-15726841D01*
X17370182Y-15726841D02*
X17370182Y-15688746D01*
X17370182Y-15688746D02*
X17360658Y-15641127D01*
X17360658Y-15641127D02*
X17351134Y-15612555D01*
X17351134Y-15612555D02*
X17341611Y-15593508D01*
X17341611Y-15593508D02*
X17322563Y-15564936D01*
X17322563Y-15564936D02*
X17313039Y-15555412D01*
D12*
X12347500Y-15956500D02*
G75*
G02*
X12277500Y-15956500I-35000J0D01*
G01*
X12277500Y-15956500D02*
G75*
G02*
X12347500Y-15956500I35000J0D01*
G01*
D11*
X12646372Y-15847984D02*
X12665420Y-15847984D01*
X12665420Y-15847984D02*
X12684467Y-15857508D01*
X12684467Y-15857508D02*
X12693991Y-15867031D01*
X12693991Y-15867031D02*
X12703515Y-15886079D01*
X12703515Y-15886079D02*
X12713039Y-15924174D01*
X12713039Y-15924174D02*
X12713039Y-15971793D01*
X12713039Y-15971793D02*
X12703515Y-16009888D01*
X12703515Y-16009888D02*
X12693991Y-16028936D01*
X12693991Y-16028936D02*
X12684467Y-16038460D01*
X12684467Y-16038460D02*
X12665420Y-16047984D01*
X12665420Y-16047984D02*
X12646372Y-16047984D01*
X12646372Y-16047984D02*
X12627324Y-16038460D01*
X12627324Y-16038460D02*
X12617801Y-16028936D01*
X12617801Y-16028936D02*
X12608277Y-16009888D01*
X12608277Y-16009888D02*
X12598753Y-15971793D01*
X12598753Y-15971793D02*
X12598753Y-15924174D01*
X12598753Y-15924174D02*
X12608277Y-15886079D01*
X12608277Y-15886079D02*
X12617801Y-15867031D01*
X12617801Y-15867031D02*
X12627324Y-15857508D01*
X12627324Y-15857508D02*
X12646372Y-15847984D01*
X12798753Y-16028936D02*
X12808277Y-16038460D01*
X12808277Y-16038460D02*
X12798753Y-16047984D01*
X12798753Y-16047984D02*
X12789229Y-16038460D01*
X12789229Y-16038460D02*
X12798753Y-16028936D01*
X12798753Y-16028936D02*
X12798753Y-16047984D01*
X12874943Y-15847984D02*
X13008277Y-15847984D01*
X13008277Y-15847984D02*
X12922562Y-16047984D01*
X13122562Y-15847984D02*
X13141610Y-15847984D01*
X13141610Y-15847984D02*
X13160658Y-15857508D01*
X13160658Y-15857508D02*
X13170182Y-15867031D01*
X13170182Y-15867031D02*
X13179705Y-15886079D01*
X13179705Y-15886079D02*
X13189229Y-15924174D01*
X13189229Y-15924174D02*
X13189229Y-15971793D01*
X13189229Y-15971793D02*
X13179705Y-16009888D01*
X13179705Y-16009888D02*
X13170182Y-16028936D01*
X13170182Y-16028936D02*
X13160658Y-16038460D01*
X13160658Y-16038460D02*
X13141610Y-16047984D01*
X13141610Y-16047984D02*
X13122562Y-16047984D01*
X13122562Y-16047984D02*
X13103515Y-16038460D01*
X13103515Y-16038460D02*
X13093991Y-16028936D01*
X13093991Y-16028936D02*
X13084467Y-16009888D01*
X13084467Y-16009888D02*
X13074943Y-15971793D01*
X13074943Y-15971793D02*
X13074943Y-15924174D01*
X13074943Y-15924174D02*
X13084467Y-15886079D01*
X13084467Y-15886079D02*
X13093991Y-15867031D01*
X13093991Y-15867031D02*
X13103515Y-15857508D01*
X13103515Y-15857508D02*
X13122562Y-15847984D01*
X13313039Y-15847984D02*
X13332086Y-15847984D01*
X13332086Y-15847984D02*
X13351134Y-15857508D01*
X13351134Y-15857508D02*
X13360658Y-15867031D01*
X13360658Y-15867031D02*
X13370182Y-15886079D01*
X13370182Y-15886079D02*
X13379705Y-15924174D01*
X13379705Y-15924174D02*
X13379705Y-15971793D01*
X13379705Y-15971793D02*
X13370182Y-16009888D01*
X13370182Y-16009888D02*
X13360658Y-16028936D01*
X13360658Y-16028936D02*
X13351134Y-16038460D01*
X13351134Y-16038460D02*
X13332086Y-16047984D01*
X13332086Y-16047984D02*
X13313039Y-16047984D01*
X13313039Y-16047984D02*
X13293991Y-16038460D01*
X13293991Y-16038460D02*
X13284467Y-16028936D01*
X13284467Y-16028936D02*
X13274943Y-16009888D01*
X13274943Y-16009888D02*
X13265420Y-15971793D01*
X13265420Y-15971793D02*
X13265420Y-15924174D01*
X13265420Y-15924174D02*
X13274943Y-15886079D01*
X13274943Y-15886079D02*
X13284467Y-15867031D01*
X13284467Y-15867031D02*
X13293991Y-15857508D01*
X13293991Y-15857508D02*
X13313039Y-15847984D01*
X13465420Y-16047984D02*
X13465420Y-15914650D01*
X13465420Y-15933698D02*
X13474943Y-15924174D01*
X13474943Y-15924174D02*
X13493991Y-15914650D01*
X13493991Y-15914650D02*
X13522563Y-15914650D01*
X13522563Y-15914650D02*
X13541610Y-15924174D01*
X13541610Y-15924174D02*
X13551134Y-15943222D01*
X13551134Y-15943222D02*
X13551134Y-16047984D01*
X13551134Y-15943222D02*
X13560658Y-15924174D01*
X13560658Y-15924174D02*
X13579705Y-15914650D01*
X13579705Y-15914650D02*
X13608277Y-15914650D01*
X13608277Y-15914650D02*
X13627324Y-15924174D01*
X13627324Y-15924174D02*
X13636848Y-15943222D01*
X13636848Y-15943222D02*
X13636848Y-16047984D01*
X13732086Y-16047984D02*
X13732086Y-15914650D01*
X13732086Y-15933698D02*
X13741610Y-15924174D01*
X13741610Y-15924174D02*
X13760658Y-15914650D01*
X13760658Y-15914650D02*
X13789229Y-15914650D01*
X13789229Y-15914650D02*
X13808277Y-15924174D01*
X13808277Y-15924174D02*
X13817801Y-15943222D01*
X13817801Y-15943222D02*
X13817801Y-16047984D01*
X13817801Y-15943222D02*
X13827324Y-15924174D01*
X13827324Y-15924174D02*
X13846372Y-15914650D01*
X13846372Y-15914650D02*
X13874943Y-15914650D01*
X13874943Y-15914650D02*
X13893991Y-15924174D01*
X13893991Y-15924174D02*
X13903515Y-15943222D01*
X13903515Y-15943222D02*
X13903515Y-16047984D01*
X14293991Y-15838460D02*
X14122563Y-16095603D01*
X14551134Y-15847984D02*
X14570182Y-15847984D01*
X14570182Y-15847984D02*
X14589229Y-15857508D01*
X14589229Y-15857508D02*
X14598753Y-15867031D01*
X14598753Y-15867031D02*
X14608277Y-15886079D01*
X14608277Y-15886079D02*
X14617801Y-15924174D01*
X14617801Y-15924174D02*
X14617801Y-15971793D01*
X14617801Y-15971793D02*
X14608277Y-16009888D01*
X14608277Y-16009888D02*
X14598753Y-16028936D01*
X14598753Y-16028936D02*
X14589229Y-16038460D01*
X14589229Y-16038460D02*
X14570182Y-16047984D01*
X14570182Y-16047984D02*
X14551134Y-16047984D01*
X14551134Y-16047984D02*
X14532086Y-16038460D01*
X14532086Y-16038460D02*
X14522563Y-16028936D01*
X14522563Y-16028936D02*
X14513039Y-16009888D01*
X14513039Y-16009888D02*
X14503515Y-15971793D01*
X14503515Y-15971793D02*
X14503515Y-15924174D01*
X14503515Y-15924174D02*
X14513039Y-15886079D01*
X14513039Y-15886079D02*
X14522563Y-15867031D01*
X14522563Y-15867031D02*
X14532086Y-15857508D01*
X14532086Y-15857508D02*
X14551134Y-15847984D01*
X14703515Y-16028936D02*
X14713039Y-16038460D01*
X14713039Y-16038460D02*
X14703515Y-16047984D01*
X14703515Y-16047984D02*
X14693991Y-16038460D01*
X14693991Y-16038460D02*
X14703515Y-16028936D01*
X14703515Y-16028936D02*
X14703515Y-16047984D01*
X14836848Y-15847984D02*
X14855896Y-15847984D01*
X14855896Y-15847984D02*
X14874944Y-15857508D01*
X14874944Y-15857508D02*
X14884467Y-15867031D01*
X14884467Y-15867031D02*
X14893991Y-15886079D01*
X14893991Y-15886079D02*
X14903515Y-15924174D01*
X14903515Y-15924174D02*
X14903515Y-15971793D01*
X14903515Y-15971793D02*
X14893991Y-16009888D01*
X14893991Y-16009888D02*
X14884467Y-16028936D01*
X14884467Y-16028936D02*
X14874944Y-16038460D01*
X14874944Y-16038460D02*
X14855896Y-16047984D01*
X14855896Y-16047984D02*
X14836848Y-16047984D01*
X14836848Y-16047984D02*
X14817801Y-16038460D01*
X14817801Y-16038460D02*
X14808277Y-16028936D01*
X14808277Y-16028936D02*
X14798753Y-16009888D01*
X14798753Y-16009888D02*
X14789229Y-15971793D01*
X14789229Y-15971793D02*
X14789229Y-15924174D01*
X14789229Y-15924174D02*
X14798753Y-15886079D01*
X14798753Y-15886079D02*
X14808277Y-15867031D01*
X14808277Y-15867031D02*
X14817801Y-15857508D01*
X14817801Y-15857508D02*
X14836848Y-15847984D01*
X14979706Y-15867031D02*
X14989229Y-15857508D01*
X14989229Y-15857508D02*
X15008277Y-15847984D01*
X15008277Y-15847984D02*
X15055896Y-15847984D01*
X15055896Y-15847984D02*
X15074944Y-15857508D01*
X15074944Y-15857508D02*
X15084467Y-15867031D01*
X15084467Y-15867031D02*
X15093991Y-15886079D01*
X15093991Y-15886079D02*
X15093991Y-15905127D01*
X15093991Y-15905127D02*
X15084467Y-15933698D01*
X15084467Y-15933698D02*
X14970182Y-16047984D01*
X14970182Y-16047984D02*
X15093991Y-16047984D01*
X15160658Y-15847984D02*
X15293991Y-15847984D01*
X15293991Y-15847984D02*
X15208277Y-16047984D01*
X15455896Y-15847984D02*
X15417801Y-15847984D01*
X15417801Y-15847984D02*
X15398753Y-15857508D01*
X15398753Y-15857508D02*
X15389229Y-15867031D01*
X15389229Y-15867031D02*
X15370182Y-15895603D01*
X15370182Y-15895603D02*
X15360658Y-15933698D01*
X15360658Y-15933698D02*
X15360658Y-16009888D01*
X15360658Y-16009888D02*
X15370182Y-16028936D01*
X15370182Y-16028936D02*
X15379706Y-16038460D01*
X15379706Y-16038460D02*
X15398753Y-16047984D01*
X15398753Y-16047984D02*
X15436848Y-16047984D01*
X15436848Y-16047984D02*
X15455896Y-16038460D01*
X15455896Y-16038460D02*
X15465420Y-16028936D01*
X15465420Y-16028936D02*
X15474944Y-16009888D01*
X15474944Y-16009888D02*
X15474944Y-15962269D01*
X15474944Y-15962269D02*
X15465420Y-15943222D01*
X15465420Y-15943222D02*
X15455896Y-15933698D01*
X15455896Y-15933698D02*
X15436848Y-15924174D01*
X15436848Y-15924174D02*
X15398753Y-15924174D01*
X15398753Y-15924174D02*
X15379706Y-15933698D01*
X15379706Y-15933698D02*
X15370182Y-15943222D01*
X15370182Y-15943222D02*
X15360658Y-15962269D01*
X15551134Y-15847984D02*
X15551134Y-15886079D01*
X15627325Y-15847984D02*
X15627325Y-15886079D01*
X15922563Y-16124174D02*
X15913039Y-16114650D01*
X15913039Y-16114650D02*
X15893991Y-16086079D01*
X15893991Y-16086079D02*
X15884468Y-16067031D01*
X15884468Y-16067031D02*
X15874944Y-16038460D01*
X15874944Y-16038460D02*
X15865420Y-15990841D01*
X15865420Y-15990841D02*
X15865420Y-15952746D01*
X15865420Y-15952746D02*
X15874944Y-15905127D01*
X15874944Y-15905127D02*
X15884468Y-15876555D01*
X15884468Y-15876555D02*
X15893991Y-15857508D01*
X15893991Y-15857508D02*
X15913039Y-15828936D01*
X15913039Y-15828936D02*
X15922563Y-15819412D01*
X16103515Y-16047984D02*
X15989229Y-16047984D01*
X16046372Y-16047984D02*
X16046372Y-15847984D01*
X16046372Y-15847984D02*
X16027325Y-15876555D01*
X16027325Y-15876555D02*
X16008277Y-15895603D01*
X16008277Y-15895603D02*
X15989229Y-15905127D01*
X16217801Y-15933698D02*
X16198753Y-15924174D01*
X16198753Y-15924174D02*
X16189229Y-15914650D01*
X16189229Y-15914650D02*
X16179706Y-15895603D01*
X16179706Y-15895603D02*
X16179706Y-15886079D01*
X16179706Y-15886079D02*
X16189229Y-15867031D01*
X16189229Y-15867031D02*
X16198753Y-15857508D01*
X16198753Y-15857508D02*
X16217801Y-15847984D01*
X16217801Y-15847984D02*
X16255896Y-15847984D01*
X16255896Y-15847984D02*
X16274944Y-15857508D01*
X16274944Y-15857508D02*
X16284468Y-15867031D01*
X16284468Y-15867031D02*
X16293991Y-15886079D01*
X16293991Y-15886079D02*
X16293991Y-15895603D01*
X16293991Y-15895603D02*
X16284468Y-15914650D01*
X16284468Y-15914650D02*
X16274944Y-15924174D01*
X16274944Y-15924174D02*
X16255896Y-15933698D01*
X16255896Y-15933698D02*
X16217801Y-15933698D01*
X16217801Y-15933698D02*
X16198753Y-15943222D01*
X16198753Y-15943222D02*
X16189229Y-15952746D01*
X16189229Y-15952746D02*
X16179706Y-15971793D01*
X16179706Y-15971793D02*
X16179706Y-16009888D01*
X16179706Y-16009888D02*
X16189229Y-16028936D01*
X16189229Y-16028936D02*
X16198753Y-16038460D01*
X16198753Y-16038460D02*
X16217801Y-16047984D01*
X16217801Y-16047984D02*
X16255896Y-16047984D01*
X16255896Y-16047984D02*
X16274944Y-16038460D01*
X16274944Y-16038460D02*
X16284468Y-16028936D01*
X16284468Y-16028936D02*
X16293991Y-16009888D01*
X16293991Y-16009888D02*
X16293991Y-15971793D01*
X16293991Y-15971793D02*
X16284468Y-15952746D01*
X16284468Y-15952746D02*
X16274944Y-15943222D01*
X16274944Y-15943222D02*
X16255896Y-15933698D01*
X16532087Y-16047984D02*
X16532087Y-15847984D01*
X16617801Y-16047984D02*
X16617801Y-15943222D01*
X16617801Y-15943222D02*
X16608277Y-15924174D01*
X16608277Y-15924174D02*
X16589230Y-15914650D01*
X16589230Y-15914650D02*
X16560658Y-15914650D01*
X16560658Y-15914650D02*
X16541610Y-15924174D01*
X16541610Y-15924174D02*
X16532087Y-15933698D01*
X16741610Y-16047984D02*
X16722563Y-16038460D01*
X16722563Y-16038460D02*
X16713039Y-16028936D01*
X16713039Y-16028936D02*
X16703515Y-16009888D01*
X16703515Y-16009888D02*
X16703515Y-15952746D01*
X16703515Y-15952746D02*
X16713039Y-15933698D01*
X16713039Y-15933698D02*
X16722563Y-15924174D01*
X16722563Y-15924174D02*
X16741610Y-15914650D01*
X16741610Y-15914650D02*
X16770182Y-15914650D01*
X16770182Y-15914650D02*
X16789230Y-15924174D01*
X16789230Y-15924174D02*
X16798753Y-15933698D01*
X16798753Y-15933698D02*
X16808277Y-15952746D01*
X16808277Y-15952746D02*
X16808277Y-16009888D01*
X16808277Y-16009888D02*
X16798753Y-16028936D01*
X16798753Y-16028936D02*
X16789230Y-16038460D01*
X16789230Y-16038460D02*
X16770182Y-16047984D01*
X16770182Y-16047984D02*
X16741610Y-16047984D01*
X16922563Y-16047984D02*
X16903515Y-16038460D01*
X16903515Y-16038460D02*
X16893992Y-16019412D01*
X16893992Y-16019412D02*
X16893992Y-15847984D01*
X17074944Y-16038460D02*
X17055896Y-16047984D01*
X17055896Y-16047984D02*
X17017801Y-16047984D01*
X17017801Y-16047984D02*
X16998753Y-16038460D01*
X16998753Y-16038460D02*
X16989230Y-16019412D01*
X16989230Y-16019412D02*
X16989230Y-15943222D01*
X16989230Y-15943222D02*
X16998753Y-15924174D01*
X16998753Y-15924174D02*
X17017801Y-15914650D01*
X17017801Y-15914650D02*
X17055896Y-15914650D01*
X17055896Y-15914650D02*
X17074944Y-15924174D01*
X17074944Y-15924174D02*
X17084468Y-15943222D01*
X17084468Y-15943222D02*
X17084468Y-15962269D01*
X17084468Y-15962269D02*
X16989230Y-15981317D01*
X17160658Y-16038460D02*
X17179706Y-16047984D01*
X17179706Y-16047984D02*
X17217801Y-16047984D01*
X17217801Y-16047984D02*
X17236849Y-16038460D01*
X17236849Y-16038460D02*
X17246373Y-16019412D01*
X17246373Y-16019412D02*
X17246373Y-16009888D01*
X17246373Y-16009888D02*
X17236849Y-15990841D01*
X17236849Y-15990841D02*
X17217801Y-15981317D01*
X17217801Y-15981317D02*
X17189230Y-15981317D01*
X17189230Y-15981317D02*
X17170182Y-15971793D01*
X17170182Y-15971793D02*
X17160658Y-15952746D01*
X17160658Y-15952746D02*
X17160658Y-15943222D01*
X17160658Y-15943222D02*
X17170182Y-15924174D01*
X17170182Y-15924174D02*
X17189230Y-15914650D01*
X17189230Y-15914650D02*
X17217801Y-15914650D01*
X17217801Y-15914650D02*
X17236849Y-15924174D01*
X17313039Y-16124174D02*
X17322563Y-16114650D01*
X17322563Y-16114650D02*
X17341611Y-16086079D01*
X17341611Y-16086079D02*
X17351134Y-16067031D01*
X17351134Y-16067031D02*
X17360658Y-16038460D01*
X17360658Y-16038460D02*
X17370182Y-15990841D01*
X17370182Y-15990841D02*
X17370182Y-15952746D01*
X17370182Y-15952746D02*
X17360658Y-15905127D01*
X17360658Y-15905127D02*
X17351134Y-15876555D01*
X17351134Y-15876555D02*
X17341611Y-15857508D01*
X17341611Y-15857508D02*
X17322563Y-15828936D01*
X17322563Y-15828936D02*
X17313039Y-15819412D01*
D12*
X12309400Y-16182400D02*
X12309400Y-16258600D01*
X12271300Y-16220500D02*
X12347500Y-16220500D01*
D11*
X12646372Y-16111984D02*
X12665420Y-16111984D01*
X12665420Y-16111984D02*
X12684467Y-16121508D01*
X12684467Y-16121508D02*
X12693991Y-16131031D01*
X12693991Y-16131031D02*
X12703515Y-16150079D01*
X12703515Y-16150079D02*
X12713039Y-16188174D01*
X12713039Y-16188174D02*
X12713039Y-16235793D01*
X12713039Y-16235793D02*
X12703515Y-16273888D01*
X12703515Y-16273888D02*
X12693991Y-16292936D01*
X12693991Y-16292936D02*
X12684467Y-16302460D01*
X12684467Y-16302460D02*
X12665420Y-16311984D01*
X12665420Y-16311984D02*
X12646372Y-16311984D01*
X12646372Y-16311984D02*
X12627324Y-16302460D01*
X12627324Y-16302460D02*
X12617801Y-16292936D01*
X12617801Y-16292936D02*
X12608277Y-16273888D01*
X12608277Y-16273888D02*
X12598753Y-16235793D01*
X12598753Y-16235793D02*
X12598753Y-16188174D01*
X12598753Y-16188174D02*
X12608277Y-16150079D01*
X12608277Y-16150079D02*
X12617801Y-16131031D01*
X12617801Y-16131031D02*
X12627324Y-16121508D01*
X12627324Y-16121508D02*
X12646372Y-16111984D01*
X12798753Y-16292936D02*
X12808277Y-16302460D01*
X12808277Y-16302460D02*
X12798753Y-16311984D01*
X12798753Y-16311984D02*
X12789229Y-16302460D01*
X12789229Y-16302460D02*
X12798753Y-16292936D01*
X12798753Y-16292936D02*
X12798753Y-16311984D01*
X12874943Y-16111984D02*
X13008277Y-16111984D01*
X13008277Y-16111984D02*
X12922562Y-16311984D01*
X13170182Y-16111984D02*
X13132086Y-16111984D01*
X13132086Y-16111984D02*
X13113039Y-16121508D01*
X13113039Y-16121508D02*
X13103515Y-16131031D01*
X13103515Y-16131031D02*
X13084467Y-16159603D01*
X13084467Y-16159603D02*
X13074943Y-16197698D01*
X13074943Y-16197698D02*
X13074943Y-16273888D01*
X13074943Y-16273888D02*
X13084467Y-16292936D01*
X13084467Y-16292936D02*
X13093991Y-16302460D01*
X13093991Y-16302460D02*
X13113039Y-16311984D01*
X13113039Y-16311984D02*
X13151134Y-16311984D01*
X13151134Y-16311984D02*
X13170182Y-16302460D01*
X13170182Y-16302460D02*
X13179705Y-16292936D01*
X13179705Y-16292936D02*
X13189229Y-16273888D01*
X13189229Y-16273888D02*
X13189229Y-16226269D01*
X13189229Y-16226269D02*
X13179705Y-16207222D01*
X13179705Y-16207222D02*
X13170182Y-16197698D01*
X13170182Y-16197698D02*
X13151134Y-16188174D01*
X13151134Y-16188174D02*
X13113039Y-16188174D01*
X13113039Y-16188174D02*
X13093991Y-16197698D01*
X13093991Y-16197698D02*
X13084467Y-16207222D01*
X13084467Y-16207222D02*
X13074943Y-16226269D01*
X13265420Y-16131031D02*
X13274943Y-16121508D01*
X13274943Y-16121508D02*
X13293991Y-16111984D01*
X13293991Y-16111984D02*
X13341610Y-16111984D01*
X13341610Y-16111984D02*
X13360658Y-16121508D01*
X13360658Y-16121508D02*
X13370182Y-16131031D01*
X13370182Y-16131031D02*
X13379705Y-16150079D01*
X13379705Y-16150079D02*
X13379705Y-16169127D01*
X13379705Y-16169127D02*
X13370182Y-16197698D01*
X13370182Y-16197698D02*
X13255896Y-16311984D01*
X13255896Y-16311984D02*
X13379705Y-16311984D01*
X13465420Y-16311984D02*
X13465420Y-16178650D01*
X13465420Y-16197698D02*
X13474943Y-16188174D01*
X13474943Y-16188174D02*
X13493991Y-16178650D01*
X13493991Y-16178650D02*
X13522563Y-16178650D01*
X13522563Y-16178650D02*
X13541610Y-16188174D01*
X13541610Y-16188174D02*
X13551134Y-16207222D01*
X13551134Y-16207222D02*
X13551134Y-16311984D01*
X13551134Y-16207222D02*
X13560658Y-16188174D01*
X13560658Y-16188174D02*
X13579705Y-16178650D01*
X13579705Y-16178650D02*
X13608277Y-16178650D01*
X13608277Y-16178650D02*
X13627324Y-16188174D01*
X13627324Y-16188174D02*
X13636848Y-16207222D01*
X13636848Y-16207222D02*
X13636848Y-16311984D01*
X13732086Y-16311984D02*
X13732086Y-16178650D01*
X13732086Y-16197698D02*
X13741610Y-16188174D01*
X13741610Y-16188174D02*
X13760658Y-16178650D01*
X13760658Y-16178650D02*
X13789229Y-16178650D01*
X13789229Y-16178650D02*
X13808277Y-16188174D01*
X13808277Y-16188174D02*
X13817801Y-16207222D01*
X13817801Y-16207222D02*
X13817801Y-16311984D01*
X13817801Y-16207222D02*
X13827324Y-16188174D01*
X13827324Y-16188174D02*
X13846372Y-16178650D01*
X13846372Y-16178650D02*
X13874943Y-16178650D01*
X13874943Y-16178650D02*
X13893991Y-16188174D01*
X13893991Y-16188174D02*
X13903515Y-16207222D01*
X13903515Y-16207222D02*
X13903515Y-16311984D01*
X14293991Y-16102460D02*
X14122563Y-16359603D01*
X14551134Y-16111984D02*
X14570182Y-16111984D01*
X14570182Y-16111984D02*
X14589229Y-16121508D01*
X14589229Y-16121508D02*
X14598753Y-16131031D01*
X14598753Y-16131031D02*
X14608277Y-16150079D01*
X14608277Y-16150079D02*
X14617801Y-16188174D01*
X14617801Y-16188174D02*
X14617801Y-16235793D01*
X14617801Y-16235793D02*
X14608277Y-16273888D01*
X14608277Y-16273888D02*
X14598753Y-16292936D01*
X14598753Y-16292936D02*
X14589229Y-16302460D01*
X14589229Y-16302460D02*
X14570182Y-16311984D01*
X14570182Y-16311984D02*
X14551134Y-16311984D01*
X14551134Y-16311984D02*
X14532086Y-16302460D01*
X14532086Y-16302460D02*
X14522563Y-16292936D01*
X14522563Y-16292936D02*
X14513039Y-16273888D01*
X14513039Y-16273888D02*
X14503515Y-16235793D01*
X14503515Y-16235793D02*
X14503515Y-16188174D01*
X14503515Y-16188174D02*
X14513039Y-16150079D01*
X14513039Y-16150079D02*
X14522563Y-16131031D01*
X14522563Y-16131031D02*
X14532086Y-16121508D01*
X14532086Y-16121508D02*
X14551134Y-16111984D01*
X14703515Y-16292936D02*
X14713039Y-16302460D01*
X14713039Y-16302460D02*
X14703515Y-16311984D01*
X14703515Y-16311984D02*
X14693991Y-16302460D01*
X14693991Y-16302460D02*
X14703515Y-16292936D01*
X14703515Y-16292936D02*
X14703515Y-16311984D01*
X14836848Y-16111984D02*
X14855896Y-16111984D01*
X14855896Y-16111984D02*
X14874944Y-16121508D01*
X14874944Y-16121508D02*
X14884467Y-16131031D01*
X14884467Y-16131031D02*
X14893991Y-16150079D01*
X14893991Y-16150079D02*
X14903515Y-16188174D01*
X14903515Y-16188174D02*
X14903515Y-16235793D01*
X14903515Y-16235793D02*
X14893991Y-16273888D01*
X14893991Y-16273888D02*
X14884467Y-16292936D01*
X14884467Y-16292936D02*
X14874944Y-16302460D01*
X14874944Y-16302460D02*
X14855896Y-16311984D01*
X14855896Y-16311984D02*
X14836848Y-16311984D01*
X14836848Y-16311984D02*
X14817801Y-16302460D01*
X14817801Y-16302460D02*
X14808277Y-16292936D01*
X14808277Y-16292936D02*
X14798753Y-16273888D01*
X14798753Y-16273888D02*
X14789229Y-16235793D01*
X14789229Y-16235793D02*
X14789229Y-16188174D01*
X14789229Y-16188174D02*
X14798753Y-16150079D01*
X14798753Y-16150079D02*
X14808277Y-16131031D01*
X14808277Y-16131031D02*
X14817801Y-16121508D01*
X14817801Y-16121508D02*
X14836848Y-16111984D01*
X14970182Y-16111984D02*
X15093991Y-16111984D01*
X15093991Y-16111984D02*
X15027325Y-16188174D01*
X15027325Y-16188174D02*
X15055896Y-16188174D01*
X15055896Y-16188174D02*
X15074944Y-16197698D01*
X15074944Y-16197698D02*
X15084467Y-16207222D01*
X15084467Y-16207222D02*
X15093991Y-16226269D01*
X15093991Y-16226269D02*
X15093991Y-16273888D01*
X15093991Y-16273888D02*
X15084467Y-16292936D01*
X15084467Y-16292936D02*
X15074944Y-16302460D01*
X15074944Y-16302460D02*
X15055896Y-16311984D01*
X15055896Y-16311984D02*
X14998753Y-16311984D01*
X14998753Y-16311984D02*
X14979706Y-16302460D01*
X14979706Y-16302460D02*
X14970182Y-16292936D01*
X15217801Y-16111984D02*
X15236848Y-16111984D01*
X15236848Y-16111984D02*
X15255896Y-16121508D01*
X15255896Y-16121508D02*
X15265420Y-16131031D01*
X15265420Y-16131031D02*
X15274944Y-16150079D01*
X15274944Y-16150079D02*
X15284467Y-16188174D01*
X15284467Y-16188174D02*
X15284467Y-16235793D01*
X15284467Y-16235793D02*
X15274944Y-16273888D01*
X15274944Y-16273888D02*
X15265420Y-16292936D01*
X15265420Y-16292936D02*
X15255896Y-16302460D01*
X15255896Y-16302460D02*
X15236848Y-16311984D01*
X15236848Y-16311984D02*
X15217801Y-16311984D01*
X15217801Y-16311984D02*
X15198753Y-16302460D01*
X15198753Y-16302460D02*
X15189229Y-16292936D01*
X15189229Y-16292936D02*
X15179706Y-16273888D01*
X15179706Y-16273888D02*
X15170182Y-16235793D01*
X15170182Y-16235793D02*
X15170182Y-16188174D01*
X15170182Y-16188174D02*
X15179706Y-16150079D01*
X15179706Y-16150079D02*
X15189229Y-16131031D01*
X15189229Y-16131031D02*
X15198753Y-16121508D01*
X15198753Y-16121508D02*
X15217801Y-16111984D01*
X15408277Y-16111984D02*
X15427325Y-16111984D01*
X15427325Y-16111984D02*
X15446372Y-16121508D01*
X15446372Y-16121508D02*
X15455896Y-16131031D01*
X15455896Y-16131031D02*
X15465420Y-16150079D01*
X15465420Y-16150079D02*
X15474944Y-16188174D01*
X15474944Y-16188174D02*
X15474944Y-16235793D01*
X15474944Y-16235793D02*
X15465420Y-16273888D01*
X15465420Y-16273888D02*
X15455896Y-16292936D01*
X15455896Y-16292936D02*
X15446372Y-16302460D01*
X15446372Y-16302460D02*
X15427325Y-16311984D01*
X15427325Y-16311984D02*
X15408277Y-16311984D01*
X15408277Y-16311984D02*
X15389229Y-16302460D01*
X15389229Y-16302460D02*
X15379706Y-16292936D01*
X15379706Y-16292936D02*
X15370182Y-16273888D01*
X15370182Y-16273888D02*
X15360658Y-16235793D01*
X15360658Y-16235793D02*
X15360658Y-16188174D01*
X15360658Y-16188174D02*
X15370182Y-16150079D01*
X15370182Y-16150079D02*
X15379706Y-16131031D01*
X15379706Y-16131031D02*
X15389229Y-16121508D01*
X15389229Y-16121508D02*
X15408277Y-16111984D01*
X15551134Y-16111984D02*
X15551134Y-16150079D01*
X15627325Y-16111984D02*
X15627325Y-16150079D01*
X15922563Y-16388174D02*
X15913039Y-16378650D01*
X15913039Y-16378650D02*
X15893991Y-16350079D01*
X15893991Y-16350079D02*
X15884468Y-16331031D01*
X15884468Y-16331031D02*
X15874944Y-16302460D01*
X15874944Y-16302460D02*
X15865420Y-16254841D01*
X15865420Y-16254841D02*
X15865420Y-16216746D01*
X15865420Y-16216746D02*
X15874944Y-16169127D01*
X15874944Y-16169127D02*
X15884468Y-16140555D01*
X15884468Y-16140555D02*
X15893991Y-16121508D01*
X15893991Y-16121508D02*
X15913039Y-16092936D01*
X15913039Y-16092936D02*
X15922563Y-16083412D01*
X15989229Y-16131031D02*
X15998753Y-16121508D01*
X15998753Y-16121508D02*
X16017801Y-16111984D01*
X16017801Y-16111984D02*
X16065420Y-16111984D01*
X16065420Y-16111984D02*
X16084468Y-16121508D01*
X16084468Y-16121508D02*
X16093991Y-16131031D01*
X16093991Y-16131031D02*
X16103515Y-16150079D01*
X16103515Y-16150079D02*
X16103515Y-16169127D01*
X16103515Y-16169127D02*
X16093991Y-16197698D01*
X16093991Y-16197698D02*
X15979706Y-16311984D01*
X15979706Y-16311984D02*
X16103515Y-16311984D01*
X16341610Y-16311984D02*
X16341610Y-16111984D01*
X16427325Y-16311984D02*
X16427325Y-16207222D01*
X16427325Y-16207222D02*
X16417801Y-16188174D01*
X16417801Y-16188174D02*
X16398753Y-16178650D01*
X16398753Y-16178650D02*
X16370182Y-16178650D01*
X16370182Y-16178650D02*
X16351134Y-16188174D01*
X16351134Y-16188174D02*
X16341610Y-16197698D01*
X16551134Y-16311984D02*
X16532087Y-16302460D01*
X16532087Y-16302460D02*
X16522563Y-16292936D01*
X16522563Y-16292936D02*
X16513039Y-16273888D01*
X16513039Y-16273888D02*
X16513039Y-16216746D01*
X16513039Y-16216746D02*
X16522563Y-16197698D01*
X16522563Y-16197698D02*
X16532087Y-16188174D01*
X16532087Y-16188174D02*
X16551134Y-16178650D01*
X16551134Y-16178650D02*
X16579706Y-16178650D01*
X16579706Y-16178650D02*
X16598753Y-16188174D01*
X16598753Y-16188174D02*
X16608277Y-16197698D01*
X16608277Y-16197698D02*
X16617801Y-16216746D01*
X16617801Y-16216746D02*
X16617801Y-16273888D01*
X16617801Y-16273888D02*
X16608277Y-16292936D01*
X16608277Y-16292936D02*
X16598753Y-16302460D01*
X16598753Y-16302460D02*
X16579706Y-16311984D01*
X16579706Y-16311984D02*
X16551134Y-16311984D01*
X16732087Y-16311984D02*
X16713039Y-16302460D01*
X16713039Y-16302460D02*
X16703515Y-16283412D01*
X16703515Y-16283412D02*
X16703515Y-16111984D01*
X16884468Y-16302460D02*
X16865420Y-16311984D01*
X16865420Y-16311984D02*
X16827325Y-16311984D01*
X16827325Y-16311984D02*
X16808277Y-16302460D01*
X16808277Y-16302460D02*
X16798753Y-16283412D01*
X16798753Y-16283412D02*
X16798753Y-16207222D01*
X16798753Y-16207222D02*
X16808277Y-16188174D01*
X16808277Y-16188174D02*
X16827325Y-16178650D01*
X16827325Y-16178650D02*
X16865420Y-16178650D01*
X16865420Y-16178650D02*
X16884468Y-16188174D01*
X16884468Y-16188174D02*
X16893992Y-16207222D01*
X16893992Y-16207222D02*
X16893992Y-16226269D01*
X16893992Y-16226269D02*
X16798753Y-16245317D01*
X16970182Y-16302460D02*
X16989230Y-16311984D01*
X16989230Y-16311984D02*
X17027325Y-16311984D01*
X17027325Y-16311984D02*
X17046373Y-16302460D01*
X17046373Y-16302460D02*
X17055896Y-16283412D01*
X17055896Y-16283412D02*
X17055896Y-16273888D01*
X17055896Y-16273888D02*
X17046373Y-16254841D01*
X17046373Y-16254841D02*
X17027325Y-16245317D01*
X17027325Y-16245317D02*
X16998753Y-16245317D01*
X16998753Y-16245317D02*
X16979706Y-16235793D01*
X16979706Y-16235793D02*
X16970182Y-16216746D01*
X16970182Y-16216746D02*
X16970182Y-16207222D01*
X16970182Y-16207222D02*
X16979706Y-16188174D01*
X16979706Y-16188174D02*
X16998753Y-16178650D01*
X16998753Y-16178650D02*
X17027325Y-16178650D01*
X17027325Y-16178650D02*
X17046373Y-16188174D01*
X17122563Y-16388174D02*
X17132087Y-16378650D01*
X17132087Y-16378650D02*
X17151134Y-16350079D01*
X17151134Y-16350079D02*
X17160658Y-16331031D01*
X17160658Y-16331031D02*
X17170182Y-16302460D01*
X17170182Y-16302460D02*
X17179706Y-16254841D01*
X17179706Y-16254841D02*
X17179706Y-16216746D01*
X17179706Y-16216746D02*
X17170182Y-16169127D01*
X17170182Y-16169127D02*
X17160658Y-16140555D01*
X17160658Y-16140555D02*
X17151134Y-16121508D01*
X17151134Y-16121508D02*
X17132087Y-16092936D01*
X17132087Y-16092936D02*
X17122563Y-16083412D01*
D12*
X12335784Y-16512784D02*
X12335784Y-16456215D01*
X12279215Y-16456215D01*
X12279215Y-16512784D01*
X12335784Y-16512784D01*
D11*
X12646372Y-16375984D02*
X12665420Y-16375984D01*
X12665420Y-16375984D02*
X12684467Y-16385508D01*
X12684467Y-16385508D02*
X12693991Y-16395031D01*
X12693991Y-16395031D02*
X12703515Y-16414079D01*
X12703515Y-16414079D02*
X12713039Y-16452174D01*
X12713039Y-16452174D02*
X12713039Y-16499793D01*
X12713039Y-16499793D02*
X12703515Y-16537888D01*
X12703515Y-16537888D02*
X12693991Y-16556936D01*
X12693991Y-16556936D02*
X12684467Y-16566460D01*
X12684467Y-16566460D02*
X12665420Y-16575984D01*
X12665420Y-16575984D02*
X12646372Y-16575984D01*
X12646372Y-16575984D02*
X12627324Y-16566460D01*
X12627324Y-16566460D02*
X12617801Y-16556936D01*
X12617801Y-16556936D02*
X12608277Y-16537888D01*
X12608277Y-16537888D02*
X12598753Y-16499793D01*
X12598753Y-16499793D02*
X12598753Y-16452174D01*
X12598753Y-16452174D02*
X12608277Y-16414079D01*
X12608277Y-16414079D02*
X12617801Y-16395031D01*
X12617801Y-16395031D02*
X12627324Y-16385508D01*
X12627324Y-16385508D02*
X12646372Y-16375984D01*
X12798753Y-16556936D02*
X12808277Y-16566460D01*
X12808277Y-16566460D02*
X12798753Y-16575984D01*
X12798753Y-16575984D02*
X12789229Y-16566460D01*
X12789229Y-16566460D02*
X12798753Y-16556936D01*
X12798753Y-16556936D02*
X12798753Y-16575984D01*
X12922562Y-16461698D02*
X12903515Y-16452174D01*
X12903515Y-16452174D02*
X12893991Y-16442650D01*
X12893991Y-16442650D02*
X12884467Y-16423603D01*
X12884467Y-16423603D02*
X12884467Y-16414079D01*
X12884467Y-16414079D02*
X12893991Y-16395031D01*
X12893991Y-16395031D02*
X12903515Y-16385508D01*
X12903515Y-16385508D02*
X12922562Y-16375984D01*
X12922562Y-16375984D02*
X12960658Y-16375984D01*
X12960658Y-16375984D02*
X12979705Y-16385508D01*
X12979705Y-16385508D02*
X12989229Y-16395031D01*
X12989229Y-16395031D02*
X12998753Y-16414079D01*
X12998753Y-16414079D02*
X12998753Y-16423603D01*
X12998753Y-16423603D02*
X12989229Y-16442650D01*
X12989229Y-16442650D02*
X12979705Y-16452174D01*
X12979705Y-16452174D02*
X12960658Y-16461698D01*
X12960658Y-16461698D02*
X12922562Y-16461698D01*
X12922562Y-16461698D02*
X12903515Y-16471222D01*
X12903515Y-16471222D02*
X12893991Y-16480746D01*
X12893991Y-16480746D02*
X12884467Y-16499793D01*
X12884467Y-16499793D02*
X12884467Y-16537888D01*
X12884467Y-16537888D02*
X12893991Y-16556936D01*
X12893991Y-16556936D02*
X12903515Y-16566460D01*
X12903515Y-16566460D02*
X12922562Y-16575984D01*
X12922562Y-16575984D02*
X12960658Y-16575984D01*
X12960658Y-16575984D02*
X12979705Y-16566460D01*
X12979705Y-16566460D02*
X12989229Y-16556936D01*
X12989229Y-16556936D02*
X12998753Y-16537888D01*
X12998753Y-16537888D02*
X12998753Y-16499793D01*
X12998753Y-16499793D02*
X12989229Y-16480746D01*
X12989229Y-16480746D02*
X12979705Y-16471222D01*
X12979705Y-16471222D02*
X12960658Y-16461698D01*
X13122562Y-16375984D02*
X13141610Y-16375984D01*
X13141610Y-16375984D02*
X13160658Y-16385508D01*
X13160658Y-16385508D02*
X13170182Y-16395031D01*
X13170182Y-16395031D02*
X13179705Y-16414079D01*
X13179705Y-16414079D02*
X13189229Y-16452174D01*
X13189229Y-16452174D02*
X13189229Y-16499793D01*
X13189229Y-16499793D02*
X13179705Y-16537888D01*
X13179705Y-16537888D02*
X13170182Y-16556936D01*
X13170182Y-16556936D02*
X13160658Y-16566460D01*
X13160658Y-16566460D02*
X13141610Y-16575984D01*
X13141610Y-16575984D02*
X13122562Y-16575984D01*
X13122562Y-16575984D02*
X13103515Y-16566460D01*
X13103515Y-16566460D02*
X13093991Y-16556936D01*
X13093991Y-16556936D02*
X13084467Y-16537888D01*
X13084467Y-16537888D02*
X13074943Y-16499793D01*
X13074943Y-16499793D02*
X13074943Y-16452174D01*
X13074943Y-16452174D02*
X13084467Y-16414079D01*
X13084467Y-16414079D02*
X13093991Y-16395031D01*
X13093991Y-16395031D02*
X13103515Y-16385508D01*
X13103515Y-16385508D02*
X13122562Y-16375984D01*
X13313039Y-16375984D02*
X13332086Y-16375984D01*
X13332086Y-16375984D02*
X13351134Y-16385508D01*
X13351134Y-16385508D02*
X13360658Y-16395031D01*
X13360658Y-16395031D02*
X13370182Y-16414079D01*
X13370182Y-16414079D02*
X13379705Y-16452174D01*
X13379705Y-16452174D02*
X13379705Y-16499793D01*
X13379705Y-16499793D02*
X13370182Y-16537888D01*
X13370182Y-16537888D02*
X13360658Y-16556936D01*
X13360658Y-16556936D02*
X13351134Y-16566460D01*
X13351134Y-16566460D02*
X13332086Y-16575984D01*
X13332086Y-16575984D02*
X13313039Y-16575984D01*
X13313039Y-16575984D02*
X13293991Y-16566460D01*
X13293991Y-16566460D02*
X13284467Y-16556936D01*
X13284467Y-16556936D02*
X13274943Y-16537888D01*
X13274943Y-16537888D02*
X13265420Y-16499793D01*
X13265420Y-16499793D02*
X13265420Y-16452174D01*
X13265420Y-16452174D02*
X13274943Y-16414079D01*
X13274943Y-16414079D02*
X13284467Y-16395031D01*
X13284467Y-16395031D02*
X13293991Y-16385508D01*
X13293991Y-16385508D02*
X13313039Y-16375984D01*
X13465420Y-16575984D02*
X13465420Y-16442650D01*
X13465420Y-16461698D02*
X13474943Y-16452174D01*
X13474943Y-16452174D02*
X13493991Y-16442650D01*
X13493991Y-16442650D02*
X13522563Y-16442650D01*
X13522563Y-16442650D02*
X13541610Y-16452174D01*
X13541610Y-16452174D02*
X13551134Y-16471222D01*
X13551134Y-16471222D02*
X13551134Y-16575984D01*
X13551134Y-16471222D02*
X13560658Y-16452174D01*
X13560658Y-16452174D02*
X13579705Y-16442650D01*
X13579705Y-16442650D02*
X13608277Y-16442650D01*
X13608277Y-16442650D02*
X13627324Y-16452174D01*
X13627324Y-16452174D02*
X13636848Y-16471222D01*
X13636848Y-16471222D02*
X13636848Y-16575984D01*
X13732086Y-16575984D02*
X13732086Y-16442650D01*
X13732086Y-16461698D02*
X13741610Y-16452174D01*
X13741610Y-16452174D02*
X13760658Y-16442650D01*
X13760658Y-16442650D02*
X13789229Y-16442650D01*
X13789229Y-16442650D02*
X13808277Y-16452174D01*
X13808277Y-16452174D02*
X13817801Y-16471222D01*
X13817801Y-16471222D02*
X13817801Y-16575984D01*
X13817801Y-16471222D02*
X13827324Y-16452174D01*
X13827324Y-16452174D02*
X13846372Y-16442650D01*
X13846372Y-16442650D02*
X13874943Y-16442650D01*
X13874943Y-16442650D02*
X13893991Y-16452174D01*
X13893991Y-16452174D02*
X13903515Y-16471222D01*
X13903515Y-16471222D02*
X13903515Y-16575984D01*
X14293991Y-16366460D02*
X14122563Y-16623603D01*
X14551134Y-16375984D02*
X14570182Y-16375984D01*
X14570182Y-16375984D02*
X14589229Y-16385508D01*
X14589229Y-16385508D02*
X14598753Y-16395031D01*
X14598753Y-16395031D02*
X14608277Y-16414079D01*
X14608277Y-16414079D02*
X14617801Y-16452174D01*
X14617801Y-16452174D02*
X14617801Y-16499793D01*
X14617801Y-16499793D02*
X14608277Y-16537888D01*
X14608277Y-16537888D02*
X14598753Y-16556936D01*
X14598753Y-16556936D02*
X14589229Y-16566460D01*
X14589229Y-16566460D02*
X14570182Y-16575984D01*
X14570182Y-16575984D02*
X14551134Y-16575984D01*
X14551134Y-16575984D02*
X14532086Y-16566460D01*
X14532086Y-16566460D02*
X14522563Y-16556936D01*
X14522563Y-16556936D02*
X14513039Y-16537888D01*
X14513039Y-16537888D02*
X14503515Y-16499793D01*
X14503515Y-16499793D02*
X14503515Y-16452174D01*
X14503515Y-16452174D02*
X14513039Y-16414079D01*
X14513039Y-16414079D02*
X14522563Y-16395031D01*
X14522563Y-16395031D02*
X14532086Y-16385508D01*
X14532086Y-16385508D02*
X14551134Y-16375984D01*
X14703515Y-16556936D02*
X14713039Y-16566460D01*
X14713039Y-16566460D02*
X14703515Y-16575984D01*
X14703515Y-16575984D02*
X14693991Y-16566460D01*
X14693991Y-16566460D02*
X14703515Y-16556936D01*
X14703515Y-16556936D02*
X14703515Y-16575984D01*
X14836848Y-16375984D02*
X14855896Y-16375984D01*
X14855896Y-16375984D02*
X14874944Y-16385508D01*
X14874944Y-16385508D02*
X14884467Y-16395031D01*
X14884467Y-16395031D02*
X14893991Y-16414079D01*
X14893991Y-16414079D02*
X14903515Y-16452174D01*
X14903515Y-16452174D02*
X14903515Y-16499793D01*
X14903515Y-16499793D02*
X14893991Y-16537888D01*
X14893991Y-16537888D02*
X14884467Y-16556936D01*
X14884467Y-16556936D02*
X14874944Y-16566460D01*
X14874944Y-16566460D02*
X14855896Y-16575984D01*
X14855896Y-16575984D02*
X14836848Y-16575984D01*
X14836848Y-16575984D02*
X14817801Y-16566460D01*
X14817801Y-16566460D02*
X14808277Y-16556936D01*
X14808277Y-16556936D02*
X14798753Y-16537888D01*
X14798753Y-16537888D02*
X14789229Y-16499793D01*
X14789229Y-16499793D02*
X14789229Y-16452174D01*
X14789229Y-16452174D02*
X14798753Y-16414079D01*
X14798753Y-16414079D02*
X14808277Y-16395031D01*
X14808277Y-16395031D02*
X14817801Y-16385508D01*
X14817801Y-16385508D02*
X14836848Y-16375984D01*
X14970182Y-16375984D02*
X15093991Y-16375984D01*
X15093991Y-16375984D02*
X15027325Y-16452174D01*
X15027325Y-16452174D02*
X15055896Y-16452174D01*
X15055896Y-16452174D02*
X15074944Y-16461698D01*
X15074944Y-16461698D02*
X15084467Y-16471222D01*
X15084467Y-16471222D02*
X15093991Y-16490269D01*
X15093991Y-16490269D02*
X15093991Y-16537888D01*
X15093991Y-16537888D02*
X15084467Y-16556936D01*
X15084467Y-16556936D02*
X15074944Y-16566460D01*
X15074944Y-16566460D02*
X15055896Y-16575984D01*
X15055896Y-16575984D02*
X14998753Y-16575984D01*
X14998753Y-16575984D02*
X14979706Y-16566460D01*
X14979706Y-16566460D02*
X14970182Y-16556936D01*
X15284467Y-16575984D02*
X15170182Y-16575984D01*
X15227325Y-16575984D02*
X15227325Y-16375984D01*
X15227325Y-16375984D02*
X15208277Y-16404555D01*
X15208277Y-16404555D02*
X15189229Y-16423603D01*
X15189229Y-16423603D02*
X15170182Y-16433127D01*
X15465420Y-16375984D02*
X15370182Y-16375984D01*
X15370182Y-16375984D02*
X15360658Y-16471222D01*
X15360658Y-16471222D02*
X15370182Y-16461698D01*
X15370182Y-16461698D02*
X15389229Y-16452174D01*
X15389229Y-16452174D02*
X15436848Y-16452174D01*
X15436848Y-16452174D02*
X15455896Y-16461698D01*
X15455896Y-16461698D02*
X15465420Y-16471222D01*
X15465420Y-16471222D02*
X15474944Y-16490269D01*
X15474944Y-16490269D02*
X15474944Y-16537888D01*
X15474944Y-16537888D02*
X15465420Y-16556936D01*
X15465420Y-16556936D02*
X15455896Y-16566460D01*
X15455896Y-16566460D02*
X15436848Y-16575984D01*
X15436848Y-16575984D02*
X15389229Y-16575984D01*
X15389229Y-16575984D02*
X15370182Y-16566460D01*
X15370182Y-16566460D02*
X15360658Y-16556936D01*
X15551134Y-16375984D02*
X15551134Y-16414079D01*
X15627325Y-16375984D02*
X15627325Y-16414079D01*
X15922563Y-16652174D02*
X15913039Y-16642650D01*
X15913039Y-16642650D02*
X15893991Y-16614079D01*
X15893991Y-16614079D02*
X15884468Y-16595031D01*
X15884468Y-16595031D02*
X15874944Y-16566460D01*
X15874944Y-16566460D02*
X15865420Y-16518841D01*
X15865420Y-16518841D02*
X15865420Y-16480746D01*
X15865420Y-16480746D02*
X15874944Y-16433127D01*
X15874944Y-16433127D02*
X15884468Y-16404555D01*
X15884468Y-16404555D02*
X15893991Y-16385508D01*
X15893991Y-16385508D02*
X15913039Y-16356936D01*
X15913039Y-16356936D02*
X15922563Y-16347412D01*
X16008277Y-16575984D02*
X16046372Y-16575984D01*
X16046372Y-16575984D02*
X16065420Y-16566460D01*
X16065420Y-16566460D02*
X16074944Y-16556936D01*
X16074944Y-16556936D02*
X16093991Y-16528365D01*
X16093991Y-16528365D02*
X16103515Y-16490269D01*
X16103515Y-16490269D02*
X16103515Y-16414079D01*
X16103515Y-16414079D02*
X16093991Y-16395031D01*
X16093991Y-16395031D02*
X16084468Y-16385508D01*
X16084468Y-16385508D02*
X16065420Y-16375984D01*
X16065420Y-16375984D02*
X16027325Y-16375984D01*
X16027325Y-16375984D02*
X16008277Y-16385508D01*
X16008277Y-16385508D02*
X15998753Y-16395031D01*
X15998753Y-16395031D02*
X15989229Y-16414079D01*
X15989229Y-16414079D02*
X15989229Y-16461698D01*
X15989229Y-16461698D02*
X15998753Y-16480746D01*
X15998753Y-16480746D02*
X16008277Y-16490269D01*
X16008277Y-16490269D02*
X16027325Y-16499793D01*
X16027325Y-16499793D02*
X16065420Y-16499793D01*
X16065420Y-16499793D02*
X16084468Y-16490269D01*
X16084468Y-16490269D02*
X16093991Y-16480746D01*
X16093991Y-16480746D02*
X16103515Y-16461698D01*
X16170182Y-16375984D02*
X16293991Y-16375984D01*
X16293991Y-16375984D02*
X16227325Y-16452174D01*
X16227325Y-16452174D02*
X16255896Y-16452174D01*
X16255896Y-16452174D02*
X16274944Y-16461698D01*
X16274944Y-16461698D02*
X16284468Y-16471222D01*
X16284468Y-16471222D02*
X16293991Y-16490269D01*
X16293991Y-16490269D02*
X16293991Y-16537888D01*
X16293991Y-16537888D02*
X16284468Y-16556936D01*
X16284468Y-16556936D02*
X16274944Y-16566460D01*
X16274944Y-16566460D02*
X16255896Y-16575984D01*
X16255896Y-16575984D02*
X16198753Y-16575984D01*
X16198753Y-16575984D02*
X16179706Y-16566460D01*
X16179706Y-16566460D02*
X16170182Y-16556936D01*
X16532087Y-16575984D02*
X16532087Y-16375984D01*
X16617801Y-16575984D02*
X16617801Y-16471222D01*
X16617801Y-16471222D02*
X16608277Y-16452174D01*
X16608277Y-16452174D02*
X16589230Y-16442650D01*
X16589230Y-16442650D02*
X16560658Y-16442650D01*
X16560658Y-16442650D02*
X16541610Y-16452174D01*
X16541610Y-16452174D02*
X16532087Y-16461698D01*
X16741610Y-16575984D02*
X16722563Y-16566460D01*
X16722563Y-16566460D02*
X16713039Y-16556936D01*
X16713039Y-16556936D02*
X16703515Y-16537888D01*
X16703515Y-16537888D02*
X16703515Y-16480746D01*
X16703515Y-16480746D02*
X16713039Y-16461698D01*
X16713039Y-16461698D02*
X16722563Y-16452174D01*
X16722563Y-16452174D02*
X16741610Y-16442650D01*
X16741610Y-16442650D02*
X16770182Y-16442650D01*
X16770182Y-16442650D02*
X16789230Y-16452174D01*
X16789230Y-16452174D02*
X16798753Y-16461698D01*
X16798753Y-16461698D02*
X16808277Y-16480746D01*
X16808277Y-16480746D02*
X16808277Y-16537888D01*
X16808277Y-16537888D02*
X16798753Y-16556936D01*
X16798753Y-16556936D02*
X16789230Y-16566460D01*
X16789230Y-16566460D02*
X16770182Y-16575984D01*
X16770182Y-16575984D02*
X16741610Y-16575984D01*
X16922563Y-16575984D02*
X16903515Y-16566460D01*
X16903515Y-16566460D02*
X16893992Y-16547412D01*
X16893992Y-16547412D02*
X16893992Y-16375984D01*
X17074944Y-16566460D02*
X17055896Y-16575984D01*
X17055896Y-16575984D02*
X17017801Y-16575984D01*
X17017801Y-16575984D02*
X16998753Y-16566460D01*
X16998753Y-16566460D02*
X16989230Y-16547412D01*
X16989230Y-16547412D02*
X16989230Y-16471222D01*
X16989230Y-16471222D02*
X16998753Y-16452174D01*
X16998753Y-16452174D02*
X17017801Y-16442650D01*
X17017801Y-16442650D02*
X17055896Y-16442650D01*
X17055896Y-16442650D02*
X17074944Y-16452174D01*
X17074944Y-16452174D02*
X17084468Y-16471222D01*
X17084468Y-16471222D02*
X17084468Y-16490269D01*
X17084468Y-16490269D02*
X16989230Y-16509317D01*
X17160658Y-16566460D02*
X17179706Y-16575984D01*
X17179706Y-16575984D02*
X17217801Y-16575984D01*
X17217801Y-16575984D02*
X17236849Y-16566460D01*
X17236849Y-16566460D02*
X17246373Y-16547412D01*
X17246373Y-16547412D02*
X17246373Y-16537888D01*
X17246373Y-16537888D02*
X17236849Y-16518841D01*
X17236849Y-16518841D02*
X17217801Y-16509317D01*
X17217801Y-16509317D02*
X17189230Y-16509317D01*
X17189230Y-16509317D02*
X17170182Y-16499793D01*
X17170182Y-16499793D02*
X17160658Y-16480746D01*
X17160658Y-16480746D02*
X17160658Y-16471222D01*
X17160658Y-16471222D02*
X17170182Y-16452174D01*
X17170182Y-16452174D02*
X17189230Y-16442650D01*
X17189230Y-16442650D02*
X17217801Y-16442650D01*
X17217801Y-16442650D02*
X17236849Y-16452174D01*
X17313039Y-16652174D02*
X17322563Y-16642650D01*
X17322563Y-16642650D02*
X17341611Y-16614079D01*
X17341611Y-16614079D02*
X17351134Y-16595031D01*
X17351134Y-16595031D02*
X17360658Y-16566460D01*
X17360658Y-16566460D02*
X17370182Y-16518841D01*
X17370182Y-16518841D02*
X17370182Y-16480746D01*
X17370182Y-16480746D02*
X17360658Y-16433127D01*
X17360658Y-16433127D02*
X17351134Y-16404555D01*
X17351134Y-16404555D02*
X17341611Y-16385508D01*
X17341611Y-16385508D02*
X17322563Y-16356936D01*
X17322563Y-16356936D02*
X17313039Y-16347412D01*
D12*
X12302500Y-16793500D02*
X12347500Y-16748500D01*
X12302500Y-16703500D01*
X12257500Y-16748500D01*
X12302500Y-16793500D01*
D11*
X12646372Y-16639984D02*
X12665420Y-16639984D01*
X12665420Y-16639984D02*
X12684467Y-16649508D01*
X12684467Y-16649508D02*
X12693991Y-16659031D01*
X12693991Y-16659031D02*
X12703515Y-16678079D01*
X12703515Y-16678079D02*
X12713039Y-16716174D01*
X12713039Y-16716174D02*
X12713039Y-16763793D01*
X12713039Y-16763793D02*
X12703515Y-16801889D01*
X12703515Y-16801889D02*
X12693991Y-16820936D01*
X12693991Y-16820936D02*
X12684467Y-16830460D01*
X12684467Y-16830460D02*
X12665420Y-16839984D01*
X12665420Y-16839984D02*
X12646372Y-16839984D01*
X12646372Y-16839984D02*
X12627324Y-16830460D01*
X12627324Y-16830460D02*
X12617801Y-16820936D01*
X12617801Y-16820936D02*
X12608277Y-16801889D01*
X12608277Y-16801889D02*
X12598753Y-16763793D01*
X12598753Y-16763793D02*
X12598753Y-16716174D01*
X12598753Y-16716174D02*
X12608277Y-16678079D01*
X12608277Y-16678079D02*
X12617801Y-16659031D01*
X12617801Y-16659031D02*
X12627324Y-16649508D01*
X12627324Y-16649508D02*
X12646372Y-16639984D01*
X12798753Y-16820936D02*
X12808277Y-16830460D01*
X12808277Y-16830460D02*
X12798753Y-16839984D01*
X12798753Y-16839984D02*
X12789229Y-16830460D01*
X12789229Y-16830460D02*
X12798753Y-16820936D01*
X12798753Y-16820936D02*
X12798753Y-16839984D01*
X12903515Y-16839984D02*
X12941610Y-16839984D01*
X12941610Y-16839984D02*
X12960658Y-16830460D01*
X12960658Y-16830460D02*
X12970182Y-16820936D01*
X12970182Y-16820936D02*
X12989229Y-16792365D01*
X12989229Y-16792365D02*
X12998753Y-16754269D01*
X12998753Y-16754269D02*
X12998753Y-16678079D01*
X12998753Y-16678079D02*
X12989229Y-16659031D01*
X12989229Y-16659031D02*
X12979705Y-16649508D01*
X12979705Y-16649508D02*
X12960658Y-16639984D01*
X12960658Y-16639984D02*
X12922562Y-16639984D01*
X12922562Y-16639984D02*
X12903515Y-16649508D01*
X12903515Y-16649508D02*
X12893991Y-16659031D01*
X12893991Y-16659031D02*
X12884467Y-16678079D01*
X12884467Y-16678079D02*
X12884467Y-16725698D01*
X12884467Y-16725698D02*
X12893991Y-16744746D01*
X12893991Y-16744746D02*
X12903515Y-16754269D01*
X12903515Y-16754269D02*
X12922562Y-16763793D01*
X12922562Y-16763793D02*
X12960658Y-16763793D01*
X12960658Y-16763793D02*
X12979705Y-16754269D01*
X12979705Y-16754269D02*
X12989229Y-16744746D01*
X12989229Y-16744746D02*
X12998753Y-16725698D01*
X13122562Y-16639984D02*
X13141610Y-16639984D01*
X13141610Y-16639984D02*
X13160658Y-16649508D01*
X13160658Y-16649508D02*
X13170182Y-16659031D01*
X13170182Y-16659031D02*
X13179705Y-16678079D01*
X13179705Y-16678079D02*
X13189229Y-16716174D01*
X13189229Y-16716174D02*
X13189229Y-16763793D01*
X13189229Y-16763793D02*
X13179705Y-16801889D01*
X13179705Y-16801889D02*
X13170182Y-16820936D01*
X13170182Y-16820936D02*
X13160658Y-16830460D01*
X13160658Y-16830460D02*
X13141610Y-16839984D01*
X13141610Y-16839984D02*
X13122562Y-16839984D01*
X13122562Y-16839984D02*
X13103515Y-16830460D01*
X13103515Y-16830460D02*
X13093991Y-16820936D01*
X13093991Y-16820936D02*
X13084467Y-16801889D01*
X13084467Y-16801889D02*
X13074943Y-16763793D01*
X13074943Y-16763793D02*
X13074943Y-16716174D01*
X13074943Y-16716174D02*
X13084467Y-16678079D01*
X13084467Y-16678079D02*
X13093991Y-16659031D01*
X13093991Y-16659031D02*
X13103515Y-16649508D01*
X13103515Y-16649508D02*
X13122562Y-16639984D01*
X13313039Y-16639984D02*
X13332086Y-16639984D01*
X13332086Y-16639984D02*
X13351134Y-16649508D01*
X13351134Y-16649508D02*
X13360658Y-16659031D01*
X13360658Y-16659031D02*
X13370182Y-16678079D01*
X13370182Y-16678079D02*
X13379705Y-16716174D01*
X13379705Y-16716174D02*
X13379705Y-16763793D01*
X13379705Y-16763793D02*
X13370182Y-16801889D01*
X13370182Y-16801889D02*
X13360658Y-16820936D01*
X13360658Y-16820936D02*
X13351134Y-16830460D01*
X13351134Y-16830460D02*
X13332086Y-16839984D01*
X13332086Y-16839984D02*
X13313039Y-16839984D01*
X13313039Y-16839984D02*
X13293991Y-16830460D01*
X13293991Y-16830460D02*
X13284467Y-16820936D01*
X13284467Y-16820936D02*
X13274943Y-16801889D01*
X13274943Y-16801889D02*
X13265420Y-16763793D01*
X13265420Y-16763793D02*
X13265420Y-16716174D01*
X13265420Y-16716174D02*
X13274943Y-16678079D01*
X13274943Y-16678079D02*
X13284467Y-16659031D01*
X13284467Y-16659031D02*
X13293991Y-16649508D01*
X13293991Y-16649508D02*
X13313039Y-16639984D01*
X13465420Y-16839984D02*
X13465420Y-16706650D01*
X13465420Y-16725698D02*
X13474943Y-16716174D01*
X13474943Y-16716174D02*
X13493991Y-16706650D01*
X13493991Y-16706650D02*
X13522563Y-16706650D01*
X13522563Y-16706650D02*
X13541610Y-16716174D01*
X13541610Y-16716174D02*
X13551134Y-16735222D01*
X13551134Y-16735222D02*
X13551134Y-16839984D01*
X13551134Y-16735222D02*
X13560658Y-16716174D01*
X13560658Y-16716174D02*
X13579705Y-16706650D01*
X13579705Y-16706650D02*
X13608277Y-16706650D01*
X13608277Y-16706650D02*
X13627324Y-16716174D01*
X13627324Y-16716174D02*
X13636848Y-16735222D01*
X13636848Y-16735222D02*
X13636848Y-16839984D01*
X13732086Y-16839984D02*
X13732086Y-16706650D01*
X13732086Y-16725698D02*
X13741610Y-16716174D01*
X13741610Y-16716174D02*
X13760658Y-16706650D01*
X13760658Y-16706650D02*
X13789229Y-16706650D01*
X13789229Y-16706650D02*
X13808277Y-16716174D01*
X13808277Y-16716174D02*
X13817801Y-16735222D01*
X13817801Y-16735222D02*
X13817801Y-16839984D01*
X13817801Y-16735222D02*
X13827324Y-16716174D01*
X13827324Y-16716174D02*
X13846372Y-16706650D01*
X13846372Y-16706650D02*
X13874943Y-16706650D01*
X13874943Y-16706650D02*
X13893991Y-16716174D01*
X13893991Y-16716174D02*
X13903515Y-16735222D01*
X13903515Y-16735222D02*
X13903515Y-16839984D01*
X14293991Y-16630460D02*
X14122563Y-16887603D01*
X14551134Y-16639984D02*
X14570182Y-16639984D01*
X14570182Y-16639984D02*
X14589229Y-16649508D01*
X14589229Y-16649508D02*
X14598753Y-16659031D01*
X14598753Y-16659031D02*
X14608277Y-16678079D01*
X14608277Y-16678079D02*
X14617801Y-16716174D01*
X14617801Y-16716174D02*
X14617801Y-16763793D01*
X14617801Y-16763793D02*
X14608277Y-16801889D01*
X14608277Y-16801889D02*
X14598753Y-16820936D01*
X14598753Y-16820936D02*
X14589229Y-16830460D01*
X14589229Y-16830460D02*
X14570182Y-16839984D01*
X14570182Y-16839984D02*
X14551134Y-16839984D01*
X14551134Y-16839984D02*
X14532086Y-16830460D01*
X14532086Y-16830460D02*
X14522563Y-16820936D01*
X14522563Y-16820936D02*
X14513039Y-16801889D01*
X14513039Y-16801889D02*
X14503515Y-16763793D01*
X14503515Y-16763793D02*
X14503515Y-16716174D01*
X14503515Y-16716174D02*
X14513039Y-16678079D01*
X14513039Y-16678079D02*
X14522563Y-16659031D01*
X14522563Y-16659031D02*
X14532086Y-16649508D01*
X14532086Y-16649508D02*
X14551134Y-16639984D01*
X14703515Y-16820936D02*
X14713039Y-16830460D01*
X14713039Y-16830460D02*
X14703515Y-16839984D01*
X14703515Y-16839984D02*
X14693991Y-16830460D01*
X14693991Y-16830460D02*
X14703515Y-16820936D01*
X14703515Y-16820936D02*
X14703515Y-16839984D01*
X14836848Y-16639984D02*
X14855896Y-16639984D01*
X14855896Y-16639984D02*
X14874944Y-16649508D01*
X14874944Y-16649508D02*
X14884467Y-16659031D01*
X14884467Y-16659031D02*
X14893991Y-16678079D01*
X14893991Y-16678079D02*
X14903515Y-16716174D01*
X14903515Y-16716174D02*
X14903515Y-16763793D01*
X14903515Y-16763793D02*
X14893991Y-16801889D01*
X14893991Y-16801889D02*
X14884467Y-16820936D01*
X14884467Y-16820936D02*
X14874944Y-16830460D01*
X14874944Y-16830460D02*
X14855896Y-16839984D01*
X14855896Y-16839984D02*
X14836848Y-16839984D01*
X14836848Y-16839984D02*
X14817801Y-16830460D01*
X14817801Y-16830460D02*
X14808277Y-16820936D01*
X14808277Y-16820936D02*
X14798753Y-16801889D01*
X14798753Y-16801889D02*
X14789229Y-16763793D01*
X14789229Y-16763793D02*
X14789229Y-16716174D01*
X14789229Y-16716174D02*
X14798753Y-16678079D01*
X14798753Y-16678079D02*
X14808277Y-16659031D01*
X14808277Y-16659031D02*
X14817801Y-16649508D01*
X14817801Y-16649508D02*
X14836848Y-16639984D01*
X14970182Y-16639984D02*
X15093991Y-16639984D01*
X15093991Y-16639984D02*
X15027325Y-16716174D01*
X15027325Y-16716174D02*
X15055896Y-16716174D01*
X15055896Y-16716174D02*
X15074944Y-16725698D01*
X15074944Y-16725698D02*
X15084467Y-16735222D01*
X15084467Y-16735222D02*
X15093991Y-16754269D01*
X15093991Y-16754269D02*
X15093991Y-16801889D01*
X15093991Y-16801889D02*
X15084467Y-16820936D01*
X15084467Y-16820936D02*
X15074944Y-16830460D01*
X15074944Y-16830460D02*
X15055896Y-16839984D01*
X15055896Y-16839984D02*
X14998753Y-16839984D01*
X14998753Y-16839984D02*
X14979706Y-16830460D01*
X14979706Y-16830460D02*
X14970182Y-16820936D01*
X15274944Y-16639984D02*
X15179706Y-16639984D01*
X15179706Y-16639984D02*
X15170182Y-16735222D01*
X15170182Y-16735222D02*
X15179706Y-16725698D01*
X15179706Y-16725698D02*
X15198753Y-16716174D01*
X15198753Y-16716174D02*
X15246372Y-16716174D01*
X15246372Y-16716174D02*
X15265420Y-16725698D01*
X15265420Y-16725698D02*
X15274944Y-16735222D01*
X15274944Y-16735222D02*
X15284467Y-16754269D01*
X15284467Y-16754269D02*
X15284467Y-16801889D01*
X15284467Y-16801889D02*
X15274944Y-16820936D01*
X15274944Y-16820936D02*
X15265420Y-16830460D01*
X15265420Y-16830460D02*
X15246372Y-16839984D01*
X15246372Y-16839984D02*
X15198753Y-16839984D01*
X15198753Y-16839984D02*
X15179706Y-16830460D01*
X15179706Y-16830460D02*
X15170182Y-16820936D01*
X15455896Y-16706650D02*
X15455896Y-16839984D01*
X15408277Y-16630460D02*
X15360658Y-16773317D01*
X15360658Y-16773317D02*
X15484467Y-16773317D01*
X15551134Y-16639984D02*
X15551134Y-16678079D01*
X15627325Y-16639984D02*
X15627325Y-16678079D01*
X15922563Y-16916174D02*
X15913039Y-16906650D01*
X15913039Y-16906650D02*
X15893991Y-16878079D01*
X15893991Y-16878079D02*
X15884468Y-16859031D01*
X15884468Y-16859031D02*
X15874944Y-16830460D01*
X15874944Y-16830460D02*
X15865420Y-16782841D01*
X15865420Y-16782841D02*
X15865420Y-16744746D01*
X15865420Y-16744746D02*
X15874944Y-16697127D01*
X15874944Y-16697127D02*
X15884468Y-16668555D01*
X15884468Y-16668555D02*
X15893991Y-16649508D01*
X15893991Y-16649508D02*
X15913039Y-16620936D01*
X15913039Y-16620936D02*
X15922563Y-16611412D01*
X15989229Y-16659031D02*
X15998753Y-16649508D01*
X15998753Y-16649508D02*
X16017801Y-16639984D01*
X16017801Y-16639984D02*
X16065420Y-16639984D01*
X16065420Y-16639984D02*
X16084468Y-16649508D01*
X16084468Y-16649508D02*
X16093991Y-16659031D01*
X16093991Y-16659031D02*
X16103515Y-16678079D01*
X16103515Y-16678079D02*
X16103515Y-16697127D01*
X16103515Y-16697127D02*
X16093991Y-16725698D01*
X16093991Y-16725698D02*
X15979706Y-16839984D01*
X15979706Y-16839984D02*
X16103515Y-16839984D01*
X16341610Y-16839984D02*
X16341610Y-16639984D01*
X16427325Y-16839984D02*
X16427325Y-16735222D01*
X16427325Y-16735222D02*
X16417801Y-16716174D01*
X16417801Y-16716174D02*
X16398753Y-16706650D01*
X16398753Y-16706650D02*
X16370182Y-16706650D01*
X16370182Y-16706650D02*
X16351134Y-16716174D01*
X16351134Y-16716174D02*
X16341610Y-16725698D01*
X16551134Y-16839984D02*
X16532087Y-16830460D01*
X16532087Y-16830460D02*
X16522563Y-16820936D01*
X16522563Y-16820936D02*
X16513039Y-16801889D01*
X16513039Y-16801889D02*
X16513039Y-16744746D01*
X16513039Y-16744746D02*
X16522563Y-16725698D01*
X16522563Y-16725698D02*
X16532087Y-16716174D01*
X16532087Y-16716174D02*
X16551134Y-16706650D01*
X16551134Y-16706650D02*
X16579706Y-16706650D01*
X16579706Y-16706650D02*
X16598753Y-16716174D01*
X16598753Y-16716174D02*
X16608277Y-16725698D01*
X16608277Y-16725698D02*
X16617801Y-16744746D01*
X16617801Y-16744746D02*
X16617801Y-16801889D01*
X16617801Y-16801889D02*
X16608277Y-16820936D01*
X16608277Y-16820936D02*
X16598753Y-16830460D01*
X16598753Y-16830460D02*
X16579706Y-16839984D01*
X16579706Y-16839984D02*
X16551134Y-16839984D01*
X16732087Y-16839984D02*
X16713039Y-16830460D01*
X16713039Y-16830460D02*
X16703515Y-16811412D01*
X16703515Y-16811412D02*
X16703515Y-16639984D01*
X16884468Y-16830460D02*
X16865420Y-16839984D01*
X16865420Y-16839984D02*
X16827325Y-16839984D01*
X16827325Y-16839984D02*
X16808277Y-16830460D01*
X16808277Y-16830460D02*
X16798753Y-16811412D01*
X16798753Y-16811412D02*
X16798753Y-16735222D01*
X16798753Y-16735222D02*
X16808277Y-16716174D01*
X16808277Y-16716174D02*
X16827325Y-16706650D01*
X16827325Y-16706650D02*
X16865420Y-16706650D01*
X16865420Y-16706650D02*
X16884468Y-16716174D01*
X16884468Y-16716174D02*
X16893992Y-16735222D01*
X16893992Y-16735222D02*
X16893992Y-16754269D01*
X16893992Y-16754269D02*
X16798753Y-16773317D01*
X16970182Y-16830460D02*
X16989230Y-16839984D01*
X16989230Y-16839984D02*
X17027325Y-16839984D01*
X17027325Y-16839984D02*
X17046373Y-16830460D01*
X17046373Y-16830460D02*
X17055896Y-16811412D01*
X17055896Y-16811412D02*
X17055896Y-16801889D01*
X17055896Y-16801889D02*
X17046373Y-16782841D01*
X17046373Y-16782841D02*
X17027325Y-16773317D01*
X17027325Y-16773317D02*
X16998753Y-16773317D01*
X16998753Y-16773317D02*
X16979706Y-16763793D01*
X16979706Y-16763793D02*
X16970182Y-16744746D01*
X16970182Y-16744746D02*
X16970182Y-16735222D01*
X16970182Y-16735222D02*
X16979706Y-16716174D01*
X16979706Y-16716174D02*
X16998753Y-16706650D01*
X16998753Y-16706650D02*
X17027325Y-16706650D01*
X17027325Y-16706650D02*
X17046373Y-16716174D01*
X17122563Y-16916174D02*
X17132087Y-16906650D01*
X17132087Y-16906650D02*
X17151134Y-16878079D01*
X17151134Y-16878079D02*
X17160658Y-16859031D01*
X17160658Y-16859031D02*
X17170182Y-16830460D01*
X17170182Y-16830460D02*
X17179706Y-16782841D01*
X17179706Y-16782841D02*
X17179706Y-16744746D01*
X17179706Y-16744746D02*
X17170182Y-16697127D01*
X17170182Y-16697127D02*
X17160658Y-16668555D01*
X17160658Y-16668555D02*
X17151134Y-16649508D01*
X17151134Y-16649508D02*
X17132087Y-16620936D01*
X17132087Y-16620936D02*
X17122563Y-16611412D01*
D12*
X12247500Y-16962500D02*
X12347500Y-17062500D01*
X12347500Y-16962500D02*
X12247500Y-17062500D01*
X12347500Y-17012500D02*
G75*
G02*
X12247500Y-17012500I-50000J0D01*
G01*
X12247500Y-17012500D02*
G75*
G02*
X12347500Y-17012500I50000J0D01*
G01*
D11*
X12713039Y-17103984D02*
X12598753Y-17103984D01*
X12655896Y-17103984D02*
X12655896Y-16903984D01*
X12655896Y-16903984D02*
X12636848Y-16932555D01*
X12636848Y-16932555D02*
X12617801Y-16951603D01*
X12617801Y-16951603D02*
X12598753Y-16961127D01*
X12798753Y-17084936D02*
X12808277Y-17094460D01*
X12808277Y-17094460D02*
X12798753Y-17103984D01*
X12798753Y-17103984D02*
X12789229Y-17094460D01*
X12789229Y-17094460D02*
X12798753Y-17084936D01*
X12798753Y-17084936D02*
X12798753Y-17103984D01*
X12932086Y-16903984D02*
X12951134Y-16903984D01*
X12951134Y-16903984D02*
X12970182Y-16913508D01*
X12970182Y-16913508D02*
X12979705Y-16923031D01*
X12979705Y-16923031D02*
X12989229Y-16942079D01*
X12989229Y-16942079D02*
X12998753Y-16980174D01*
X12998753Y-16980174D02*
X12998753Y-17027793D01*
X12998753Y-17027793D02*
X12989229Y-17065889D01*
X12989229Y-17065889D02*
X12979705Y-17084936D01*
X12979705Y-17084936D02*
X12970182Y-17094460D01*
X12970182Y-17094460D02*
X12951134Y-17103984D01*
X12951134Y-17103984D02*
X12932086Y-17103984D01*
X12932086Y-17103984D02*
X12913039Y-17094460D01*
X12913039Y-17094460D02*
X12903515Y-17084936D01*
X12903515Y-17084936D02*
X12893991Y-17065889D01*
X12893991Y-17065889D02*
X12884467Y-17027793D01*
X12884467Y-17027793D02*
X12884467Y-16980174D01*
X12884467Y-16980174D02*
X12893991Y-16942079D01*
X12893991Y-16942079D02*
X12903515Y-16923031D01*
X12903515Y-16923031D02*
X12913039Y-16913508D01*
X12913039Y-16913508D02*
X12932086Y-16903984D01*
X13122562Y-16903984D02*
X13141610Y-16903984D01*
X13141610Y-16903984D02*
X13160658Y-16913508D01*
X13160658Y-16913508D02*
X13170182Y-16923031D01*
X13170182Y-16923031D02*
X13179705Y-16942079D01*
X13179705Y-16942079D02*
X13189229Y-16980174D01*
X13189229Y-16980174D02*
X13189229Y-17027793D01*
X13189229Y-17027793D02*
X13179705Y-17065889D01*
X13179705Y-17065889D02*
X13170182Y-17084936D01*
X13170182Y-17084936D02*
X13160658Y-17094460D01*
X13160658Y-17094460D02*
X13141610Y-17103984D01*
X13141610Y-17103984D02*
X13122562Y-17103984D01*
X13122562Y-17103984D02*
X13103515Y-17094460D01*
X13103515Y-17094460D02*
X13093991Y-17084936D01*
X13093991Y-17084936D02*
X13084467Y-17065889D01*
X13084467Y-17065889D02*
X13074943Y-17027793D01*
X13074943Y-17027793D02*
X13074943Y-16980174D01*
X13074943Y-16980174D02*
X13084467Y-16942079D01*
X13084467Y-16942079D02*
X13093991Y-16923031D01*
X13093991Y-16923031D02*
X13103515Y-16913508D01*
X13103515Y-16913508D02*
X13122562Y-16903984D01*
X13313039Y-16903984D02*
X13332086Y-16903984D01*
X13332086Y-16903984D02*
X13351134Y-16913508D01*
X13351134Y-16913508D02*
X13360658Y-16923031D01*
X13360658Y-16923031D02*
X13370182Y-16942079D01*
X13370182Y-16942079D02*
X13379705Y-16980174D01*
X13379705Y-16980174D02*
X13379705Y-17027793D01*
X13379705Y-17027793D02*
X13370182Y-17065889D01*
X13370182Y-17065889D02*
X13360658Y-17084936D01*
X13360658Y-17084936D02*
X13351134Y-17094460D01*
X13351134Y-17094460D02*
X13332086Y-17103984D01*
X13332086Y-17103984D02*
X13313039Y-17103984D01*
X13313039Y-17103984D02*
X13293991Y-17094460D01*
X13293991Y-17094460D02*
X13284467Y-17084936D01*
X13284467Y-17084936D02*
X13274943Y-17065889D01*
X13274943Y-17065889D02*
X13265420Y-17027793D01*
X13265420Y-17027793D02*
X13265420Y-16980174D01*
X13265420Y-16980174D02*
X13274943Y-16942079D01*
X13274943Y-16942079D02*
X13284467Y-16923031D01*
X13284467Y-16923031D02*
X13293991Y-16913508D01*
X13293991Y-16913508D02*
X13313039Y-16903984D01*
X13465420Y-17103984D02*
X13465420Y-16970650D01*
X13465420Y-16989698D02*
X13474943Y-16980174D01*
X13474943Y-16980174D02*
X13493991Y-16970650D01*
X13493991Y-16970650D02*
X13522563Y-16970650D01*
X13522563Y-16970650D02*
X13541610Y-16980174D01*
X13541610Y-16980174D02*
X13551134Y-16999222D01*
X13551134Y-16999222D02*
X13551134Y-17103984D01*
X13551134Y-16999222D02*
X13560658Y-16980174D01*
X13560658Y-16980174D02*
X13579705Y-16970650D01*
X13579705Y-16970650D02*
X13608277Y-16970650D01*
X13608277Y-16970650D02*
X13627324Y-16980174D01*
X13627324Y-16980174D02*
X13636848Y-16999222D01*
X13636848Y-16999222D02*
X13636848Y-17103984D01*
X13732086Y-17103984D02*
X13732086Y-16970650D01*
X13732086Y-16989698D02*
X13741610Y-16980174D01*
X13741610Y-16980174D02*
X13760658Y-16970650D01*
X13760658Y-16970650D02*
X13789229Y-16970650D01*
X13789229Y-16970650D02*
X13808277Y-16980174D01*
X13808277Y-16980174D02*
X13817801Y-16999222D01*
X13817801Y-16999222D02*
X13817801Y-17103984D01*
X13817801Y-16999222D02*
X13827324Y-16980174D01*
X13827324Y-16980174D02*
X13846372Y-16970650D01*
X13846372Y-16970650D02*
X13874943Y-16970650D01*
X13874943Y-16970650D02*
X13893991Y-16980174D01*
X13893991Y-16980174D02*
X13903515Y-16999222D01*
X13903515Y-16999222D02*
X13903515Y-17103984D01*
X14293991Y-16894460D02*
X14122563Y-17151603D01*
X14551134Y-16903984D02*
X14570182Y-16903984D01*
X14570182Y-16903984D02*
X14589229Y-16913508D01*
X14589229Y-16913508D02*
X14598753Y-16923031D01*
X14598753Y-16923031D02*
X14608277Y-16942079D01*
X14608277Y-16942079D02*
X14617801Y-16980174D01*
X14617801Y-16980174D02*
X14617801Y-17027793D01*
X14617801Y-17027793D02*
X14608277Y-17065889D01*
X14608277Y-17065889D02*
X14598753Y-17084936D01*
X14598753Y-17084936D02*
X14589229Y-17094460D01*
X14589229Y-17094460D02*
X14570182Y-17103984D01*
X14570182Y-17103984D02*
X14551134Y-17103984D01*
X14551134Y-17103984D02*
X14532086Y-17094460D01*
X14532086Y-17094460D02*
X14522563Y-17084936D01*
X14522563Y-17084936D02*
X14513039Y-17065889D01*
X14513039Y-17065889D02*
X14503515Y-17027793D01*
X14503515Y-17027793D02*
X14503515Y-16980174D01*
X14503515Y-16980174D02*
X14513039Y-16942079D01*
X14513039Y-16942079D02*
X14522563Y-16923031D01*
X14522563Y-16923031D02*
X14532086Y-16913508D01*
X14532086Y-16913508D02*
X14551134Y-16903984D01*
X14703515Y-17084936D02*
X14713039Y-17094460D01*
X14713039Y-17094460D02*
X14703515Y-17103984D01*
X14703515Y-17103984D02*
X14693991Y-17094460D01*
X14693991Y-17094460D02*
X14703515Y-17084936D01*
X14703515Y-17084936D02*
X14703515Y-17103984D01*
X14836848Y-16903984D02*
X14855896Y-16903984D01*
X14855896Y-16903984D02*
X14874944Y-16913508D01*
X14874944Y-16913508D02*
X14884467Y-16923031D01*
X14884467Y-16923031D02*
X14893991Y-16942079D01*
X14893991Y-16942079D02*
X14903515Y-16980174D01*
X14903515Y-16980174D02*
X14903515Y-17027793D01*
X14903515Y-17027793D02*
X14893991Y-17065889D01*
X14893991Y-17065889D02*
X14884467Y-17084936D01*
X14884467Y-17084936D02*
X14874944Y-17094460D01*
X14874944Y-17094460D02*
X14855896Y-17103984D01*
X14855896Y-17103984D02*
X14836848Y-17103984D01*
X14836848Y-17103984D02*
X14817801Y-17094460D01*
X14817801Y-17094460D02*
X14808277Y-17084936D01*
X14808277Y-17084936D02*
X14798753Y-17065889D01*
X14798753Y-17065889D02*
X14789229Y-17027793D01*
X14789229Y-17027793D02*
X14789229Y-16980174D01*
X14789229Y-16980174D02*
X14798753Y-16942079D01*
X14798753Y-16942079D02*
X14808277Y-16923031D01*
X14808277Y-16923031D02*
X14817801Y-16913508D01*
X14817801Y-16913508D02*
X14836848Y-16903984D01*
X14970182Y-16903984D02*
X15093991Y-16903984D01*
X15093991Y-16903984D02*
X15027325Y-16980174D01*
X15027325Y-16980174D02*
X15055896Y-16980174D01*
X15055896Y-16980174D02*
X15074944Y-16989698D01*
X15074944Y-16989698D02*
X15084467Y-16999222D01*
X15084467Y-16999222D02*
X15093991Y-17018270D01*
X15093991Y-17018270D02*
X15093991Y-17065889D01*
X15093991Y-17065889D02*
X15084467Y-17084936D01*
X15084467Y-17084936D02*
X15074944Y-17094460D01*
X15074944Y-17094460D02*
X15055896Y-17103984D01*
X15055896Y-17103984D02*
X14998753Y-17103984D01*
X14998753Y-17103984D02*
X14979706Y-17094460D01*
X14979706Y-17094460D02*
X14970182Y-17084936D01*
X15189229Y-17103984D02*
X15227325Y-17103984D01*
X15227325Y-17103984D02*
X15246372Y-17094460D01*
X15246372Y-17094460D02*
X15255896Y-17084936D01*
X15255896Y-17084936D02*
X15274944Y-17056365D01*
X15274944Y-17056365D02*
X15284467Y-17018270D01*
X15284467Y-17018270D02*
X15284467Y-16942079D01*
X15284467Y-16942079D02*
X15274944Y-16923031D01*
X15274944Y-16923031D02*
X15265420Y-16913508D01*
X15265420Y-16913508D02*
X15246372Y-16903984D01*
X15246372Y-16903984D02*
X15208277Y-16903984D01*
X15208277Y-16903984D02*
X15189229Y-16913508D01*
X15189229Y-16913508D02*
X15179706Y-16923031D01*
X15179706Y-16923031D02*
X15170182Y-16942079D01*
X15170182Y-16942079D02*
X15170182Y-16989698D01*
X15170182Y-16989698D02*
X15179706Y-17008746D01*
X15179706Y-17008746D02*
X15189229Y-17018270D01*
X15189229Y-17018270D02*
X15208277Y-17027793D01*
X15208277Y-17027793D02*
X15246372Y-17027793D01*
X15246372Y-17027793D02*
X15265420Y-17018270D01*
X15265420Y-17018270D02*
X15274944Y-17008746D01*
X15274944Y-17008746D02*
X15284467Y-16989698D01*
X15455896Y-16970650D02*
X15455896Y-17103984D01*
X15408277Y-16894460D02*
X15360658Y-17037317D01*
X15360658Y-17037317D02*
X15484467Y-17037317D01*
X15551134Y-16903984D02*
X15551134Y-16942079D01*
X15627325Y-16903984D02*
X15627325Y-16942079D01*
X15922563Y-17180174D02*
X15913039Y-17170650D01*
X15913039Y-17170650D02*
X15893991Y-17142079D01*
X15893991Y-17142079D02*
X15884468Y-17123031D01*
X15884468Y-17123031D02*
X15874944Y-17094460D01*
X15874944Y-17094460D02*
X15865420Y-17046841D01*
X15865420Y-17046841D02*
X15865420Y-17008746D01*
X15865420Y-17008746D02*
X15874944Y-16961127D01*
X15874944Y-16961127D02*
X15884468Y-16932555D01*
X15884468Y-16932555D02*
X15893991Y-16913508D01*
X15893991Y-16913508D02*
X15913039Y-16884936D01*
X15913039Y-16884936D02*
X15922563Y-16875412D01*
X16027325Y-16989698D02*
X16008277Y-16980174D01*
X16008277Y-16980174D02*
X15998753Y-16970650D01*
X15998753Y-16970650D02*
X15989229Y-16951603D01*
X15989229Y-16951603D02*
X15989229Y-16942079D01*
X15989229Y-16942079D02*
X15998753Y-16923031D01*
X15998753Y-16923031D02*
X16008277Y-16913508D01*
X16008277Y-16913508D02*
X16027325Y-16903984D01*
X16027325Y-16903984D02*
X16065420Y-16903984D01*
X16065420Y-16903984D02*
X16084468Y-16913508D01*
X16084468Y-16913508D02*
X16093991Y-16923031D01*
X16093991Y-16923031D02*
X16103515Y-16942079D01*
X16103515Y-16942079D02*
X16103515Y-16951603D01*
X16103515Y-16951603D02*
X16093991Y-16970650D01*
X16093991Y-16970650D02*
X16084468Y-16980174D01*
X16084468Y-16980174D02*
X16065420Y-16989698D01*
X16065420Y-16989698D02*
X16027325Y-16989698D01*
X16027325Y-16989698D02*
X16008277Y-16999222D01*
X16008277Y-16999222D02*
X15998753Y-17008746D01*
X15998753Y-17008746D02*
X15989229Y-17027793D01*
X15989229Y-17027793D02*
X15989229Y-17065889D01*
X15989229Y-17065889D02*
X15998753Y-17084936D01*
X15998753Y-17084936D02*
X16008277Y-17094460D01*
X16008277Y-17094460D02*
X16027325Y-17103984D01*
X16027325Y-17103984D02*
X16065420Y-17103984D01*
X16065420Y-17103984D02*
X16084468Y-17094460D01*
X16084468Y-17094460D02*
X16093991Y-17084936D01*
X16093991Y-17084936D02*
X16103515Y-17065889D01*
X16103515Y-17065889D02*
X16103515Y-17027793D01*
X16103515Y-17027793D02*
X16093991Y-17008746D01*
X16093991Y-17008746D02*
X16084468Y-16999222D01*
X16084468Y-16999222D02*
X16065420Y-16989698D01*
X16198753Y-17103984D02*
X16236848Y-17103984D01*
X16236848Y-17103984D02*
X16255896Y-17094460D01*
X16255896Y-17094460D02*
X16265420Y-17084936D01*
X16265420Y-17084936D02*
X16284468Y-17056365D01*
X16284468Y-17056365D02*
X16293991Y-17018270D01*
X16293991Y-17018270D02*
X16293991Y-16942079D01*
X16293991Y-16942079D02*
X16284468Y-16923031D01*
X16284468Y-16923031D02*
X16274944Y-16913508D01*
X16274944Y-16913508D02*
X16255896Y-16903984D01*
X16255896Y-16903984D02*
X16217801Y-16903984D01*
X16217801Y-16903984D02*
X16198753Y-16913508D01*
X16198753Y-16913508D02*
X16189229Y-16923031D01*
X16189229Y-16923031D02*
X16179706Y-16942079D01*
X16179706Y-16942079D02*
X16179706Y-16989698D01*
X16179706Y-16989698D02*
X16189229Y-17008746D01*
X16189229Y-17008746D02*
X16198753Y-17018270D01*
X16198753Y-17018270D02*
X16217801Y-17027793D01*
X16217801Y-17027793D02*
X16255896Y-17027793D01*
X16255896Y-17027793D02*
X16274944Y-17018270D01*
X16274944Y-17018270D02*
X16284468Y-17008746D01*
X16284468Y-17008746D02*
X16293991Y-16989698D01*
X16532087Y-17103984D02*
X16532087Y-16903984D01*
X16617801Y-17103984D02*
X16617801Y-16999222D01*
X16617801Y-16999222D02*
X16608277Y-16980174D01*
X16608277Y-16980174D02*
X16589230Y-16970650D01*
X16589230Y-16970650D02*
X16560658Y-16970650D01*
X16560658Y-16970650D02*
X16541610Y-16980174D01*
X16541610Y-16980174D02*
X16532087Y-16989698D01*
X16741610Y-17103984D02*
X16722563Y-17094460D01*
X16722563Y-17094460D02*
X16713039Y-17084936D01*
X16713039Y-17084936D02*
X16703515Y-17065889D01*
X16703515Y-17065889D02*
X16703515Y-17008746D01*
X16703515Y-17008746D02*
X16713039Y-16989698D01*
X16713039Y-16989698D02*
X16722563Y-16980174D01*
X16722563Y-16980174D02*
X16741610Y-16970650D01*
X16741610Y-16970650D02*
X16770182Y-16970650D01*
X16770182Y-16970650D02*
X16789230Y-16980174D01*
X16789230Y-16980174D02*
X16798753Y-16989698D01*
X16798753Y-16989698D02*
X16808277Y-17008746D01*
X16808277Y-17008746D02*
X16808277Y-17065889D01*
X16808277Y-17065889D02*
X16798753Y-17084936D01*
X16798753Y-17084936D02*
X16789230Y-17094460D01*
X16789230Y-17094460D02*
X16770182Y-17103984D01*
X16770182Y-17103984D02*
X16741610Y-17103984D01*
X16922563Y-17103984D02*
X16903515Y-17094460D01*
X16903515Y-17094460D02*
X16893992Y-17075412D01*
X16893992Y-17075412D02*
X16893992Y-16903984D01*
X17074944Y-17094460D02*
X17055896Y-17103984D01*
X17055896Y-17103984D02*
X17017801Y-17103984D01*
X17017801Y-17103984D02*
X16998753Y-17094460D01*
X16998753Y-17094460D02*
X16989230Y-17075412D01*
X16989230Y-17075412D02*
X16989230Y-16999222D01*
X16989230Y-16999222D02*
X16998753Y-16980174D01*
X16998753Y-16980174D02*
X17017801Y-16970650D01*
X17017801Y-16970650D02*
X17055896Y-16970650D01*
X17055896Y-16970650D02*
X17074944Y-16980174D01*
X17074944Y-16980174D02*
X17084468Y-16999222D01*
X17084468Y-16999222D02*
X17084468Y-17018270D01*
X17084468Y-17018270D02*
X16989230Y-17037317D01*
X17160658Y-17094460D02*
X17179706Y-17103984D01*
X17179706Y-17103984D02*
X17217801Y-17103984D01*
X17217801Y-17103984D02*
X17236849Y-17094460D01*
X17236849Y-17094460D02*
X17246373Y-17075412D01*
X17246373Y-17075412D02*
X17246373Y-17065889D01*
X17246373Y-17065889D02*
X17236849Y-17046841D01*
X17236849Y-17046841D02*
X17217801Y-17037317D01*
X17217801Y-17037317D02*
X17189230Y-17037317D01*
X17189230Y-17037317D02*
X17170182Y-17027793D01*
X17170182Y-17027793D02*
X17160658Y-17008746D01*
X17160658Y-17008746D02*
X17160658Y-16999222D01*
X17160658Y-16999222D02*
X17170182Y-16980174D01*
X17170182Y-16980174D02*
X17189230Y-16970650D01*
X17189230Y-16970650D02*
X17217801Y-16970650D01*
X17217801Y-16970650D02*
X17236849Y-16980174D01*
X17313039Y-17180174D02*
X17322563Y-17170650D01*
X17322563Y-17170650D02*
X17341611Y-17142079D01*
X17341611Y-17142079D02*
X17351134Y-17123031D01*
X17351134Y-17123031D02*
X17360658Y-17094460D01*
X17360658Y-17094460D02*
X17370182Y-17046841D01*
X17370182Y-17046841D02*
X17370182Y-17008746D01*
X17370182Y-17008746D02*
X17360658Y-16961127D01*
X17360658Y-16961127D02*
X17351134Y-16932555D01*
X17351134Y-16932555D02*
X17341611Y-16913508D01*
X17341611Y-16913508D02*
X17322563Y-16884936D01*
X17322563Y-16884936D02*
X17313039Y-16875412D01*
D13*
X12237500Y-17221500D02*
X12347500Y-17331500D01*
X12347500Y-17221500D02*
X12237500Y-17331500D01*
X12292500Y-17221500D02*
X12292500Y-17331500D01*
X12237500Y-17276500D02*
X12347500Y-17276500D01*
D11*
X12713039Y-17367984D02*
X12598753Y-17367984D01*
X12655896Y-17367984D02*
X12655896Y-17167984D01*
X12655896Y-17167984D02*
X12636848Y-17196555D01*
X12636848Y-17196555D02*
X12617801Y-17215603D01*
X12617801Y-17215603D02*
X12598753Y-17225127D01*
X12798753Y-17348936D02*
X12808277Y-17358460D01*
X12808277Y-17358460D02*
X12798753Y-17367984D01*
X12798753Y-17367984D02*
X12789229Y-17358460D01*
X12789229Y-17358460D02*
X12798753Y-17348936D01*
X12798753Y-17348936D02*
X12798753Y-17367984D01*
X12998753Y-17367984D02*
X12884467Y-17367984D01*
X12941610Y-17367984D02*
X12941610Y-17167984D01*
X12941610Y-17167984D02*
X12922562Y-17196555D01*
X12922562Y-17196555D02*
X12903515Y-17215603D01*
X12903515Y-17215603D02*
X12884467Y-17225127D01*
X13122562Y-17167984D02*
X13141610Y-17167984D01*
X13141610Y-17167984D02*
X13160658Y-17177508D01*
X13160658Y-17177508D02*
X13170182Y-17187031D01*
X13170182Y-17187031D02*
X13179705Y-17206079D01*
X13179705Y-17206079D02*
X13189229Y-17244174D01*
X13189229Y-17244174D02*
X13189229Y-17291793D01*
X13189229Y-17291793D02*
X13179705Y-17329889D01*
X13179705Y-17329889D02*
X13170182Y-17348936D01*
X13170182Y-17348936D02*
X13160658Y-17358460D01*
X13160658Y-17358460D02*
X13141610Y-17367984D01*
X13141610Y-17367984D02*
X13122562Y-17367984D01*
X13122562Y-17367984D02*
X13103515Y-17358460D01*
X13103515Y-17358460D02*
X13093991Y-17348936D01*
X13093991Y-17348936D02*
X13084467Y-17329889D01*
X13084467Y-17329889D02*
X13074943Y-17291793D01*
X13074943Y-17291793D02*
X13074943Y-17244174D01*
X13074943Y-17244174D02*
X13084467Y-17206079D01*
X13084467Y-17206079D02*
X13093991Y-17187031D01*
X13093991Y-17187031D02*
X13103515Y-17177508D01*
X13103515Y-17177508D02*
X13122562Y-17167984D01*
X13313039Y-17167984D02*
X13332086Y-17167984D01*
X13332086Y-17167984D02*
X13351134Y-17177508D01*
X13351134Y-17177508D02*
X13360658Y-17187031D01*
X13360658Y-17187031D02*
X13370182Y-17206079D01*
X13370182Y-17206079D02*
X13379705Y-17244174D01*
X13379705Y-17244174D02*
X13379705Y-17291793D01*
X13379705Y-17291793D02*
X13370182Y-17329889D01*
X13370182Y-17329889D02*
X13360658Y-17348936D01*
X13360658Y-17348936D02*
X13351134Y-17358460D01*
X13351134Y-17358460D02*
X13332086Y-17367984D01*
X13332086Y-17367984D02*
X13313039Y-17367984D01*
X13313039Y-17367984D02*
X13293991Y-17358460D01*
X13293991Y-17358460D02*
X13284467Y-17348936D01*
X13284467Y-17348936D02*
X13274943Y-17329889D01*
X13274943Y-17329889D02*
X13265420Y-17291793D01*
X13265420Y-17291793D02*
X13265420Y-17244174D01*
X13265420Y-17244174D02*
X13274943Y-17206079D01*
X13274943Y-17206079D02*
X13284467Y-17187031D01*
X13284467Y-17187031D02*
X13293991Y-17177508D01*
X13293991Y-17177508D02*
X13313039Y-17167984D01*
X13465420Y-17367984D02*
X13465420Y-17234650D01*
X13465420Y-17253698D02*
X13474943Y-17244174D01*
X13474943Y-17244174D02*
X13493991Y-17234650D01*
X13493991Y-17234650D02*
X13522563Y-17234650D01*
X13522563Y-17234650D02*
X13541610Y-17244174D01*
X13541610Y-17244174D02*
X13551134Y-17263222D01*
X13551134Y-17263222D02*
X13551134Y-17367984D01*
X13551134Y-17263222D02*
X13560658Y-17244174D01*
X13560658Y-17244174D02*
X13579705Y-17234650D01*
X13579705Y-17234650D02*
X13608277Y-17234650D01*
X13608277Y-17234650D02*
X13627324Y-17244174D01*
X13627324Y-17244174D02*
X13636848Y-17263222D01*
X13636848Y-17263222D02*
X13636848Y-17367984D01*
X13732086Y-17367984D02*
X13732086Y-17234650D01*
X13732086Y-17253698D02*
X13741610Y-17244174D01*
X13741610Y-17244174D02*
X13760658Y-17234650D01*
X13760658Y-17234650D02*
X13789229Y-17234650D01*
X13789229Y-17234650D02*
X13808277Y-17244174D01*
X13808277Y-17244174D02*
X13817801Y-17263222D01*
X13817801Y-17263222D02*
X13817801Y-17367984D01*
X13817801Y-17263222D02*
X13827324Y-17244174D01*
X13827324Y-17244174D02*
X13846372Y-17234650D01*
X13846372Y-17234650D02*
X13874943Y-17234650D01*
X13874943Y-17234650D02*
X13893991Y-17244174D01*
X13893991Y-17244174D02*
X13903515Y-17263222D01*
X13903515Y-17263222D02*
X13903515Y-17367984D01*
X14293991Y-17158460D02*
X14122563Y-17415603D01*
X14551134Y-17167984D02*
X14570182Y-17167984D01*
X14570182Y-17167984D02*
X14589229Y-17177508D01*
X14589229Y-17177508D02*
X14598753Y-17187031D01*
X14598753Y-17187031D02*
X14608277Y-17206079D01*
X14608277Y-17206079D02*
X14617801Y-17244174D01*
X14617801Y-17244174D02*
X14617801Y-17291793D01*
X14617801Y-17291793D02*
X14608277Y-17329889D01*
X14608277Y-17329889D02*
X14598753Y-17348936D01*
X14598753Y-17348936D02*
X14589229Y-17358460D01*
X14589229Y-17358460D02*
X14570182Y-17367984D01*
X14570182Y-17367984D02*
X14551134Y-17367984D01*
X14551134Y-17367984D02*
X14532086Y-17358460D01*
X14532086Y-17358460D02*
X14522563Y-17348936D01*
X14522563Y-17348936D02*
X14513039Y-17329889D01*
X14513039Y-17329889D02*
X14503515Y-17291793D01*
X14503515Y-17291793D02*
X14503515Y-17244174D01*
X14503515Y-17244174D02*
X14513039Y-17206079D01*
X14513039Y-17206079D02*
X14522563Y-17187031D01*
X14522563Y-17187031D02*
X14532086Y-17177508D01*
X14532086Y-17177508D02*
X14551134Y-17167984D01*
X14703515Y-17348936D02*
X14713039Y-17358460D01*
X14713039Y-17358460D02*
X14703515Y-17367984D01*
X14703515Y-17367984D02*
X14693991Y-17358460D01*
X14693991Y-17358460D02*
X14703515Y-17348936D01*
X14703515Y-17348936D02*
X14703515Y-17367984D01*
X14836848Y-17167984D02*
X14855896Y-17167984D01*
X14855896Y-17167984D02*
X14874944Y-17177508D01*
X14874944Y-17177508D02*
X14884467Y-17187031D01*
X14884467Y-17187031D02*
X14893991Y-17206079D01*
X14893991Y-17206079D02*
X14903515Y-17244174D01*
X14903515Y-17244174D02*
X14903515Y-17291793D01*
X14903515Y-17291793D02*
X14893991Y-17329889D01*
X14893991Y-17329889D02*
X14884467Y-17348936D01*
X14884467Y-17348936D02*
X14874944Y-17358460D01*
X14874944Y-17358460D02*
X14855896Y-17367984D01*
X14855896Y-17367984D02*
X14836848Y-17367984D01*
X14836848Y-17367984D02*
X14817801Y-17358460D01*
X14817801Y-17358460D02*
X14808277Y-17348936D01*
X14808277Y-17348936D02*
X14798753Y-17329889D01*
X14798753Y-17329889D02*
X14789229Y-17291793D01*
X14789229Y-17291793D02*
X14789229Y-17244174D01*
X14789229Y-17244174D02*
X14798753Y-17206079D01*
X14798753Y-17206079D02*
X14808277Y-17187031D01*
X14808277Y-17187031D02*
X14817801Y-17177508D01*
X14817801Y-17177508D02*
X14836848Y-17167984D01*
X15074944Y-17234650D02*
X15074944Y-17367984D01*
X15027325Y-17158460D02*
X14979706Y-17301317D01*
X14979706Y-17301317D02*
X15103515Y-17301317D01*
X15160658Y-17167984D02*
X15284467Y-17167984D01*
X15284467Y-17167984D02*
X15217801Y-17244174D01*
X15217801Y-17244174D02*
X15246372Y-17244174D01*
X15246372Y-17244174D02*
X15265420Y-17253698D01*
X15265420Y-17253698D02*
X15274944Y-17263222D01*
X15274944Y-17263222D02*
X15284467Y-17282270D01*
X15284467Y-17282270D02*
X15284467Y-17329889D01*
X15284467Y-17329889D02*
X15274944Y-17348936D01*
X15274944Y-17348936D02*
X15265420Y-17358460D01*
X15265420Y-17358460D02*
X15246372Y-17367984D01*
X15246372Y-17367984D02*
X15189229Y-17367984D01*
X15189229Y-17367984D02*
X15170182Y-17358460D01*
X15170182Y-17358460D02*
X15160658Y-17348936D01*
X15351134Y-17167984D02*
X15474944Y-17167984D01*
X15474944Y-17167984D02*
X15408277Y-17244174D01*
X15408277Y-17244174D02*
X15436848Y-17244174D01*
X15436848Y-17244174D02*
X15455896Y-17253698D01*
X15455896Y-17253698D02*
X15465420Y-17263222D01*
X15465420Y-17263222D02*
X15474944Y-17282270D01*
X15474944Y-17282270D02*
X15474944Y-17329889D01*
X15474944Y-17329889D02*
X15465420Y-17348936D01*
X15465420Y-17348936D02*
X15455896Y-17358460D01*
X15455896Y-17358460D02*
X15436848Y-17367984D01*
X15436848Y-17367984D02*
X15379706Y-17367984D01*
X15379706Y-17367984D02*
X15360658Y-17358460D01*
X15360658Y-17358460D02*
X15351134Y-17348936D01*
X15551134Y-17167984D02*
X15551134Y-17206079D01*
X15627325Y-17167984D02*
X15627325Y-17206079D01*
X15922563Y-17444174D02*
X15913039Y-17434650D01*
X15913039Y-17434650D02*
X15893991Y-17406079D01*
X15893991Y-17406079D02*
X15884468Y-17387031D01*
X15884468Y-17387031D02*
X15874944Y-17358460D01*
X15874944Y-17358460D02*
X15865420Y-17310841D01*
X15865420Y-17310841D02*
X15865420Y-17272746D01*
X15865420Y-17272746D02*
X15874944Y-17225127D01*
X15874944Y-17225127D02*
X15884468Y-17196555D01*
X15884468Y-17196555D02*
X15893991Y-17177508D01*
X15893991Y-17177508D02*
X15913039Y-17148936D01*
X15913039Y-17148936D02*
X15922563Y-17139412D01*
X15979706Y-17167984D02*
X16103515Y-17167984D01*
X16103515Y-17167984D02*
X16036848Y-17244174D01*
X16036848Y-17244174D02*
X16065420Y-17244174D01*
X16065420Y-17244174D02*
X16084468Y-17253698D01*
X16084468Y-17253698D02*
X16093991Y-17263222D01*
X16093991Y-17263222D02*
X16103515Y-17282270D01*
X16103515Y-17282270D02*
X16103515Y-17329889D01*
X16103515Y-17329889D02*
X16093991Y-17348936D01*
X16093991Y-17348936D02*
X16084468Y-17358460D01*
X16084468Y-17358460D02*
X16065420Y-17367984D01*
X16065420Y-17367984D02*
X16008277Y-17367984D01*
X16008277Y-17367984D02*
X15989229Y-17358460D01*
X15989229Y-17358460D02*
X15979706Y-17348936D01*
X16341610Y-17367984D02*
X16341610Y-17167984D01*
X16427325Y-17367984D02*
X16427325Y-17263222D01*
X16427325Y-17263222D02*
X16417801Y-17244174D01*
X16417801Y-17244174D02*
X16398753Y-17234650D01*
X16398753Y-17234650D02*
X16370182Y-17234650D01*
X16370182Y-17234650D02*
X16351134Y-17244174D01*
X16351134Y-17244174D02*
X16341610Y-17253698D01*
X16551134Y-17367984D02*
X16532087Y-17358460D01*
X16532087Y-17358460D02*
X16522563Y-17348936D01*
X16522563Y-17348936D02*
X16513039Y-17329889D01*
X16513039Y-17329889D02*
X16513039Y-17272746D01*
X16513039Y-17272746D02*
X16522563Y-17253698D01*
X16522563Y-17253698D02*
X16532087Y-17244174D01*
X16532087Y-17244174D02*
X16551134Y-17234650D01*
X16551134Y-17234650D02*
X16579706Y-17234650D01*
X16579706Y-17234650D02*
X16598753Y-17244174D01*
X16598753Y-17244174D02*
X16608277Y-17253698D01*
X16608277Y-17253698D02*
X16617801Y-17272746D01*
X16617801Y-17272746D02*
X16617801Y-17329889D01*
X16617801Y-17329889D02*
X16608277Y-17348936D01*
X16608277Y-17348936D02*
X16598753Y-17358460D01*
X16598753Y-17358460D02*
X16579706Y-17367984D01*
X16579706Y-17367984D02*
X16551134Y-17367984D01*
X16732087Y-17367984D02*
X16713039Y-17358460D01*
X16713039Y-17358460D02*
X16703515Y-17339412D01*
X16703515Y-17339412D02*
X16703515Y-17167984D01*
X16884468Y-17358460D02*
X16865420Y-17367984D01*
X16865420Y-17367984D02*
X16827325Y-17367984D01*
X16827325Y-17367984D02*
X16808277Y-17358460D01*
X16808277Y-17358460D02*
X16798753Y-17339412D01*
X16798753Y-17339412D02*
X16798753Y-17263222D01*
X16798753Y-17263222D02*
X16808277Y-17244174D01*
X16808277Y-17244174D02*
X16827325Y-17234650D01*
X16827325Y-17234650D02*
X16865420Y-17234650D01*
X16865420Y-17234650D02*
X16884468Y-17244174D01*
X16884468Y-17244174D02*
X16893992Y-17263222D01*
X16893992Y-17263222D02*
X16893992Y-17282270D01*
X16893992Y-17282270D02*
X16798753Y-17301317D01*
X16970182Y-17358460D02*
X16989230Y-17367984D01*
X16989230Y-17367984D02*
X17027325Y-17367984D01*
X17027325Y-17367984D02*
X17046373Y-17358460D01*
X17046373Y-17358460D02*
X17055896Y-17339412D01*
X17055896Y-17339412D02*
X17055896Y-17329889D01*
X17055896Y-17329889D02*
X17046373Y-17310841D01*
X17046373Y-17310841D02*
X17027325Y-17301317D01*
X17027325Y-17301317D02*
X16998753Y-17301317D01*
X16998753Y-17301317D02*
X16979706Y-17291793D01*
X16979706Y-17291793D02*
X16970182Y-17272746D01*
X16970182Y-17272746D02*
X16970182Y-17263222D01*
X16970182Y-17263222D02*
X16979706Y-17244174D01*
X16979706Y-17244174D02*
X16998753Y-17234650D01*
X16998753Y-17234650D02*
X17027325Y-17234650D01*
X17027325Y-17234650D02*
X17046373Y-17244174D01*
X17122563Y-17444174D02*
X17132087Y-17434650D01*
X17132087Y-17434650D02*
X17151134Y-17406079D01*
X17151134Y-17406079D02*
X17160658Y-17387031D01*
X17160658Y-17387031D02*
X17170182Y-17358460D01*
X17170182Y-17358460D02*
X17179706Y-17310841D01*
X17179706Y-17310841D02*
X17179706Y-17272746D01*
X17179706Y-17272746D02*
X17170182Y-17225127D01*
X17170182Y-17225127D02*
X17160658Y-17196555D01*
X17160658Y-17196555D02*
X17151134Y-17177508D01*
X17151134Y-17177508D02*
X17132087Y-17148936D01*
X17132087Y-17148936D02*
X17122563Y-17139412D01*
D14*
X12217500Y-17475500D02*
X12347500Y-17605500D01*
X12347500Y-17475500D02*
X12217500Y-17605500D01*
X12328462Y-17586462D02*
X12328462Y-17494538D01*
X12236538Y-17494538D01*
X12236538Y-17586462D01*
X12328462Y-17586462D01*
D11*
X12713039Y-17631984D02*
X12598753Y-17631984D01*
X12655896Y-17631984D02*
X12655896Y-17431984D01*
X12655896Y-17431984D02*
X12636848Y-17460555D01*
X12636848Y-17460555D02*
X12617801Y-17479603D01*
X12617801Y-17479603D02*
X12598753Y-17489127D01*
X12798753Y-17612936D02*
X12808277Y-17622460D01*
X12808277Y-17622460D02*
X12798753Y-17631984D01*
X12798753Y-17631984D02*
X12789229Y-17622460D01*
X12789229Y-17622460D02*
X12798753Y-17612936D01*
X12798753Y-17612936D02*
X12798753Y-17631984D01*
X12874943Y-17431984D02*
X12998753Y-17431984D01*
X12998753Y-17431984D02*
X12932086Y-17508174D01*
X12932086Y-17508174D02*
X12960658Y-17508174D01*
X12960658Y-17508174D02*
X12979705Y-17517698D01*
X12979705Y-17517698D02*
X12989229Y-17527222D01*
X12989229Y-17527222D02*
X12998753Y-17546270D01*
X12998753Y-17546270D02*
X12998753Y-17593889D01*
X12998753Y-17593889D02*
X12989229Y-17612936D01*
X12989229Y-17612936D02*
X12979705Y-17622460D01*
X12979705Y-17622460D02*
X12960658Y-17631984D01*
X12960658Y-17631984D02*
X12903515Y-17631984D01*
X12903515Y-17631984D02*
X12884467Y-17622460D01*
X12884467Y-17622460D02*
X12874943Y-17612936D01*
X13122562Y-17431984D02*
X13141610Y-17431984D01*
X13141610Y-17431984D02*
X13160658Y-17441508D01*
X13160658Y-17441508D02*
X13170182Y-17451031D01*
X13170182Y-17451031D02*
X13179705Y-17470079D01*
X13179705Y-17470079D02*
X13189229Y-17508174D01*
X13189229Y-17508174D02*
X13189229Y-17555793D01*
X13189229Y-17555793D02*
X13179705Y-17593889D01*
X13179705Y-17593889D02*
X13170182Y-17612936D01*
X13170182Y-17612936D02*
X13160658Y-17622460D01*
X13160658Y-17622460D02*
X13141610Y-17631984D01*
X13141610Y-17631984D02*
X13122562Y-17631984D01*
X13122562Y-17631984D02*
X13103515Y-17622460D01*
X13103515Y-17622460D02*
X13093991Y-17612936D01*
X13093991Y-17612936D02*
X13084467Y-17593889D01*
X13084467Y-17593889D02*
X13074943Y-17555793D01*
X13074943Y-17555793D02*
X13074943Y-17508174D01*
X13074943Y-17508174D02*
X13084467Y-17470079D01*
X13084467Y-17470079D02*
X13093991Y-17451031D01*
X13093991Y-17451031D02*
X13103515Y-17441508D01*
X13103515Y-17441508D02*
X13122562Y-17431984D01*
X13313039Y-17431984D02*
X13332086Y-17431984D01*
X13332086Y-17431984D02*
X13351134Y-17441508D01*
X13351134Y-17441508D02*
X13360658Y-17451031D01*
X13360658Y-17451031D02*
X13370182Y-17470079D01*
X13370182Y-17470079D02*
X13379705Y-17508174D01*
X13379705Y-17508174D02*
X13379705Y-17555793D01*
X13379705Y-17555793D02*
X13370182Y-17593889D01*
X13370182Y-17593889D02*
X13360658Y-17612936D01*
X13360658Y-17612936D02*
X13351134Y-17622460D01*
X13351134Y-17622460D02*
X13332086Y-17631984D01*
X13332086Y-17631984D02*
X13313039Y-17631984D01*
X13313039Y-17631984D02*
X13293991Y-17622460D01*
X13293991Y-17622460D02*
X13284467Y-17612936D01*
X13284467Y-17612936D02*
X13274943Y-17593889D01*
X13274943Y-17593889D02*
X13265420Y-17555793D01*
X13265420Y-17555793D02*
X13265420Y-17508174D01*
X13265420Y-17508174D02*
X13274943Y-17470079D01*
X13274943Y-17470079D02*
X13284467Y-17451031D01*
X13284467Y-17451031D02*
X13293991Y-17441508D01*
X13293991Y-17441508D02*
X13313039Y-17431984D01*
X13465420Y-17631984D02*
X13465420Y-17498650D01*
X13465420Y-17517698D02*
X13474943Y-17508174D01*
X13474943Y-17508174D02*
X13493991Y-17498650D01*
X13493991Y-17498650D02*
X13522563Y-17498650D01*
X13522563Y-17498650D02*
X13541610Y-17508174D01*
X13541610Y-17508174D02*
X13551134Y-17527222D01*
X13551134Y-17527222D02*
X13551134Y-17631984D01*
X13551134Y-17527222D02*
X13560658Y-17508174D01*
X13560658Y-17508174D02*
X13579705Y-17498650D01*
X13579705Y-17498650D02*
X13608277Y-17498650D01*
X13608277Y-17498650D02*
X13627324Y-17508174D01*
X13627324Y-17508174D02*
X13636848Y-17527222D01*
X13636848Y-17527222D02*
X13636848Y-17631984D01*
X13732086Y-17631984D02*
X13732086Y-17498650D01*
X13732086Y-17517698D02*
X13741610Y-17508174D01*
X13741610Y-17508174D02*
X13760658Y-17498650D01*
X13760658Y-17498650D02*
X13789229Y-17498650D01*
X13789229Y-17498650D02*
X13808277Y-17508174D01*
X13808277Y-17508174D02*
X13817801Y-17527222D01*
X13817801Y-17527222D02*
X13817801Y-17631984D01*
X13817801Y-17527222D02*
X13827324Y-17508174D01*
X13827324Y-17508174D02*
X13846372Y-17498650D01*
X13846372Y-17498650D02*
X13874943Y-17498650D01*
X13874943Y-17498650D02*
X13893991Y-17508174D01*
X13893991Y-17508174D02*
X13903515Y-17527222D01*
X13903515Y-17527222D02*
X13903515Y-17631984D01*
X14293991Y-17422460D02*
X14122563Y-17679603D01*
X14551134Y-17431984D02*
X14570182Y-17431984D01*
X14570182Y-17431984D02*
X14589229Y-17441508D01*
X14589229Y-17441508D02*
X14598753Y-17451031D01*
X14598753Y-17451031D02*
X14608277Y-17470079D01*
X14608277Y-17470079D02*
X14617801Y-17508174D01*
X14617801Y-17508174D02*
X14617801Y-17555793D01*
X14617801Y-17555793D02*
X14608277Y-17593889D01*
X14608277Y-17593889D02*
X14598753Y-17612936D01*
X14598753Y-17612936D02*
X14589229Y-17622460D01*
X14589229Y-17622460D02*
X14570182Y-17631984D01*
X14570182Y-17631984D02*
X14551134Y-17631984D01*
X14551134Y-17631984D02*
X14532086Y-17622460D01*
X14532086Y-17622460D02*
X14522563Y-17612936D01*
X14522563Y-17612936D02*
X14513039Y-17593889D01*
X14513039Y-17593889D02*
X14503515Y-17555793D01*
X14503515Y-17555793D02*
X14503515Y-17508174D01*
X14503515Y-17508174D02*
X14513039Y-17470079D01*
X14513039Y-17470079D02*
X14522563Y-17451031D01*
X14522563Y-17451031D02*
X14532086Y-17441508D01*
X14532086Y-17441508D02*
X14551134Y-17431984D01*
X14703515Y-17612936D02*
X14713039Y-17622460D01*
X14713039Y-17622460D02*
X14703515Y-17631984D01*
X14703515Y-17631984D02*
X14693991Y-17622460D01*
X14693991Y-17622460D02*
X14703515Y-17612936D01*
X14703515Y-17612936D02*
X14703515Y-17631984D01*
X14836848Y-17431984D02*
X14855896Y-17431984D01*
X14855896Y-17431984D02*
X14874944Y-17441508D01*
X14874944Y-17441508D02*
X14884467Y-17451031D01*
X14884467Y-17451031D02*
X14893991Y-17470079D01*
X14893991Y-17470079D02*
X14903515Y-17508174D01*
X14903515Y-17508174D02*
X14903515Y-17555793D01*
X14903515Y-17555793D02*
X14893991Y-17593889D01*
X14893991Y-17593889D02*
X14884467Y-17612936D01*
X14884467Y-17612936D02*
X14874944Y-17622460D01*
X14874944Y-17622460D02*
X14855896Y-17631984D01*
X14855896Y-17631984D02*
X14836848Y-17631984D01*
X14836848Y-17631984D02*
X14817801Y-17622460D01*
X14817801Y-17622460D02*
X14808277Y-17612936D01*
X14808277Y-17612936D02*
X14798753Y-17593889D01*
X14798753Y-17593889D02*
X14789229Y-17555793D01*
X14789229Y-17555793D02*
X14789229Y-17508174D01*
X14789229Y-17508174D02*
X14798753Y-17470079D01*
X14798753Y-17470079D02*
X14808277Y-17451031D01*
X14808277Y-17451031D02*
X14817801Y-17441508D01*
X14817801Y-17441508D02*
X14836848Y-17431984D01*
X15084467Y-17431984D02*
X14989229Y-17431984D01*
X14989229Y-17431984D02*
X14979706Y-17527222D01*
X14979706Y-17527222D02*
X14989229Y-17517698D01*
X14989229Y-17517698D02*
X15008277Y-17508174D01*
X15008277Y-17508174D02*
X15055896Y-17508174D01*
X15055896Y-17508174D02*
X15074944Y-17517698D01*
X15074944Y-17517698D02*
X15084467Y-17527222D01*
X15084467Y-17527222D02*
X15093991Y-17546270D01*
X15093991Y-17546270D02*
X15093991Y-17593889D01*
X15093991Y-17593889D02*
X15084467Y-17612936D01*
X15084467Y-17612936D02*
X15074944Y-17622460D01*
X15074944Y-17622460D02*
X15055896Y-17631984D01*
X15055896Y-17631984D02*
X15008277Y-17631984D01*
X15008277Y-17631984D02*
X14989229Y-17622460D01*
X14989229Y-17622460D02*
X14979706Y-17612936D01*
X15284467Y-17631984D02*
X15170182Y-17631984D01*
X15227325Y-17631984D02*
X15227325Y-17431984D01*
X15227325Y-17431984D02*
X15208277Y-17460555D01*
X15208277Y-17460555D02*
X15189229Y-17479603D01*
X15189229Y-17479603D02*
X15170182Y-17489127D01*
X15360658Y-17451031D02*
X15370182Y-17441508D01*
X15370182Y-17441508D02*
X15389229Y-17431984D01*
X15389229Y-17431984D02*
X15436848Y-17431984D01*
X15436848Y-17431984D02*
X15455896Y-17441508D01*
X15455896Y-17441508D02*
X15465420Y-17451031D01*
X15465420Y-17451031D02*
X15474944Y-17470079D01*
X15474944Y-17470079D02*
X15474944Y-17489127D01*
X15474944Y-17489127D02*
X15465420Y-17517698D01*
X15465420Y-17517698D02*
X15351134Y-17631984D01*
X15351134Y-17631984D02*
X15474944Y-17631984D01*
X15551134Y-17431984D02*
X15551134Y-17470079D01*
X15627325Y-17431984D02*
X15627325Y-17470079D01*
X15922563Y-17708174D02*
X15913039Y-17698650D01*
X15913039Y-17698650D02*
X15893991Y-17670079D01*
X15893991Y-17670079D02*
X15884468Y-17651031D01*
X15884468Y-17651031D02*
X15874944Y-17622460D01*
X15874944Y-17622460D02*
X15865420Y-17574841D01*
X15865420Y-17574841D02*
X15865420Y-17536746D01*
X15865420Y-17536746D02*
X15874944Y-17489127D01*
X15874944Y-17489127D02*
X15884468Y-17460555D01*
X15884468Y-17460555D02*
X15893991Y-17441508D01*
X15893991Y-17441508D02*
X15913039Y-17412936D01*
X15913039Y-17412936D02*
X15922563Y-17403412D01*
X15989229Y-17451031D02*
X15998753Y-17441508D01*
X15998753Y-17441508D02*
X16017801Y-17431984D01*
X16017801Y-17431984D02*
X16065420Y-17431984D01*
X16065420Y-17431984D02*
X16084468Y-17441508D01*
X16084468Y-17441508D02*
X16093991Y-17451031D01*
X16093991Y-17451031D02*
X16103515Y-17470079D01*
X16103515Y-17470079D02*
X16103515Y-17489127D01*
X16103515Y-17489127D02*
X16093991Y-17517698D01*
X16093991Y-17517698D02*
X15979706Y-17631984D01*
X15979706Y-17631984D02*
X16103515Y-17631984D01*
X16341610Y-17631984D02*
X16341610Y-17431984D01*
X16427325Y-17631984D02*
X16427325Y-17527222D01*
X16427325Y-17527222D02*
X16417801Y-17508174D01*
X16417801Y-17508174D02*
X16398753Y-17498650D01*
X16398753Y-17498650D02*
X16370182Y-17498650D01*
X16370182Y-17498650D02*
X16351134Y-17508174D01*
X16351134Y-17508174D02*
X16341610Y-17517698D01*
X16551134Y-17631984D02*
X16532087Y-17622460D01*
X16532087Y-17622460D02*
X16522563Y-17612936D01*
X16522563Y-17612936D02*
X16513039Y-17593889D01*
X16513039Y-17593889D02*
X16513039Y-17536746D01*
X16513039Y-17536746D02*
X16522563Y-17517698D01*
X16522563Y-17517698D02*
X16532087Y-17508174D01*
X16532087Y-17508174D02*
X16551134Y-17498650D01*
X16551134Y-17498650D02*
X16579706Y-17498650D01*
X16579706Y-17498650D02*
X16598753Y-17508174D01*
X16598753Y-17508174D02*
X16608277Y-17517698D01*
X16608277Y-17517698D02*
X16617801Y-17536746D01*
X16617801Y-17536746D02*
X16617801Y-17593889D01*
X16617801Y-17593889D02*
X16608277Y-17612936D01*
X16608277Y-17612936D02*
X16598753Y-17622460D01*
X16598753Y-17622460D02*
X16579706Y-17631984D01*
X16579706Y-17631984D02*
X16551134Y-17631984D01*
X16732087Y-17631984D02*
X16713039Y-17622460D01*
X16713039Y-17622460D02*
X16703515Y-17603412D01*
X16703515Y-17603412D02*
X16703515Y-17431984D01*
X16884468Y-17622460D02*
X16865420Y-17631984D01*
X16865420Y-17631984D02*
X16827325Y-17631984D01*
X16827325Y-17631984D02*
X16808277Y-17622460D01*
X16808277Y-17622460D02*
X16798753Y-17603412D01*
X16798753Y-17603412D02*
X16798753Y-17527222D01*
X16798753Y-17527222D02*
X16808277Y-17508174D01*
X16808277Y-17508174D02*
X16827325Y-17498650D01*
X16827325Y-17498650D02*
X16865420Y-17498650D01*
X16865420Y-17498650D02*
X16884468Y-17508174D01*
X16884468Y-17508174D02*
X16893992Y-17527222D01*
X16893992Y-17527222D02*
X16893992Y-17546270D01*
X16893992Y-17546270D02*
X16798753Y-17565317D01*
X16970182Y-17622460D02*
X16989230Y-17631984D01*
X16989230Y-17631984D02*
X17027325Y-17631984D01*
X17027325Y-17631984D02*
X17046373Y-17622460D01*
X17046373Y-17622460D02*
X17055896Y-17603412D01*
X17055896Y-17603412D02*
X17055896Y-17593889D01*
X17055896Y-17593889D02*
X17046373Y-17574841D01*
X17046373Y-17574841D02*
X17027325Y-17565317D01*
X17027325Y-17565317D02*
X16998753Y-17565317D01*
X16998753Y-17565317D02*
X16979706Y-17555793D01*
X16979706Y-17555793D02*
X16970182Y-17536746D01*
X16970182Y-17536746D02*
X16970182Y-17527222D01*
X16970182Y-17527222D02*
X16979706Y-17508174D01*
X16979706Y-17508174D02*
X16998753Y-17498650D01*
X16998753Y-17498650D02*
X17027325Y-17498650D01*
X17027325Y-17498650D02*
X17046373Y-17508174D01*
X17122563Y-17708174D02*
X17132087Y-17698650D01*
X17132087Y-17698650D02*
X17151134Y-17670079D01*
X17151134Y-17670079D02*
X17160658Y-17651031D01*
X17160658Y-17651031D02*
X17170182Y-17622460D01*
X17170182Y-17622460D02*
X17179706Y-17574841D01*
X17179706Y-17574841D02*
X17179706Y-17536746D01*
X17179706Y-17536746D02*
X17170182Y-17489127D01*
X17170182Y-17489127D02*
X17160658Y-17460555D01*
X17160658Y-17460555D02*
X17151134Y-17441508D01*
X17151134Y-17441508D02*
X17132087Y-17412936D01*
X17132087Y-17412936D02*
X17122563Y-17403412D01*
M02*
