%TF.GenerationSoftware,KiCad,Pcbnew,8.0.0*%
%TF.CreationDate,2024-11-06T21:56:21+01:00*%
%TF.ProjectId,Coincidence_board,436f696e-6369-4646-956e-63655f626f61,rev?*%
%TF.SameCoordinates,Original*%
%TF.FileFunction,Drillmap*%
%TF.FilePolarity,Positive*%
%FSLAX45Y45*%
G04 Gerber Fmt 4.5, Leading zero omitted, Abs format (unit mm)*
G04 Created by KiCad (PCBNEW 8.0.0) date 2024-11-06 21:56:21*
%MOMM*%
%LPD*%
G01*
G04 APERTURE LIST*
%ADD10C,0.050000*%
%ADD11C,0.200000*%
%ADD12C,0.320000*%
G04 APERTURE END LIST*
D10*
X12350000Y-6545000D02*
X26030000Y-6545000D01*
X26030000Y-15050000D01*
X12350000Y-15050000D01*
X12350000Y-6545000D01*
D11*
D12*
X12740000Y-8580000D02*
X13060000Y-8900000D01*
X13060000Y-8580000D02*
X12740000Y-8900000D01*
X21480000Y-14400000D02*
X21800000Y-14720000D01*
X21800000Y-14400000D02*
X21480000Y-14720000D01*
X21890000Y-6960000D02*
X22210000Y-7280000D01*
X22210000Y-6960000D02*
X21890000Y-7280000D01*
D11*
X12608277Y-15363984D02*
X12608277Y-15163984D01*
X12608277Y-15163984D02*
X12655896Y-15163984D01*
X12655896Y-15163984D02*
X12684467Y-15173508D01*
X12684467Y-15173508D02*
X12703515Y-15192555D01*
X12703515Y-15192555D02*
X12713039Y-15211603D01*
X12713039Y-15211603D02*
X12722562Y-15249698D01*
X12722562Y-15249698D02*
X12722562Y-15278269D01*
X12722562Y-15278269D02*
X12713039Y-15316365D01*
X12713039Y-15316365D02*
X12703515Y-15335412D01*
X12703515Y-15335412D02*
X12684467Y-15354460D01*
X12684467Y-15354460D02*
X12655896Y-15363984D01*
X12655896Y-15363984D02*
X12608277Y-15363984D01*
X12808277Y-15363984D02*
X12808277Y-15230650D01*
X12808277Y-15268746D02*
X12817801Y-15249698D01*
X12817801Y-15249698D02*
X12827324Y-15240174D01*
X12827324Y-15240174D02*
X12846372Y-15230650D01*
X12846372Y-15230650D02*
X12865420Y-15230650D01*
X12932086Y-15363984D02*
X12932086Y-15230650D01*
X12932086Y-15163984D02*
X12922562Y-15173508D01*
X12922562Y-15173508D02*
X12932086Y-15183031D01*
X12932086Y-15183031D02*
X12941610Y-15173508D01*
X12941610Y-15173508D02*
X12932086Y-15163984D01*
X12932086Y-15163984D02*
X12932086Y-15183031D01*
X13055896Y-15363984D02*
X13036848Y-15354460D01*
X13036848Y-15354460D02*
X13027324Y-15335412D01*
X13027324Y-15335412D02*
X13027324Y-15163984D01*
X13160658Y-15363984D02*
X13141610Y-15354460D01*
X13141610Y-15354460D02*
X13132086Y-15335412D01*
X13132086Y-15335412D02*
X13132086Y-15163984D01*
X13389229Y-15363984D02*
X13389229Y-15163984D01*
X13389229Y-15163984D02*
X13455896Y-15306841D01*
X13455896Y-15306841D02*
X13522562Y-15163984D01*
X13522562Y-15163984D02*
X13522562Y-15363984D01*
X13703515Y-15363984D02*
X13703515Y-15259222D01*
X13703515Y-15259222D02*
X13693991Y-15240174D01*
X13693991Y-15240174D02*
X13674943Y-15230650D01*
X13674943Y-15230650D02*
X13636848Y-15230650D01*
X13636848Y-15230650D02*
X13617801Y-15240174D01*
X13703515Y-15354460D02*
X13684467Y-15363984D01*
X13684467Y-15363984D02*
X13636848Y-15363984D01*
X13636848Y-15363984D02*
X13617801Y-15354460D01*
X13617801Y-15354460D02*
X13608277Y-15335412D01*
X13608277Y-15335412D02*
X13608277Y-15316365D01*
X13608277Y-15316365D02*
X13617801Y-15297317D01*
X13617801Y-15297317D02*
X13636848Y-15287793D01*
X13636848Y-15287793D02*
X13684467Y-15287793D01*
X13684467Y-15287793D02*
X13703515Y-15278269D01*
X13798753Y-15230650D02*
X13798753Y-15430650D01*
X13798753Y-15240174D02*
X13817801Y-15230650D01*
X13817801Y-15230650D02*
X13855896Y-15230650D01*
X13855896Y-15230650D02*
X13874943Y-15240174D01*
X13874943Y-15240174D02*
X13884467Y-15249698D01*
X13884467Y-15249698D02*
X13893991Y-15268746D01*
X13893991Y-15268746D02*
X13893991Y-15325888D01*
X13893991Y-15325888D02*
X13884467Y-15344936D01*
X13884467Y-15344936D02*
X13874943Y-15354460D01*
X13874943Y-15354460D02*
X13855896Y-15363984D01*
X13855896Y-15363984D02*
X13817801Y-15363984D01*
X13817801Y-15363984D02*
X13798753Y-15354460D01*
X13979705Y-15344936D02*
X13989229Y-15354460D01*
X13989229Y-15354460D02*
X13979705Y-15363984D01*
X13979705Y-15363984D02*
X13970182Y-15354460D01*
X13970182Y-15354460D02*
X13979705Y-15344936D01*
X13979705Y-15344936D02*
X13979705Y-15363984D01*
X13979705Y-15240174D02*
X13989229Y-15249698D01*
X13989229Y-15249698D02*
X13979705Y-15259222D01*
X13979705Y-15259222D02*
X13970182Y-15249698D01*
X13970182Y-15249698D02*
X13979705Y-15240174D01*
X13979705Y-15240174D02*
X13979705Y-15259222D01*
X12147500Y-15592500D02*
X12347500Y-15792500D01*
X12347500Y-15592500D02*
X12147500Y-15792500D01*
X12589229Y-15583984D02*
X12713039Y-15583984D01*
X12713039Y-15583984D02*
X12646372Y-15660174D01*
X12646372Y-15660174D02*
X12674943Y-15660174D01*
X12674943Y-15660174D02*
X12693991Y-15669698D01*
X12693991Y-15669698D02*
X12703515Y-15679222D01*
X12703515Y-15679222D02*
X12713039Y-15698269D01*
X12713039Y-15698269D02*
X12713039Y-15745888D01*
X12713039Y-15745888D02*
X12703515Y-15764936D01*
X12703515Y-15764936D02*
X12693991Y-15774460D01*
X12693991Y-15774460D02*
X12674943Y-15783984D01*
X12674943Y-15783984D02*
X12617801Y-15783984D01*
X12617801Y-15783984D02*
X12598753Y-15774460D01*
X12598753Y-15774460D02*
X12589229Y-15764936D01*
X12798753Y-15764936D02*
X12808277Y-15774460D01*
X12808277Y-15774460D02*
X12798753Y-15783984D01*
X12798753Y-15783984D02*
X12789229Y-15774460D01*
X12789229Y-15774460D02*
X12798753Y-15764936D01*
X12798753Y-15764936D02*
X12798753Y-15783984D01*
X12884467Y-15603031D02*
X12893991Y-15593508D01*
X12893991Y-15593508D02*
X12913039Y-15583984D01*
X12913039Y-15583984D02*
X12960658Y-15583984D01*
X12960658Y-15583984D02*
X12979705Y-15593508D01*
X12979705Y-15593508D02*
X12989229Y-15603031D01*
X12989229Y-15603031D02*
X12998753Y-15622079D01*
X12998753Y-15622079D02*
X12998753Y-15641127D01*
X12998753Y-15641127D02*
X12989229Y-15669698D01*
X12989229Y-15669698D02*
X12874943Y-15783984D01*
X12874943Y-15783984D02*
X12998753Y-15783984D01*
X13122562Y-15583984D02*
X13141610Y-15583984D01*
X13141610Y-15583984D02*
X13160658Y-15593508D01*
X13160658Y-15593508D02*
X13170182Y-15603031D01*
X13170182Y-15603031D02*
X13179705Y-15622079D01*
X13179705Y-15622079D02*
X13189229Y-15660174D01*
X13189229Y-15660174D02*
X13189229Y-15707793D01*
X13189229Y-15707793D02*
X13179705Y-15745888D01*
X13179705Y-15745888D02*
X13170182Y-15764936D01*
X13170182Y-15764936D02*
X13160658Y-15774460D01*
X13160658Y-15774460D02*
X13141610Y-15783984D01*
X13141610Y-15783984D02*
X13122562Y-15783984D01*
X13122562Y-15783984D02*
X13103515Y-15774460D01*
X13103515Y-15774460D02*
X13093991Y-15764936D01*
X13093991Y-15764936D02*
X13084467Y-15745888D01*
X13084467Y-15745888D02*
X13074943Y-15707793D01*
X13074943Y-15707793D02*
X13074943Y-15660174D01*
X13074943Y-15660174D02*
X13084467Y-15622079D01*
X13084467Y-15622079D02*
X13093991Y-15603031D01*
X13093991Y-15603031D02*
X13103515Y-15593508D01*
X13103515Y-15593508D02*
X13122562Y-15583984D01*
X13313039Y-15583984D02*
X13332086Y-15583984D01*
X13332086Y-15583984D02*
X13351134Y-15593508D01*
X13351134Y-15593508D02*
X13360658Y-15603031D01*
X13360658Y-15603031D02*
X13370182Y-15622079D01*
X13370182Y-15622079D02*
X13379705Y-15660174D01*
X13379705Y-15660174D02*
X13379705Y-15707793D01*
X13379705Y-15707793D02*
X13370182Y-15745888D01*
X13370182Y-15745888D02*
X13360658Y-15764936D01*
X13360658Y-15764936D02*
X13351134Y-15774460D01*
X13351134Y-15774460D02*
X13332086Y-15783984D01*
X13332086Y-15783984D02*
X13313039Y-15783984D01*
X13313039Y-15783984D02*
X13293991Y-15774460D01*
X13293991Y-15774460D02*
X13284467Y-15764936D01*
X13284467Y-15764936D02*
X13274943Y-15745888D01*
X13274943Y-15745888D02*
X13265420Y-15707793D01*
X13265420Y-15707793D02*
X13265420Y-15660174D01*
X13265420Y-15660174D02*
X13274943Y-15622079D01*
X13274943Y-15622079D02*
X13284467Y-15603031D01*
X13284467Y-15603031D02*
X13293991Y-15593508D01*
X13293991Y-15593508D02*
X13313039Y-15583984D01*
X13465420Y-15783984D02*
X13465420Y-15650650D01*
X13465420Y-15669698D02*
X13474943Y-15660174D01*
X13474943Y-15660174D02*
X13493991Y-15650650D01*
X13493991Y-15650650D02*
X13522563Y-15650650D01*
X13522563Y-15650650D02*
X13541610Y-15660174D01*
X13541610Y-15660174D02*
X13551134Y-15679222D01*
X13551134Y-15679222D02*
X13551134Y-15783984D01*
X13551134Y-15679222D02*
X13560658Y-15660174D01*
X13560658Y-15660174D02*
X13579705Y-15650650D01*
X13579705Y-15650650D02*
X13608277Y-15650650D01*
X13608277Y-15650650D02*
X13627324Y-15660174D01*
X13627324Y-15660174D02*
X13636848Y-15679222D01*
X13636848Y-15679222D02*
X13636848Y-15783984D01*
X13732086Y-15783984D02*
X13732086Y-15650650D01*
X13732086Y-15669698D02*
X13741610Y-15660174D01*
X13741610Y-15660174D02*
X13760658Y-15650650D01*
X13760658Y-15650650D02*
X13789229Y-15650650D01*
X13789229Y-15650650D02*
X13808277Y-15660174D01*
X13808277Y-15660174D02*
X13817801Y-15679222D01*
X13817801Y-15679222D02*
X13817801Y-15783984D01*
X13817801Y-15679222D02*
X13827324Y-15660174D01*
X13827324Y-15660174D02*
X13846372Y-15650650D01*
X13846372Y-15650650D02*
X13874943Y-15650650D01*
X13874943Y-15650650D02*
X13893991Y-15660174D01*
X13893991Y-15660174D02*
X13903515Y-15679222D01*
X13903515Y-15679222D02*
X13903515Y-15783984D01*
X14293991Y-15574460D02*
X14122563Y-15831603D01*
X14551134Y-15583984D02*
X14570182Y-15583984D01*
X14570182Y-15583984D02*
X14589229Y-15593508D01*
X14589229Y-15593508D02*
X14598753Y-15603031D01*
X14598753Y-15603031D02*
X14608277Y-15622079D01*
X14608277Y-15622079D02*
X14617801Y-15660174D01*
X14617801Y-15660174D02*
X14617801Y-15707793D01*
X14617801Y-15707793D02*
X14608277Y-15745888D01*
X14608277Y-15745888D02*
X14598753Y-15764936D01*
X14598753Y-15764936D02*
X14589229Y-15774460D01*
X14589229Y-15774460D02*
X14570182Y-15783984D01*
X14570182Y-15783984D02*
X14551134Y-15783984D01*
X14551134Y-15783984D02*
X14532086Y-15774460D01*
X14532086Y-15774460D02*
X14522563Y-15764936D01*
X14522563Y-15764936D02*
X14513039Y-15745888D01*
X14513039Y-15745888D02*
X14503515Y-15707793D01*
X14503515Y-15707793D02*
X14503515Y-15660174D01*
X14503515Y-15660174D02*
X14513039Y-15622079D01*
X14513039Y-15622079D02*
X14522563Y-15603031D01*
X14522563Y-15603031D02*
X14532086Y-15593508D01*
X14532086Y-15593508D02*
X14551134Y-15583984D01*
X14703515Y-15764936D02*
X14713039Y-15774460D01*
X14713039Y-15774460D02*
X14703515Y-15783984D01*
X14703515Y-15783984D02*
X14693991Y-15774460D01*
X14693991Y-15774460D02*
X14703515Y-15764936D01*
X14703515Y-15764936D02*
X14703515Y-15783984D01*
X14903515Y-15783984D02*
X14789229Y-15783984D01*
X14846372Y-15783984D02*
X14846372Y-15583984D01*
X14846372Y-15583984D02*
X14827325Y-15612555D01*
X14827325Y-15612555D02*
X14808277Y-15631603D01*
X14808277Y-15631603D02*
X14789229Y-15641127D01*
X14979706Y-15603031D02*
X14989229Y-15593508D01*
X14989229Y-15593508D02*
X15008277Y-15583984D01*
X15008277Y-15583984D02*
X15055896Y-15583984D01*
X15055896Y-15583984D02*
X15074944Y-15593508D01*
X15074944Y-15593508D02*
X15084467Y-15603031D01*
X15084467Y-15603031D02*
X15093991Y-15622079D01*
X15093991Y-15622079D02*
X15093991Y-15641127D01*
X15093991Y-15641127D02*
X15084467Y-15669698D01*
X15084467Y-15669698D02*
X14970182Y-15783984D01*
X14970182Y-15783984D02*
X15093991Y-15783984D01*
X15265420Y-15583984D02*
X15227325Y-15583984D01*
X15227325Y-15583984D02*
X15208277Y-15593508D01*
X15208277Y-15593508D02*
X15198753Y-15603031D01*
X15198753Y-15603031D02*
X15179706Y-15631603D01*
X15179706Y-15631603D02*
X15170182Y-15669698D01*
X15170182Y-15669698D02*
X15170182Y-15745888D01*
X15170182Y-15745888D02*
X15179706Y-15764936D01*
X15179706Y-15764936D02*
X15189229Y-15774460D01*
X15189229Y-15774460D02*
X15208277Y-15783984D01*
X15208277Y-15783984D02*
X15246372Y-15783984D01*
X15246372Y-15783984D02*
X15265420Y-15774460D01*
X15265420Y-15774460D02*
X15274944Y-15764936D01*
X15274944Y-15764936D02*
X15284467Y-15745888D01*
X15284467Y-15745888D02*
X15284467Y-15698269D01*
X15284467Y-15698269D02*
X15274944Y-15679222D01*
X15274944Y-15679222D02*
X15265420Y-15669698D01*
X15265420Y-15669698D02*
X15246372Y-15660174D01*
X15246372Y-15660174D02*
X15208277Y-15660174D01*
X15208277Y-15660174D02*
X15189229Y-15669698D01*
X15189229Y-15669698D02*
X15179706Y-15679222D01*
X15179706Y-15679222D02*
X15170182Y-15698269D01*
X15408277Y-15583984D02*
X15427325Y-15583984D01*
X15427325Y-15583984D02*
X15446372Y-15593508D01*
X15446372Y-15593508D02*
X15455896Y-15603031D01*
X15455896Y-15603031D02*
X15465420Y-15622079D01*
X15465420Y-15622079D02*
X15474944Y-15660174D01*
X15474944Y-15660174D02*
X15474944Y-15707793D01*
X15474944Y-15707793D02*
X15465420Y-15745888D01*
X15465420Y-15745888D02*
X15455896Y-15764936D01*
X15455896Y-15764936D02*
X15446372Y-15774460D01*
X15446372Y-15774460D02*
X15427325Y-15783984D01*
X15427325Y-15783984D02*
X15408277Y-15783984D01*
X15408277Y-15783984D02*
X15389229Y-15774460D01*
X15389229Y-15774460D02*
X15379706Y-15764936D01*
X15379706Y-15764936D02*
X15370182Y-15745888D01*
X15370182Y-15745888D02*
X15360658Y-15707793D01*
X15360658Y-15707793D02*
X15360658Y-15660174D01*
X15360658Y-15660174D02*
X15370182Y-15622079D01*
X15370182Y-15622079D02*
X15379706Y-15603031D01*
X15379706Y-15603031D02*
X15389229Y-15593508D01*
X15389229Y-15593508D02*
X15408277Y-15583984D01*
X15551134Y-15583984D02*
X15551134Y-15622079D01*
X15627325Y-15583984D02*
X15627325Y-15622079D01*
X15922563Y-15860174D02*
X15913039Y-15850650D01*
X15913039Y-15850650D02*
X15893991Y-15822079D01*
X15893991Y-15822079D02*
X15884468Y-15803031D01*
X15884468Y-15803031D02*
X15874944Y-15774460D01*
X15874944Y-15774460D02*
X15865420Y-15726841D01*
X15865420Y-15726841D02*
X15865420Y-15688746D01*
X15865420Y-15688746D02*
X15874944Y-15641127D01*
X15874944Y-15641127D02*
X15884468Y-15612555D01*
X15884468Y-15612555D02*
X15893991Y-15593508D01*
X15893991Y-15593508D02*
X15913039Y-15564936D01*
X15913039Y-15564936D02*
X15922563Y-15555412D01*
X15979706Y-15583984D02*
X16103515Y-15583984D01*
X16103515Y-15583984D02*
X16036848Y-15660174D01*
X16036848Y-15660174D02*
X16065420Y-15660174D01*
X16065420Y-15660174D02*
X16084468Y-15669698D01*
X16084468Y-15669698D02*
X16093991Y-15679222D01*
X16093991Y-15679222D02*
X16103515Y-15698269D01*
X16103515Y-15698269D02*
X16103515Y-15745888D01*
X16103515Y-15745888D02*
X16093991Y-15764936D01*
X16093991Y-15764936D02*
X16084468Y-15774460D01*
X16084468Y-15774460D02*
X16065420Y-15783984D01*
X16065420Y-15783984D02*
X16008277Y-15783984D01*
X16008277Y-15783984D02*
X15989229Y-15774460D01*
X15989229Y-15774460D02*
X15979706Y-15764936D01*
X16341610Y-15783984D02*
X16341610Y-15583984D01*
X16427325Y-15783984D02*
X16427325Y-15679222D01*
X16427325Y-15679222D02*
X16417801Y-15660174D01*
X16417801Y-15660174D02*
X16398753Y-15650650D01*
X16398753Y-15650650D02*
X16370182Y-15650650D01*
X16370182Y-15650650D02*
X16351134Y-15660174D01*
X16351134Y-15660174D02*
X16341610Y-15669698D01*
X16551134Y-15783984D02*
X16532087Y-15774460D01*
X16532087Y-15774460D02*
X16522563Y-15764936D01*
X16522563Y-15764936D02*
X16513039Y-15745888D01*
X16513039Y-15745888D02*
X16513039Y-15688746D01*
X16513039Y-15688746D02*
X16522563Y-15669698D01*
X16522563Y-15669698D02*
X16532087Y-15660174D01*
X16532087Y-15660174D02*
X16551134Y-15650650D01*
X16551134Y-15650650D02*
X16579706Y-15650650D01*
X16579706Y-15650650D02*
X16598753Y-15660174D01*
X16598753Y-15660174D02*
X16608277Y-15669698D01*
X16608277Y-15669698D02*
X16617801Y-15688746D01*
X16617801Y-15688746D02*
X16617801Y-15745888D01*
X16617801Y-15745888D02*
X16608277Y-15764936D01*
X16608277Y-15764936D02*
X16598753Y-15774460D01*
X16598753Y-15774460D02*
X16579706Y-15783984D01*
X16579706Y-15783984D02*
X16551134Y-15783984D01*
X16732087Y-15783984D02*
X16713039Y-15774460D01*
X16713039Y-15774460D02*
X16703515Y-15755412D01*
X16703515Y-15755412D02*
X16703515Y-15583984D01*
X16884468Y-15774460D02*
X16865420Y-15783984D01*
X16865420Y-15783984D02*
X16827325Y-15783984D01*
X16827325Y-15783984D02*
X16808277Y-15774460D01*
X16808277Y-15774460D02*
X16798753Y-15755412D01*
X16798753Y-15755412D02*
X16798753Y-15679222D01*
X16798753Y-15679222D02*
X16808277Y-15660174D01*
X16808277Y-15660174D02*
X16827325Y-15650650D01*
X16827325Y-15650650D02*
X16865420Y-15650650D01*
X16865420Y-15650650D02*
X16884468Y-15660174D01*
X16884468Y-15660174D02*
X16893992Y-15679222D01*
X16893992Y-15679222D02*
X16893992Y-15698269D01*
X16893992Y-15698269D02*
X16798753Y-15717317D01*
X16970182Y-15774460D02*
X16989230Y-15783984D01*
X16989230Y-15783984D02*
X17027325Y-15783984D01*
X17027325Y-15783984D02*
X17046373Y-15774460D01*
X17046373Y-15774460D02*
X17055896Y-15755412D01*
X17055896Y-15755412D02*
X17055896Y-15745888D01*
X17055896Y-15745888D02*
X17046373Y-15726841D01*
X17046373Y-15726841D02*
X17027325Y-15717317D01*
X17027325Y-15717317D02*
X16998753Y-15717317D01*
X16998753Y-15717317D02*
X16979706Y-15707793D01*
X16979706Y-15707793D02*
X16970182Y-15688746D01*
X16970182Y-15688746D02*
X16970182Y-15679222D01*
X16970182Y-15679222D02*
X16979706Y-15660174D01*
X16979706Y-15660174D02*
X16998753Y-15650650D01*
X16998753Y-15650650D02*
X17027325Y-15650650D01*
X17027325Y-15650650D02*
X17046373Y-15660174D01*
X17122563Y-15860174D02*
X17132087Y-15850650D01*
X17132087Y-15850650D02*
X17151134Y-15822079D01*
X17151134Y-15822079D02*
X17160658Y-15803031D01*
X17160658Y-15803031D02*
X17170182Y-15774460D01*
X17170182Y-15774460D02*
X17179706Y-15726841D01*
X17179706Y-15726841D02*
X17179706Y-15688746D01*
X17179706Y-15688746D02*
X17170182Y-15641127D01*
X17170182Y-15641127D02*
X17160658Y-15612555D01*
X17160658Y-15612555D02*
X17151134Y-15593508D01*
X17151134Y-15593508D02*
X17132087Y-15564936D01*
X17132087Y-15564936D02*
X17122563Y-15555412D01*
X17484468Y-15860174D02*
X17474944Y-15850650D01*
X17474944Y-15850650D02*
X17455896Y-15822079D01*
X17455896Y-15822079D02*
X17446373Y-15803031D01*
X17446373Y-15803031D02*
X17436849Y-15774460D01*
X17436849Y-15774460D02*
X17427325Y-15726841D01*
X17427325Y-15726841D02*
X17427325Y-15688746D01*
X17427325Y-15688746D02*
X17436849Y-15641127D01*
X17436849Y-15641127D02*
X17446373Y-15612555D01*
X17446373Y-15612555D02*
X17455896Y-15593508D01*
X17455896Y-15593508D02*
X17474944Y-15564936D01*
X17474944Y-15564936D02*
X17484468Y-15555412D01*
X17560658Y-15650650D02*
X17560658Y-15783984D01*
X17560658Y-15669698D02*
X17570182Y-15660174D01*
X17570182Y-15660174D02*
X17589230Y-15650650D01*
X17589230Y-15650650D02*
X17617801Y-15650650D01*
X17617801Y-15650650D02*
X17636849Y-15660174D01*
X17636849Y-15660174D02*
X17646373Y-15679222D01*
X17646373Y-15679222D02*
X17646373Y-15783984D01*
X17770182Y-15783984D02*
X17751134Y-15774460D01*
X17751134Y-15774460D02*
X17741611Y-15764936D01*
X17741611Y-15764936D02*
X17732087Y-15745888D01*
X17732087Y-15745888D02*
X17732087Y-15688746D01*
X17732087Y-15688746D02*
X17741611Y-15669698D01*
X17741611Y-15669698D02*
X17751134Y-15660174D01*
X17751134Y-15660174D02*
X17770182Y-15650650D01*
X17770182Y-15650650D02*
X17798754Y-15650650D01*
X17798754Y-15650650D02*
X17817801Y-15660174D01*
X17817801Y-15660174D02*
X17827325Y-15669698D01*
X17827325Y-15669698D02*
X17836849Y-15688746D01*
X17836849Y-15688746D02*
X17836849Y-15745888D01*
X17836849Y-15745888D02*
X17827325Y-15764936D01*
X17827325Y-15764936D02*
X17817801Y-15774460D01*
X17817801Y-15774460D02*
X17798754Y-15783984D01*
X17798754Y-15783984D02*
X17770182Y-15783984D01*
X17893992Y-15650650D02*
X17970182Y-15650650D01*
X17922563Y-15583984D02*
X17922563Y-15755412D01*
X17922563Y-15755412D02*
X17932087Y-15774460D01*
X17932087Y-15774460D02*
X17951134Y-15783984D01*
X17951134Y-15783984D02*
X17970182Y-15783984D01*
X18189230Y-15650650D02*
X18189230Y-15850650D01*
X18189230Y-15660174D02*
X18208277Y-15650650D01*
X18208277Y-15650650D02*
X18246373Y-15650650D01*
X18246373Y-15650650D02*
X18265420Y-15660174D01*
X18265420Y-15660174D02*
X18274944Y-15669698D01*
X18274944Y-15669698D02*
X18284468Y-15688746D01*
X18284468Y-15688746D02*
X18284468Y-15745888D01*
X18284468Y-15745888D02*
X18274944Y-15764936D01*
X18274944Y-15764936D02*
X18265420Y-15774460D01*
X18265420Y-15774460D02*
X18246373Y-15783984D01*
X18246373Y-15783984D02*
X18208277Y-15783984D01*
X18208277Y-15783984D02*
X18189230Y-15774460D01*
X18398754Y-15783984D02*
X18379706Y-15774460D01*
X18379706Y-15774460D02*
X18370182Y-15755412D01*
X18370182Y-15755412D02*
X18370182Y-15583984D01*
X18560658Y-15783984D02*
X18560658Y-15679222D01*
X18560658Y-15679222D02*
X18551135Y-15660174D01*
X18551135Y-15660174D02*
X18532087Y-15650650D01*
X18532087Y-15650650D02*
X18493992Y-15650650D01*
X18493992Y-15650650D02*
X18474944Y-15660174D01*
X18560658Y-15774460D02*
X18541611Y-15783984D01*
X18541611Y-15783984D02*
X18493992Y-15783984D01*
X18493992Y-15783984D02*
X18474944Y-15774460D01*
X18474944Y-15774460D02*
X18465420Y-15755412D01*
X18465420Y-15755412D02*
X18465420Y-15736365D01*
X18465420Y-15736365D02*
X18474944Y-15717317D01*
X18474944Y-15717317D02*
X18493992Y-15707793D01*
X18493992Y-15707793D02*
X18541611Y-15707793D01*
X18541611Y-15707793D02*
X18560658Y-15698269D01*
X18627325Y-15650650D02*
X18703515Y-15650650D01*
X18655896Y-15583984D02*
X18655896Y-15755412D01*
X18655896Y-15755412D02*
X18665420Y-15774460D01*
X18665420Y-15774460D02*
X18684468Y-15783984D01*
X18684468Y-15783984D02*
X18703515Y-15783984D01*
X18846373Y-15774460D02*
X18827325Y-15783984D01*
X18827325Y-15783984D02*
X18789230Y-15783984D01*
X18789230Y-15783984D02*
X18770182Y-15774460D01*
X18770182Y-15774460D02*
X18760658Y-15755412D01*
X18760658Y-15755412D02*
X18760658Y-15679222D01*
X18760658Y-15679222D02*
X18770182Y-15660174D01*
X18770182Y-15660174D02*
X18789230Y-15650650D01*
X18789230Y-15650650D02*
X18827325Y-15650650D01*
X18827325Y-15650650D02*
X18846373Y-15660174D01*
X18846373Y-15660174D02*
X18855896Y-15679222D01*
X18855896Y-15679222D02*
X18855896Y-15698269D01*
X18855896Y-15698269D02*
X18760658Y-15717317D01*
X19027325Y-15783984D02*
X19027325Y-15583984D01*
X19027325Y-15774460D02*
X19008277Y-15783984D01*
X19008277Y-15783984D02*
X18970182Y-15783984D01*
X18970182Y-15783984D02*
X18951135Y-15774460D01*
X18951135Y-15774460D02*
X18941611Y-15764936D01*
X18941611Y-15764936D02*
X18932087Y-15745888D01*
X18932087Y-15745888D02*
X18932087Y-15688746D01*
X18932087Y-15688746D02*
X18941611Y-15669698D01*
X18941611Y-15669698D02*
X18951135Y-15660174D01*
X18951135Y-15660174D02*
X18970182Y-15650650D01*
X18970182Y-15650650D02*
X19008277Y-15650650D01*
X19008277Y-15650650D02*
X19027325Y-15660174D01*
X19103516Y-15860174D02*
X19113039Y-15850650D01*
X19113039Y-15850650D02*
X19132087Y-15822079D01*
X19132087Y-15822079D02*
X19141611Y-15803031D01*
X19141611Y-15803031D02*
X19151135Y-15774460D01*
X19151135Y-15774460D02*
X19160658Y-15726841D01*
X19160658Y-15726841D02*
X19160658Y-15688746D01*
X19160658Y-15688746D02*
X19151135Y-15641127D01*
X19151135Y-15641127D02*
X19141611Y-15612555D01*
X19141611Y-15612555D02*
X19132087Y-15593508D01*
X19132087Y-15593508D02*
X19113039Y-15564936D01*
X19113039Y-15564936D02*
X19103516Y-15555412D01*
M02*
