%TF.GenerationSoftware,KiCad,Pcbnew,8.0.1*%
%TF.CreationDate,2025-03-06T17:02:36+01:00*%
%TF.ProjectId,Coincidence_board,436f696e-6369-4646-956e-63655f626f61,rev?*%
%TF.SameCoordinates,Original*%
%TF.FileFunction,Paste,Top*%
%TF.FilePolarity,Positive*%
%FSLAX46Y46*%
G04 Gerber Fmt 4.6, Leading zero omitted, Abs format (unit mm)*
G04 Created by KiCad (PCBNEW 8.0.1) date 2025-03-06 17:02:36*
%MOMM*%
%LPD*%
G01*
G04 APERTURE LIST*
G04 Aperture macros list*
%AMRoundRect*
0 Rectangle with rounded corners*
0 $1 Rounding radius*
0 $2 $3 $4 $5 $6 $7 $8 $9 X,Y pos of 4 corners*
0 Add a 4 corners polygon primitive as box body*
4,1,4,$2,$3,$4,$5,$6,$7,$8,$9,$2,$3,0*
0 Add four circle primitives for the rounded corners*
1,1,$1+$1,$2,$3*
1,1,$1+$1,$4,$5*
1,1,$1+$1,$6,$7*
1,1,$1+$1,$8,$9*
0 Add four rect primitives between the rounded corners*
20,1,$1+$1,$2,$3,$4,$5,0*
20,1,$1+$1,$4,$5,$6,$7,0*
20,1,$1+$1,$6,$7,$8,$9,0*
20,1,$1+$1,$8,$9,$2,$3,0*%
G04 Aperture macros list end*
%ADD10RoundRect,0.150000X-0.825000X-0.150000X0.825000X-0.150000X0.825000X0.150000X-0.825000X0.150000X0*%
G04 APERTURE END LIST*
D10*
%TO.C,U1*%
X162250000Y-89755000D03*
X162250000Y-91025000D03*
X162250000Y-92295000D03*
X162250000Y-93565000D03*
X162250000Y-94835000D03*
X162250000Y-96105000D03*
X162250000Y-97375000D03*
X167200000Y-97375000D03*
X167200000Y-96105000D03*
X167200000Y-94835000D03*
X167200000Y-93565000D03*
X167200000Y-92295000D03*
X167200000Y-91025000D03*
X167200000Y-89755000D03*
%TD*%
%TO.C,U7*%
X226530000Y-103310000D03*
X226530000Y-104580000D03*
X226530000Y-105850000D03*
X226530000Y-107120000D03*
X226530000Y-108390000D03*
X226530000Y-109660000D03*
X226530000Y-110930000D03*
X231480000Y-110930000D03*
X231480000Y-109660000D03*
X231480000Y-108390000D03*
X231480000Y-107120000D03*
X231480000Y-105850000D03*
X231480000Y-104580000D03*
X231480000Y-103310000D03*
%TD*%
%TO.C,U6*%
X188050000Y-77130000D03*
X188050000Y-78400000D03*
X188050000Y-79670000D03*
X188050000Y-80940000D03*
X188050000Y-82210000D03*
X188050000Y-83480000D03*
X188050000Y-84750000D03*
X193000000Y-84750000D03*
X193000000Y-83480000D03*
X193000000Y-82210000D03*
X193000000Y-80940000D03*
X193000000Y-79670000D03*
X193000000Y-78400000D03*
X193000000Y-77130000D03*
%TD*%
%TO.C,U2*%
X171330000Y-124380000D03*
X171330000Y-125650000D03*
X171330000Y-126920000D03*
X171330000Y-128190000D03*
X171330000Y-129460000D03*
X171330000Y-130730000D03*
X171330000Y-132000000D03*
X176280000Y-132000000D03*
X176280000Y-130730000D03*
X176280000Y-129460000D03*
X176280000Y-128190000D03*
X176280000Y-126920000D03*
X176280000Y-125650000D03*
X176280000Y-124380000D03*
%TD*%
%TO.C,U4*%
X226570000Y-132570000D03*
X226570000Y-133840000D03*
X226570000Y-135110000D03*
X226570000Y-136380000D03*
X226570000Y-137650000D03*
X226570000Y-138920000D03*
X226570000Y-140190000D03*
X231520000Y-140190000D03*
X231520000Y-138920000D03*
X231520000Y-137650000D03*
X231520000Y-136380000D03*
X231520000Y-135110000D03*
X231520000Y-133840000D03*
X231520000Y-132570000D03*
%TD*%
%TO.C,U5*%
X238450000Y-80520000D03*
X238450000Y-81790000D03*
X238450000Y-83060000D03*
X238450000Y-84330000D03*
X238450000Y-85600000D03*
X238450000Y-86870000D03*
X238450000Y-88140000D03*
X243400000Y-88140000D03*
X243400000Y-86870000D03*
X243400000Y-85600000D03*
X243400000Y-84330000D03*
X243400000Y-83060000D03*
X243400000Y-81790000D03*
X243400000Y-80520000D03*
%TD*%
M02*
