M48
; DRILL file {KiCad 8.0.0} date 2024-11-08T21:50:39+0100
; FORMAT={-:-/ absolute / inch / decimal}
; #@! TF.CreationDate,2024-11-08T21:50:39+01:00
; #@! TF.GenerationSoftware,Kicad,Pcbnew,8.0.0
; #@! TF.FileFunction,Plated,1,2,PTH
FMAT,2
INCH
; #@! TA.AperFunction,Plated,PTH,ViaDrill
T1C0.0236
; #@! TA.AperFunction,Plated,PTH,ComponentDrill
T2C0.0276
; #@! TA.AperFunction,Plated,PTH,ComponentDrill
T3C0.0300
; #@! TA.AperFunction,Plated,PTH,ComponentDrill
T4C0.0315
; #@! TA.AperFunction,Plated,PTH,ComponentDrill
T5C0.0354
; #@! TA.AperFunction,Plated,PTH,ComponentDrill
T6C0.0394
; #@! TA.AperFunction,Plated,PTH,ComponentDrill
T7C0.0433
; #@! TA.AperFunction,Plated,PTH,ComponentDrill
T8C0.0512
%
G90
G05
T1
X6.28Y-3.58
X6.48Y-3.6
X6.7008Y-4.0906
X6.7402Y-3.7126
X6.8484Y-4.9705
X6.8976Y-3.7835
X7.79Y-3.2559
X7.83Y-3.39
X8.24Y-3.05
X8.585Y-3.81
X8.6535Y-5.4331
X8.7559Y-4.3661
X8.811Y-5.563
X9.1102Y-4.5866
X9.1378Y-3.1457
X9.2323Y-3.2677
X9.2402Y-5.1378
X9.2402Y-5.1378
X9.2441Y-5.3819
X9.2559Y-4.748
X9.2756Y-5.2441
X9.2756Y-5.5354
X9.2913Y-3.4882
X9.5079Y-4.7008
X9.6339Y-3.9173
X9.685Y-3.4724
X9.7795Y-3.3268
T2
X6.5701Y-4.9476
X6.5701Y-5.0461
X6.8031Y-3.3031
X6.8031Y-3.4016
X7.1732Y-4.9921
X7.1732Y-5.0906
X7.2106Y-3.187
X7.2106Y-3.2854
X7.8504Y-2.9567
X7.8504Y-3.0551
X8.9142Y-5.0315
X9.0126Y-5.0315
X9.2866Y-4.1646
X9.2866Y-4.263
X9.3839Y-2.9469
X9.4823Y-2.9469
X9.8937Y-3.2185
X9.8937Y-3.3169
T3
X5.1575Y-5.5197
X5.3543Y-5.5197
T4
X5.1575Y-5.1654
X5.2386Y-3.8449
X5.2386Y-4.0449
X5.3386Y-3.9449
X5.3543Y-5.1654
X5.3858Y-3.3465
X5.3858Y-3.5433
X5.4457Y-4.3984
X5.4457Y-4.7984
X5.5465Y-5.0441
X5.5465Y-5.4441
X5.7402Y-2.9654
X5.7402Y-3.0638
X5.7402Y-3.2764
X5.7402Y-3.3748
X6.052Y-3.8394
X6.052Y-4.2394
X6.18Y-3.63
X6.18Y-4.03
X6.1906Y-4.2362
X6.4173Y-4.9071
X6.4173Y-5.3071
X6.4409Y-3.2441
X6.5559Y-4.6976
X6.5906Y-4.2362
X6.6378Y-3.2441
X6.8031Y-3.5433
X6.8031Y-3.9433
X6.9559Y-4.6976
X7.0016Y-3.7638
X7.0016Y-3.9638
X7.0787Y-3.1811
X7.0787Y-3.5811
X7.1669Y-4.315
X7.1669Y-4.4409
X7.3622Y-4.8268
X7.3622Y-5.2268
X7.4016Y-2.8661
X7.4016Y-3.7638
X7.4016Y-3.9638
X7.5669Y-4.315
X7.5669Y-4.4409
X7.5984Y-2.8661
X7.9843Y-3.0591
X7.9843Y-3.4591
X8.178Y-3.2126
X8.1787Y-3.3543
X8.3937Y-4.5433
X8.3937Y-4.9433
X8.565Y-4.545
X8.565Y-4.945
X8.578Y-3.2126
X8.5787Y-3.3543
X8.7264Y-3.7685
X8.7264Y-4.1685
X8.7528Y-5.0709
X8.7528Y-5.4709
X8.88Y-3.79
X8.9024Y-4.8583
X8.9154Y-3.926
X8.9181Y-5.7087
X9.0236Y-2.9449
X9.0236Y-3.3449
X9.0992Y-4.8583
X9.1122Y-3.926
X9.1811Y-3.6535
X9.28Y-3.79
X9.3181Y-5.7087
X9.4291Y-5.1299
X9.4291Y-5.5299
X9.4346Y-5.7118
X9.4803Y-3.915
X9.4803Y-4.315
X9.5811Y-3.6535
X9.622Y-2.9528
X9.6929Y-4.5354
X9.6929Y-4.8354
X9.6929Y-5.1339
X9.6929Y-5.4339
X9.8189Y-2.9528
X9.8268Y-4.5354
X9.8268Y-4.8354
X9.8272Y-5.1335
X9.8272Y-5.4335
X9.8346Y-5.7118
X9.9606Y-3.9134
X9.9606Y-4.3134
X9.9606Y-4.5354
X9.9606Y-4.8354
X9.9606Y-5.1339
X9.9606Y-5.4339
X10.0591Y-3.2205
X10.0591Y-3.6205
T5
X5.2494Y-4.8002
X5.2494Y-4.9002
T6
X5.7055Y-3.7472
X5.7055Y-3.8472
X5.7055Y-3.9472
X5.7055Y-4.0472
X5.7055Y-4.1472
X5.7055Y-4.2472
X5.7055Y-4.3472
X5.7055Y-4.4472
X5.7055Y-4.5472
X5.7055Y-4.6472
X5.7055Y-4.7472
X5.7055Y-4.8472
X5.7055Y-4.9472
X5.7055Y-5.0472
X5.7055Y-5.1472
X5.7055Y-5.2472
X5.7055Y-5.3472
X5.7055Y-5.4472
X5.7055Y-5.5472
X5.7055Y-5.6472
X5.8055Y-3.7472
X5.8055Y-3.8472
X5.8055Y-3.9472
X5.8055Y-4.0472
X5.8055Y-4.1472
X5.8055Y-4.2472
X5.8055Y-4.3472
X5.8055Y-4.4472
X5.8055Y-4.5472
X5.8055Y-4.6472
X5.8055Y-4.7472
X5.8055Y-4.8472
X5.8055Y-4.9472
X5.8055Y-5.0472
X5.8055Y-5.1472
X5.8055Y-5.2472
X5.8055Y-5.3472
X5.8055Y-5.4472
X5.8055Y-5.5472
X5.8055Y-5.6472
X6.25Y-3.35
X6.25Y-3.45
X8.1087Y-3.7472
X8.1087Y-3.8472
X8.1087Y-3.9472
X8.1087Y-4.0472
X8.1087Y-4.1472
X8.1087Y-4.2472
X8.1087Y-4.3472
X8.1087Y-4.4472
X8.1087Y-4.5472
X8.1087Y-4.6472
X8.1087Y-4.7472
X8.1087Y-4.8472
X8.1087Y-4.9472
X8.1087Y-5.0472
X8.1087Y-5.1472
X8.1087Y-5.2472
X8.1087Y-5.3472
X8.1087Y-5.4472
X8.1087Y-5.5472
X8.1087Y-5.6472
X8.2087Y-3.7472
X8.2087Y-3.8472
X8.2087Y-3.9472
X8.2087Y-4.0472
X8.2087Y-4.1472
X8.2087Y-4.2472
X8.2087Y-4.3472
X8.2087Y-4.4472
X8.2087Y-4.5472
X8.2087Y-4.6472
X8.2087Y-4.7472
X8.2087Y-4.8472
X8.2087Y-4.9472
X8.2087Y-5.0472
X8.2087Y-5.1472
X8.2087Y-5.2472
X8.2087Y-5.3472
X8.2087Y-5.4472
X8.2087Y-5.5472
X8.2087Y-5.6472
X8.75Y-3.34
X8.75Y-3.44
X8.75Y-3.54
X9.724Y-4.9862
X9.824Y-4.9862
X9.924Y-4.9862
X10.024Y-4.9862
T7
X6.0157Y-2.9654
X6.0157Y-3.0654
X6.0157Y-3.1654
T8
X5.178Y-2.9654
X5.378Y-2.9654
M30
