%TF.GenerationSoftware,KiCad,Pcbnew,8.0.0*%
%TF.CreationDate,2025-03-10T21:38:56+01:00*%
%TF.ProjectId,Coincidence_board,436f696e-6369-4646-956e-63655f626f61,rev?*%
%TF.SameCoordinates,Original*%
%TF.FileFunction,Copper,L1,Top*%
%TF.FilePolarity,Positive*%
%FSLAX46Y46*%
G04 Gerber Fmt 4.6, Leading zero omitted, Abs format (unit mm)*
G04 Created by KiCad (PCBNEW 8.0.0) date 2025-03-10 21:38:56*
%MOMM*%
%LPD*%
G01*
G04 APERTURE LIST*
%TA.AperFunction,ComponentPad*%
%ADD10C,1.600000*%
%TD*%
%TA.AperFunction,ComponentPad*%
%ADD11O,1.600000X1.600000*%
%TD*%
%TA.AperFunction,ComponentPad*%
%ADD12C,1.400000*%
%TD*%
%TA.AperFunction,ComponentPad*%
%ADD13R,1.530000X1.530000*%
%TD*%
%TA.AperFunction,ComponentPad*%
%ADD14C,1.530000*%
%TD*%
%TA.AperFunction,ComponentPad*%
%ADD15R,2.600000X2.600000*%
%TD*%
%TA.AperFunction,ComponentPad*%
%ADD16C,2.600000*%
%TD*%
%TA.AperFunction,ComponentPad*%
%ADD17R,1.600000X1.600000*%
%TD*%
%TA.AperFunction,ComponentPad*%
%ADD18C,1.524000*%
%TD*%
%TA.AperFunction,ComponentPad*%
%ADD19R,2.000000X1.905000*%
%TD*%
%TA.AperFunction,ComponentPad*%
%ADD20O,2.000000X1.905000*%
%TD*%
%TA.AperFunction,ComponentPad*%
%ADD21R,2.400000X1.600000*%
%TD*%
%TA.AperFunction,ComponentPad*%
%ADD22O,2.400000X1.600000*%
%TD*%
%TA.AperFunction,ComponentPad*%
%ADD23R,1.700000X1.700000*%
%TD*%
%TA.AperFunction,ComponentPad*%
%ADD24O,1.700000X1.700000*%
%TD*%
%TA.AperFunction,ComponentPad*%
%ADD25R,1.800000X1.800000*%
%TD*%
%TA.AperFunction,ComponentPad*%
%ADD26C,1.800000*%
%TD*%
%TA.AperFunction,ComponentPad*%
%ADD27C,1.440000*%
%TD*%
%TA.AperFunction,ViaPad*%
%ADD28C,1.500000*%
%TD*%
%TA.AperFunction,Conductor*%
%ADD29C,1.000000*%
%TD*%
G04 APERTURE END LIST*
D10*
%TO.P,R1,1*%
%TO.N,SW1_OUT*%
X244925000Y-120705000D03*
D11*
%TO.P,R1,2*%
%TO.N,GND*%
X244925000Y-130865000D03*
%TD*%
D10*
%TO.P,R17,1*%
%TO.N,B2out_nuc*%
X209320000Y-115560000D03*
D11*
%TO.P,R17,2*%
%TO.N,B2out*%
X209320000Y-105400000D03*
%TD*%
D12*
%TO.P,C5,2*%
%TO.N,Net-(U2B-~{S})*%
X215520000Y-74120000D03*
%TO.P,C5,1*%
%TO.N,GND*%
X213020000Y-74120000D03*
%TD*%
D11*
%TO.P,R24,2*%
%TO.N,ABCout*%
X166975000Y-143525000D03*
D10*
%TO.P,R24,1*%
%TO.N,ABCout_nuc*%
X177135000Y-143525000D03*
%TD*%
%TO.P,R25,1*%
%TO.N,GND*%
X246780000Y-97710000D03*
D11*
%TO.P,R25,2*%
%TO.N,AB2out_nuc*%
X246780000Y-107870000D03*
%TD*%
D13*
%TO.P,U8,CN3_1,PA9*%
%TO.N,ABCout_nuc*%
X240745000Y-135845000D03*
D14*
%TO.P,U8,CN3_2,PA10*%
%TO.N,unconnected-(U8A-PA10-PadCN3_2)*%
X240745000Y-133305000D03*
%TO.P,U8,CN3_3,NRST_CN3*%
%TO.N,unconnected-(U8A-NRST_CN3-PadCN3_3)*%
X240745000Y-130765000D03*
%TO.P,U8,CN3_4,GND_CN3*%
%TO.N,GND*%
X240745000Y-128225000D03*
%TO.P,U8,CN3_5,PA12*%
%TO.N,BC2out_nuc*%
X240745000Y-125685000D03*
%TO.P,U8,CN3_6,PB0*%
%TO.N,LED_OUT*%
X240745000Y-123145000D03*
%TO.P,U8,CN3_7,PB7*%
%TO.N,SW1_OUT*%
X240745000Y-120605000D03*
%TO.P,U8,CN3_8,PB6*%
%TO.N,unconnected-(U8A-PB6-PadCN3_8)*%
X240745000Y-118065000D03*
%TO.P,U8,CN3_9,PB1*%
%TO.N,unconnected-(U8A-PB1-PadCN3_9)*%
X240745000Y-115525000D03*
%TO.P,U8,CN3_10,PC14*%
%TO.N,unconnected-(U8A-PC14-PadCN3_10)*%
X240745000Y-112985000D03*
%TO.P,U8,CN3_11,PC15*%
%TO.N,unconnected-(U8A-PC15-PadCN3_11)*%
X240745000Y-110445000D03*
%TO.P,U8,CN3_12,PA8*%
%TO.N,AB2out_nuc*%
X240745000Y-107905000D03*
%TO.P,U8,CN3_13,PA11*%
%TO.N,unconnected-(U8A-PA11-PadCN3_13)*%
X240745000Y-105365000D03*
%TO.P,U8,CN3_14,PB5*%
%TO.N,AC2out_nuc*%
X240745000Y-102825000D03*
%TO.P,U8,CN3_15,PB4*%
%TO.N,unconnected-(U8A-PB4-PadCN3_15)*%
X240745000Y-100285000D03*
D13*
%TO.P,U8,CN4_1,VIN*%
%TO.N,VIN*%
X225505000Y-135845000D03*
D14*
%TO.P,U8,CN4_2,GND_CN4*%
%TO.N,GND*%
X225505000Y-133305000D03*
%TO.P,U8,CN4_3,NRST_CN4*%
%TO.N,unconnected-(U8B-NRST_CN4-PadCN4_3)*%
X225505000Y-130765000D03*
%TO.P,U8,CN4_4,+5V*%
%TO.N,5V_NUC*%
X225505000Y-128225000D03*
%TO.P,U8,CN4_5,PA2*%
%TO.N,POT_OUT*%
X225505000Y-125685000D03*
%TO.P,U8,CN4_6,PA7*%
%TO.N,unconnected-(U8B-PA7-PadCN4_6)*%
X225505000Y-123145000D03*
%TO.P,U8,CN4_7,PA6*%
%TO.N,C2out_nuc*%
X225505000Y-120605000D03*
%TO.P,U8,CN4_8,PA5*%
%TO.N,unconnected-(U8B-PA5-PadCN4_8)*%
X225505000Y-118065000D03*
%TO.P,U8,CN4_9,PA4*%
%TO.N,B2out_nuc*%
X225505000Y-115525000D03*
%TO.P,U8,CN4_10,PA3*%
%TO.N,unconnected-(U8B-PA3-PadCN4_10)*%
X225505000Y-112985000D03*
%TO.P,U8,CN4_11,PA1*%
%TO.N,A2out_nuc*%
X225505000Y-110445000D03*
%TO.P,U8,CN4_12,PA0*%
%TO.N,unconnected-(U8B-PA0-PadCN4_12)*%
X225505000Y-107905000D03*
%TO.P,U8,CN4_13,AREF*%
%TO.N,unconnected-(U8B-AREF-PadCN4_13)*%
X225505000Y-105365000D03*
%TO.P,U8,CN4_14,+3V3*%
%TO.N,3.3V_NUC*%
X225505000Y-102825000D03*
%TO.P,U8,CN4_15,PB3*%
%TO.N,unconnected-(U8B-PB3-PadCN4_15)*%
X225505000Y-100285000D03*
%TD*%
D15*
%TO.P,J3,1,Pin_1*%
%TO.N,GND*%
X151355000Y-75917623D03*
D16*
%TO.P,J3,2,Pin_2*%
%TO.N,VIN*%
X156435000Y-75917623D03*
%TD*%
D10*
%TO.P,R29,1*%
%TO.N,GND*%
X252200000Y-136460000D03*
D11*
%TO.P,R29,2*%
%TO.N,BC2out_nuc*%
X252200000Y-126300000D03*
%TD*%
D10*
%TO.P,R13,1*%
%TO.N,Net-(U6B-~{R})*%
X249800000Y-78600000D03*
D11*
%TO.P,R13,2*%
%TO.N,Net-(U6B-~{Q})*%
X249800000Y-88760000D03*
%TD*%
D10*
%TO.P,R28,1*%
%TO.N,AC2out_nuc*%
X213650000Y-142475000D03*
D11*
%TO.P,R28,2*%
%TO.N,AC2out*%
X203490000Y-142475000D03*
%TD*%
D17*
%TO.P,C2,1*%
%TO.N,5V*%
X172000000Y-81100000D03*
D10*
%TO.P,C2,2*%
%TO.N,GND*%
X172000000Y-78600000D03*
%TD*%
D18*
%TO.P,SW1,1,1*%
%TO.N,3.3V_NUC*%
X253505000Y-111885000D03*
%TO.P,SW1,2,2*%
%TO.N,SW1_OUT*%
X253505000Y-116885000D03*
%TD*%
D12*
%TO.P,C6,2*%
%TO.N,Net-(U1B-~{R})*%
X156600000Y-107125000D03*
%TO.P,C6,1*%
%TO.N,GND*%
X156600000Y-104625000D03*
%TD*%
D19*
%TO.P,U3,1,VI*%
%TO.N,VIN*%
X163455000Y-75932623D03*
D20*
%TO.P,U3,2,GND*%
%TO.N,GND*%
X163455000Y-78472623D03*
%TO.P,U3,3,VO*%
%TO.N,5V*%
X163455000Y-81012623D03*
%TD*%
D10*
%TO.P,C1,1*%
%TO.N,3.3V_NUC*%
X246905000Y-111885000D03*
%TO.P,C1,2*%
%TO.N,SW1_OUT*%
X246905000Y-116885000D03*
%TD*%
%TO.P,R14,1*%
%TO.N,Net-(U4A-~{R})*%
X163045000Y-123680000D03*
D11*
%TO.P,R14,2*%
%TO.N,Net-(U4A-~{Q})*%
X163045000Y-133840000D03*
%TD*%
D21*
%TO.P,U5,1,~{R}*%
%TO.N,5V*%
X197800000Y-122320000D03*
D22*
%TO.P,U5,2,D*%
%TO.N,GND*%
X197800000Y-124860000D03*
%TO.P,U5,3,C*%
%TO.N,Net-(U4B-~{Q})*%
X197800000Y-127400000D03*
%TO.P,U5,4,~{S}*%
%TO.N,Net-(U5A-~{S})*%
X197800000Y-129940000D03*
%TO.P,U5,5,Q*%
%TO.N,Net-(U5A-Q)*%
X197800000Y-132480000D03*
%TO.P,U5,6,~{Q}*%
%TO.N,C2out*%
X197800000Y-135020000D03*
%TO.P,U5,7,GND*%
%TO.N,GND*%
X197800000Y-137560000D03*
%TO.P,U5,8,~{Q}*%
%TO.N,Net-(U5B-~{Q})*%
X205420000Y-137560000D03*
%TO.P,U5,9,Q*%
%TO.N,AC2out*%
X205420000Y-135020000D03*
%TO.P,U5,10,~{S}*%
%TO.N,5V*%
X205420000Y-132480000D03*
%TO.P,U5,11,C*%
%TO.N,Net-(U4B-Q)*%
X205420000Y-129940000D03*
%TO.P,U5,12,D*%
%TO.N,A2in*%
X205420000Y-127400000D03*
%TO.P,U5,13,~{R}*%
%TO.N,Net-(U5B-~{R})*%
X205420000Y-124860000D03*
%TO.P,U5,14,VCC*%
%TO.N,5V*%
X205420000Y-122320000D03*
%TD*%
D10*
%TO.P,R10,1*%
%TO.N,A2in*%
X234040000Y-77820000D03*
D11*
%TO.P,R10,2*%
%TO.N,GND*%
X223880000Y-77820000D03*
%TD*%
D10*
%TO.P,R18,1*%
%TO.N,GND*%
X212700000Y-105420000D03*
D11*
%TO.P,R18,2*%
%TO.N,B2out_nuc*%
X212700000Y-115580000D03*
%TD*%
D10*
%TO.P,C9,1*%
%TO.N,GND*%
X239250000Y-68675000D03*
%TO.P,C9,2*%
%TO.N,5V*%
X244250000Y-68675000D03*
%TD*%
%TO.P,R5,1*%
%TO.N,BC2out*%
X140780000Y-114800000D03*
D11*
%TO.P,R5,2*%
%TO.N,GND*%
X140780000Y-104640000D03*
%TD*%
D21*
%TO.P,U6,1,~{R}*%
%TO.N,5V*%
X237860000Y-73520000D03*
D22*
%TO.P,U6,2,D*%
%TO.N,GND*%
X237860000Y-76060000D03*
%TO.P,U6,3,C*%
%TO.N,A2in*%
X237860000Y-78600000D03*
%TO.P,U6,4,~{S}*%
%TO.N,Net-(U6A-~{S})*%
X237860000Y-81140000D03*
%TO.P,U6,5,Q*%
%TO.N,Net-(U6A-Q)*%
X237860000Y-83680000D03*
%TO.P,U6,6,~{Q}*%
%TO.N,A2out*%
X237860000Y-86220000D03*
%TO.P,U6,7,GND*%
%TO.N,GND*%
X237860000Y-88760000D03*
%TO.P,U6,8,~{Q}*%
%TO.N,Net-(U6B-~{Q})*%
X245480000Y-88760000D03*
%TO.P,U6,9,Q*%
%TO.N,AB2out*%
X245480000Y-86220000D03*
%TO.P,U6,10,~{S}*%
%TO.N,5V*%
X245480000Y-83680000D03*
%TO.P,U6,11,C*%
%TO.N,Net-(U4A-C)*%
X245480000Y-81140000D03*
%TO.P,U6,12,D*%
%TO.N,A2in*%
X245480000Y-78600000D03*
%TO.P,U6,13,~{R}*%
%TO.N,Net-(U6B-~{R})*%
X245480000Y-76060000D03*
%TO.P,U6,14,VCC*%
%TO.N,5V*%
X245480000Y-73520000D03*
%TD*%
D10*
%TO.P,C8,1*%
%TO.N,5V*%
X151080000Y-104920000D03*
%TO.P,C8,2*%
%TO.N,GND*%
X146080000Y-104920000D03*
%TD*%
%TO.P,R19,1*%
%TO.N,GND*%
X217120000Y-100320000D03*
D11*
%TO.P,R19,2*%
%TO.N,A2out_nuc*%
X217120000Y-110480000D03*
%TD*%
D10*
%TO.P,R21,1*%
%TO.N,GND*%
X190120000Y-135060000D03*
D11*
%TO.P,R21,2*%
%TO.N,C2out_nuc*%
X190120000Y-145220000D03*
%TD*%
D12*
%TO.P,C14,1*%
%TO.N,GND*%
X213540000Y-122270000D03*
%TO.P,C14,2*%
%TO.N,Net-(U5B-~{R})*%
X213540000Y-124770000D03*
%TD*%
D11*
%TO.P,R2,2*%
%TO.N,GND*%
X179578000Y-118618000D03*
D10*
%TO.P,R2,1*%
%TO.N,C2in*%
X179578000Y-128778000D03*
%TD*%
%TO.P,R12,1*%
%TO.N,Net-(U6A-~{S})*%
X234080000Y-81120000D03*
D11*
%TO.P,R12,2*%
%TO.N,Net-(U6A-Q)*%
X223920000Y-81120000D03*
%TD*%
%TO.P,R15,2*%
%TO.N,Net-(U7B-Q)*%
X191400000Y-109400000D03*
D10*
%TO.P,R15,1*%
%TO.N,Net-(U7B-~{S})*%
X191400000Y-99240000D03*
%TD*%
D21*
%TO.P,U4,1,~{R}*%
%TO.N,Net-(U4A-~{R})*%
X167005000Y-121160000D03*
D22*
%TO.P,U4,2,D*%
%TO.N,C2in*%
X167005000Y-123700000D03*
%TO.P,U4,3,C*%
%TO.N,Net-(U4A-C)*%
X167005000Y-126240000D03*
%TO.P,U4,4,~{S}*%
%TO.N,5V*%
X167005000Y-128780000D03*
%TO.P,U4,5,Q*%
%TO.N,BC2out*%
X167005000Y-131320000D03*
%TO.P,U4,6,~{Q}*%
%TO.N,Net-(U4A-~{Q})*%
X167005000Y-133860000D03*
%TO.P,U4,7,GND*%
%TO.N,GND*%
X167005000Y-136400000D03*
%TO.P,U4,8,~{Q}*%
%TO.N,Net-(U4B-~{Q})*%
X174625000Y-136400000D03*
%TO.P,U4,9,Q*%
%TO.N,Net-(U4B-Q)*%
X174625000Y-133860000D03*
%TO.P,U4,10,~{S}*%
X174625000Y-131320000D03*
%TO.P,U4,11,C*%
%TO.N,C2in*%
X174625000Y-128780000D03*
%TO.P,U4,12,D*%
%TO.N,GND*%
X174625000Y-126240000D03*
%TO.P,U4,13,~{R}*%
%TO.N,5V*%
X174625000Y-123700000D03*
%TO.P,U4,14,VCC*%
X174625000Y-121160000D03*
%TD*%
D17*
%TO.P,C3,1*%
%TO.N,VIN*%
X156400000Y-87100000D03*
D10*
%TO.P,C3,2*%
%TO.N,GND*%
X153900000Y-87100000D03*
%TD*%
%TO.P,R20,1*%
%TO.N,A2out_nuc*%
X220500000Y-110480000D03*
D11*
%TO.P,R20,2*%
%TO.N,A2out*%
X220500000Y-100320000D03*
%TD*%
D12*
%TO.P,C7,2*%
%TO.N,Net-(U2A-~{S})*%
X195650000Y-79170000D03*
%TO.P,C7,1*%
%TO.N,GND*%
X195650000Y-76670000D03*
%TD*%
D10*
%TO.P,R3,1*%
%TO.N,Net-(D1-K)*%
X248425000Y-120705000D03*
D11*
%TO.P,R3,2*%
%TO.N,GND*%
X248425000Y-130865000D03*
%TD*%
D23*
%TO.P,J5,1,Pin_1*%
%TO.N,AB2out*%
X171575000Y-147450000D03*
D24*
%TO.P,J5,2,Pin_2*%
%TO.N,BC2out*%
X174115000Y-147450000D03*
%TO.P,J5,3,Pin_3*%
%TO.N,GND*%
X176655000Y-147450000D03*
%TD*%
D11*
%TO.P,R4,2*%
%TO.N,Net-(U2B-Q)*%
X215600000Y-87100000D03*
D10*
%TO.P,R4,1*%
%TO.N,Net-(U2B-~{S})*%
X215600000Y-76940000D03*
%TD*%
%TO.P,C11,2*%
%TO.N,5V*%
X185620000Y-91820000D03*
%TO.P,C11,1*%
%TO.N,GND*%
X180620000Y-91820000D03*
%TD*%
%TO.P,R22,1*%
%TO.N,GND*%
X217225000Y-132245000D03*
D11*
%TO.P,R22,2*%
%TO.N,ABCout_nuc*%
X217225000Y-142405000D03*
%TD*%
D10*
%TO.P,R23,1*%
%TO.N,C2out_nuc*%
X193500000Y-145200000D03*
D11*
%TO.P,R23,2*%
%TO.N,C2out*%
X193500000Y-135040000D03*
%TD*%
%TO.P,R16,2*%
%TO.N,GND*%
X175800000Y-91540000D03*
D10*
%TO.P,R16,1*%
%TO.N,B2in*%
X175800000Y-101700000D03*
%TD*%
%TO.P,R26,1*%
%TO.N,AB2out_nuc*%
X250280000Y-107870000D03*
D11*
%TO.P,R26,2*%
%TO.N,AB2out*%
X250280000Y-97710000D03*
%TD*%
D10*
%TO.P,C4,1*%
%TO.N,5V*%
X204220000Y-117560000D03*
%TO.P,C4,2*%
%TO.N,GND*%
X199220000Y-117560000D03*
%TD*%
D12*
%TO.P,C17,1*%
%TO.N,GND*%
X163075000Y-118210000D03*
%TO.P,C17,2*%
%TO.N,Net-(U4A-~{R})*%
X163075000Y-120710000D03*
%TD*%
%TO.P,C18,2*%
%TO.N,Net-(U7B-~{S})*%
X194550000Y-99290000D03*
%TO.P,C18,1*%
%TO.N,GND*%
X194550000Y-101790000D03*
%TD*%
D25*
%TO.P,D1,1,K*%
%TO.N,Net-(D1-K)*%
X252840000Y-120710000D03*
D26*
%TO.P,D1,2,A*%
%TO.N,LED_OUT*%
X252840000Y-123250000D03*
%TD*%
D10*
%TO.P,R6,1*%
%TO.N,GND*%
X160150000Y-104590000D03*
D11*
%TO.P,R6,2*%
%TO.N,AB2out*%
X160150000Y-114750000D03*
%TD*%
D10*
%TO.P,C12,2*%
%TO.N,5V*%
X206000000Y-69620000D03*
%TO.P,C12,1*%
%TO.N,GND*%
X201000000Y-69620000D03*
%TD*%
D21*
%TO.P,U7,1,~{R}*%
%TO.N,5V*%
X179540000Y-96670000D03*
D22*
%TO.P,U7,2,D*%
%TO.N,GND*%
X179540000Y-99210000D03*
%TO.P,U7,3,C*%
%TO.N,B2in*%
X179540000Y-101750000D03*
%TO.P,U7,4,~{S}*%
%TO.N,Net-(U4A-C)*%
X179540000Y-104290000D03*
%TO.P,U7,5,Q*%
X179540000Y-106830000D03*
%TO.P,U7,6,~{Q}*%
%TO.N,Net-(U7A-~{Q})*%
X179540000Y-109370000D03*
%TO.P,U7,7,GND*%
%TO.N,GND*%
X179540000Y-111910000D03*
%TO.P,U7,8,~{Q}*%
%TO.N,B2out*%
X187160000Y-111910000D03*
%TO.P,U7,9,Q*%
%TO.N,Net-(U7B-Q)*%
X187160000Y-109370000D03*
%TO.P,U7,10,~{S}*%
%TO.N,Net-(U7B-~{S})*%
X187160000Y-106830000D03*
%TO.P,U7,11,C*%
%TO.N,Net-(U7A-~{Q})*%
X187160000Y-104290000D03*
%TO.P,U7,12,D*%
%TO.N,GND*%
X187160000Y-101750000D03*
%TO.P,U7,13,~{R}*%
%TO.N,5V*%
X187160000Y-99210000D03*
%TO.P,U7,14,VCC*%
X187160000Y-96670000D03*
%TD*%
D21*
%TO.P,U1,1,~{R}*%
%TO.N,5V*%
X144860000Y-109740000D03*
D22*
%TO.P,U1,2,D*%
%TO.N,GND*%
X144860000Y-112280000D03*
%TO.P,U1,3,C*%
%TO.N,BC2out*%
X144860000Y-114820000D03*
%TO.P,U1,4,~{S}*%
%TO.N,Net-(U1A-Q)*%
X144860000Y-117360000D03*
%TO.P,U1,5,Q*%
X144860000Y-119900000D03*
%TO.P,U1,6,~{Q}*%
%TO.N,Net-(U1A-~{Q})*%
X144860000Y-122440000D03*
%TO.P,U1,7,GND*%
%TO.N,GND*%
X144860000Y-124980000D03*
%TO.P,U1,8,~{Q}*%
%TO.N,Net-(U1B-~{Q})*%
X152480000Y-124980000D03*
%TO.P,U1,9,Q*%
%TO.N,ABCout*%
X152480000Y-122440000D03*
%TO.P,U1,10,~{S}*%
%TO.N,5V*%
X152480000Y-119900000D03*
%TO.P,U1,11,C*%
%TO.N,Net-(U1A-Q)*%
X152480000Y-117360000D03*
%TO.P,U1,12,D*%
%TO.N,AB2out*%
X152480000Y-114820000D03*
%TO.P,U1,13,~{R}*%
%TO.N,Net-(U1B-~{R})*%
X152480000Y-112280000D03*
%TO.P,U1,14,VCC*%
%TO.N,5V*%
X152480000Y-109740000D03*
%TD*%
D12*
%TO.P,C16,1*%
%TO.N,GND*%
X252230000Y-73020000D03*
%TO.P,C16,2*%
%TO.N,Net-(U6B-~{R})*%
X249730000Y-73020000D03*
%TD*%
%TO.P,C15,1*%
%TO.N,GND*%
X223900000Y-74600000D03*
%TO.P,C15,2*%
%TO.N,Net-(U6A-~{S})*%
X226400000Y-74600000D03*
%TD*%
D10*
%TO.P,R27,1*%
%TO.N,GND*%
X220950000Y-132275000D03*
D11*
%TO.P,R27,2*%
%TO.N,AC2out_nuc*%
X220950000Y-142435000D03*
%TD*%
D10*
%TO.P,C10,1*%
%TO.N,GND*%
X168325000Y-116260000D03*
%TO.P,C10,2*%
%TO.N,5V*%
X173325000Y-116260000D03*
%TD*%
D21*
%TO.P,U2,1,~{R}*%
%TO.N,5V*%
X199680000Y-74420000D03*
D22*
%TO.P,U2,2,D*%
%TO.N,GND*%
X199680000Y-76960000D03*
%TO.P,U2,3,C*%
%TO.N,Net-(U1A-~{Q})*%
X199680000Y-79500000D03*
%TO.P,U2,4,~{S}*%
%TO.N,Net-(U2A-~{S})*%
X199680000Y-82040000D03*
%TO.P,U2,5,Q*%
%TO.N,Net-(U2A-Q)*%
X199680000Y-84580000D03*
%TO.P,U2,6,~{Q}*%
%TO.N,Bout*%
X199680000Y-87120000D03*
%TO.P,U2,7,GND*%
%TO.N,GND*%
X199680000Y-89660000D03*
%TO.P,U2,8,~{Q}*%
%TO.N,Aout*%
X207300000Y-89660000D03*
%TO.P,U2,9,Q*%
%TO.N,Net-(U2B-Q)*%
X207300000Y-87120000D03*
%TO.P,U2,10,~{S}*%
%TO.N,Net-(U2B-~{S})*%
X207300000Y-84580000D03*
%TO.P,U2,11,C*%
%TO.N,AB2out*%
X207300000Y-82040000D03*
%TO.P,U2,12,D*%
%TO.N,GND*%
X207300000Y-79500000D03*
%TO.P,U2,13,~{R}*%
%TO.N,5V*%
X207300000Y-76960000D03*
%TO.P,U2,14,VCC*%
X207300000Y-74420000D03*
%TD*%
D11*
%TO.P,R7,2*%
%TO.N,Net-(U1B-~{Q})*%
X156600000Y-122480000D03*
D10*
%TO.P,R7,1*%
%TO.N,Net-(U1B-~{R})*%
X156600000Y-112320000D03*
%TD*%
D27*
%TO.P,RV1,1,1*%
%TO.N,3.3V_NUC*%
X247020000Y-143500000D03*
%TO.P,RV1,2,2*%
%TO.N,POT_OUT*%
X249560000Y-146040000D03*
%TO.P,RV1,3,3*%
%TO.N,GND*%
X252100000Y-143500000D03*
%TD*%
D10*
%TO.P,R11,1*%
%TO.N,Net-(U5B-~{R})*%
X210180000Y-124870000D03*
D11*
%TO.P,R11,2*%
%TO.N,Net-(U5B-~{Q})*%
X210180000Y-135030000D03*
%TD*%
D10*
%TO.P,R8,1*%
%TO.N,Net-(U2A-~{S})*%
X192200000Y-79120000D03*
D11*
%TO.P,R8,2*%
%TO.N,Net-(U2A-Q)*%
X192200000Y-89280000D03*
%TD*%
D12*
%TO.P,C13,1*%
%TO.N,GND*%
X185830000Y-132570000D03*
%TO.P,C13,2*%
%TO.N,Net-(U5A-~{S})*%
X185830000Y-130070000D03*
%TD*%
D23*
%TO.P,J1,1,Pin_1*%
%TO.N,GND*%
X169500000Y-110600000D03*
D24*
%TO.P,J1,2,Pin_2*%
%TO.N,C2in*%
X169500000Y-108060000D03*
%TO.P,J1,3,Pin_3*%
%TO.N,B2in*%
X169500000Y-105520000D03*
%TO.P,J1,4,Pin_4*%
%TO.N,A2in*%
X169500000Y-102980000D03*
%TD*%
D10*
%TO.P,R30,1*%
%TO.N,BC2out_nuc*%
X255600000Y-126300000D03*
D11*
%TO.P,R30,2*%
%TO.N,BC2out*%
X255600000Y-136460000D03*
%TD*%
D10*
%TO.P,R9,1*%
%TO.N,Net-(U5A-~{S})*%
X189300000Y-122300000D03*
D11*
%TO.P,R9,2*%
%TO.N,Net-(U5A-Q)*%
X189300000Y-132460000D03*
%TD*%
D28*
%TO.N,C2in*%
X162900000Y-109960000D03*
%TO.N,A2in*%
X216662000Y-96774000D03*
X204724000Y-114554000D03*
X195834000Y-114554000D03*
%TO.N,5V*%
X208170000Y-132470000D03*
%TO.N,Net-(U4B-Q)*%
X197890000Y-141210000D03*
X179130000Y-132670000D03*
%TO.N,AB2out*%
X165180000Y-113200000D03*
X211690000Y-91510000D03*
X201870000Y-108712000D03*
X242160000Y-91540000D03*
X211670000Y-81950000D03*
%TO.N,Net-(U4A-C)*%
X210566000Y-97135000D03*
X215839000Y-91755000D03*
%TO.N,VIN*%
X228900000Y-135770000D03*
%TO.N,Net-(U1A-~{Q})*%
X202860000Y-96950000D03*
X139580000Y-99330000D03*
%TO.N,5V*%
X149100000Y-109740000D03*
X149100000Y-119900000D03*
%TO.N,POT_OUT*%
X237200000Y-146000000D03*
X231850000Y-125700000D03*
%TO.N,5V*%
X201540000Y-122320000D03*
X241900000Y-73520000D03*
X241900000Y-83600000D03*
%TD*%
D29*
%TO.N,AB2out*%
X173906000Y-113200000D02*
X165180000Y-113200000D01*
X195072000Y-118364000D02*
X182880000Y-118364000D01*
X181102000Y-116586000D02*
X177292000Y-116586000D01*
X201870000Y-111566000D02*
X195072000Y-118364000D01*
X201870000Y-108712000D02*
X201870000Y-111566000D01*
X182880000Y-118364000D02*
X181102000Y-116586000D01*
X177292000Y-116586000D02*
X173906000Y-113200000D01*
%TO.N,A2in*%
X173990000Y-104648000D02*
X172322000Y-102980000D01*
X193548000Y-116840000D02*
X184023000Y-116840000D01*
X184023000Y-116840000D02*
X182245000Y-115062000D01*
X195834000Y-114554000D02*
X193548000Y-116840000D01*
X182245000Y-115062000D02*
X179070000Y-115062000D01*
X173990000Y-109982000D02*
X173990000Y-104648000D01*
X172322000Y-102980000D02*
X169500000Y-102980000D01*
X179070000Y-115062000D02*
X173990000Y-109982000D01*
%TO.N,Net-(U4A-C)*%
X249580000Y-81140000D02*
X245480000Y-81140000D01*
X251960000Y-83520000D02*
X249580000Y-81140000D01*
X228600000Y-94080000D02*
X248350000Y-94080000D01*
X215839000Y-91755000D02*
X226275000Y-91755000D01*
X251960000Y-90470000D02*
X251960000Y-83520000D01*
X226275000Y-91755000D02*
X228600000Y-94080000D01*
X248350000Y-94080000D02*
X251960000Y-90470000D01*
X182522000Y-106830000D02*
X179540000Y-106830000D01*
X183896000Y-108204000D02*
X182522000Y-106830000D01*
X183896000Y-113030000D02*
X183896000Y-108204000D01*
X185674000Y-114808000D02*
X183896000Y-113030000D01*
X192786000Y-114808000D02*
X185674000Y-114808000D01*
X210566000Y-97135000D02*
X210459000Y-97135000D01*
X210459000Y-97135000D02*
X192786000Y-114808000D01*
%TO.N,A2in*%
X214630000Y-96774000D02*
X216662000Y-96774000D01*
X204724000Y-106680000D02*
X214630000Y-96774000D01*
X204724000Y-114554000D02*
X204724000Y-106680000D01*
%TO.N,Net-(U1A-~{Q})*%
X139580000Y-99180000D02*
X139580000Y-99330000D01*
X189550000Y-94180000D02*
X144580000Y-94180000D01*
X192258680Y-96888680D02*
X189550000Y-94180000D01*
X144580000Y-94180000D02*
X139580000Y-99180000D01*
X202798680Y-96888680D02*
X192258680Y-96888680D01*
X202860000Y-96950000D02*
X202798680Y-96888680D01*
%TO.N,C2in*%
X162900000Y-114770000D02*
X162900000Y-109960000D01*
X166870000Y-118740000D02*
X162900000Y-114770000D01*
X168620000Y-118740000D02*
X166870000Y-118740000D01*
X169430000Y-119550000D02*
X168620000Y-118740000D01*
X169430000Y-123700000D02*
X169430000Y-119550000D01*
%TO.N,5V*%
X208170000Y-123680000D02*
X206810000Y-122320000D01*
X206810000Y-122320000D02*
X205420000Y-122320000D01*
X208170000Y-132470000D02*
X208170000Y-123680000D01*
%TO.N,AC2out*%
X202290000Y-141275000D02*
X203490000Y-142475000D01*
X202290000Y-136250000D02*
X202290000Y-141275000D01*
X203520000Y-135020000D02*
X202290000Y-136250000D01*
X205420000Y-135020000D02*
X203520000Y-135020000D01*
%TO.N,Net-(U4B-Q)*%
X187570000Y-141210000D02*
X197890000Y-141210000D01*
X179130000Y-132770000D02*
X187570000Y-141210000D01*
X179130000Y-132670000D02*
X179130000Y-132770000D01*
%TO.N,C2in*%
X170780000Y-127530000D02*
X172030000Y-128780000D01*
X170780000Y-125050000D02*
X170780000Y-127530000D01*
X172030000Y-128780000D02*
X174625000Y-128780000D01*
X169430000Y-123700000D02*
X170780000Y-125050000D01*
X167005000Y-123700000D02*
X169430000Y-123700000D01*
%TO.N,AB2out*%
X211690000Y-91510000D02*
X211670000Y-91490000D01*
X211670000Y-91490000D02*
X211670000Y-81950000D01*
X220700000Y-81950000D02*
X211670000Y-81950000D01*
X230200000Y-91450000D02*
X220700000Y-81950000D01*
X242070000Y-91450000D02*
X230200000Y-91450000D01*
X242160000Y-91540000D02*
X242070000Y-91450000D01*
%TO.N,VIN*%
X186690000Y-87100000D02*
X156400000Y-87100000D01*
X193850000Y-94260000D02*
X186690000Y-87100000D01*
X225060000Y-94260000D02*
X193850000Y-94260000D01*
X228900000Y-98100000D02*
X225060000Y-94260000D01*
X228900000Y-135770000D02*
X228900000Y-98100000D01*
%TO.N,5V*%
X159830000Y-121480000D02*
X159830000Y-126960000D01*
X159830000Y-126960000D02*
X161650000Y-128780000D01*
X158250000Y-119900000D02*
X159830000Y-121480000D01*
X161650000Y-128780000D02*
X167005000Y-128780000D01*
X152480000Y-119900000D02*
X158250000Y-119900000D01*
%TO.N,BC2out*%
X143640000Y-131320000D02*
X167005000Y-131320000D01*
X140780000Y-128460000D02*
X143640000Y-131320000D01*
X140780000Y-114800000D02*
X140780000Y-128460000D01*
%TO.N,5V*%
X149100000Y-119900000D02*
X149100000Y-109740000D01*
%TO.N,POT_OUT*%
X231850000Y-125700000D02*
X237200000Y-131050000D01*
X237200000Y-131050000D02*
X237200000Y-146000000D01*
%TO.N,5V*%
X241900000Y-83600000D02*
X241900000Y-73520000D01*
%TD*%
M02*
