M48
; DRILL file {KiCad 8.0.0} date 2025-03-12T14:14:54+0100
; FORMAT={-:-/ absolute / inch / decimal}
; #@! TF.CreationDate,2025-03-12T14:14:54+01:00
; #@! TF.GenerationSoftware,Kicad,Pcbnew,8.0.0
; #@! TF.FileFunction,Plated,1,2,PTH
FMAT,2
INCH
; #@! TA.AperFunction,Plated,PTH,ViaDrill
T1C0.0236
; #@! TA.AperFunction,Plated,PTH,ComponentDrill
T2C0.0276
; #@! TA.AperFunction,Plated,PTH,ComponentDrill
T3C0.0300
; #@! TA.AperFunction,Plated,PTH,ComponentDrill
T4C0.0315
; #@! TA.AperFunction,Plated,PTH,ComponentDrill
T5C0.0354
; #@! TA.AperFunction,Plated,PTH,ComponentDrill
T6C0.0394
; #@! TA.AperFunction,Plated,PTH,ComponentDrill
T7C0.0402
; #@! TA.AperFunction,Plated,PTH,ComponentDrill
T8C0.0433
; #@! TA.AperFunction,Plated,PTH,ComponentDrill
T9C0.0512
%
G90
G05
T1
X5.4953Y-3.9106
X5.8701Y-4.3205
X5.8701Y-4.7205
X6.4134Y-4.3291
X6.5031Y-4.4567
X7.0524Y-5.2232
X7.71Y-4.51
X7.7909Y-5.5594
X7.9346Y-4.8157
X7.9476Y-4.28
X7.9866Y-3.8169
X8.06Y-4.51
X8.1957Y-5.2154
X8.29Y-3.8242
X8.3335Y-3.2264
X8.3343Y-3.6028
X8.4976Y-3.6124
X8.53Y-3.81
X9.0118Y-5.3453
X9.128Y-4.9488
X9.3386Y-5.748
X9.5236Y-2.8945
X9.5236Y-3.2913
X9.5339Y-3.6039
T2
X6.1654Y-4.1191
X6.1654Y-4.2175
X6.4203Y-4.6539
X6.4203Y-4.7524
X7.3161Y-5.1209
X7.3161Y-5.2193
X7.6594Y-3.9091
X7.6594Y-4.0075
X7.7028Y-3.0185
X7.7028Y-3.1169
X8.3866Y-2.9181
X8.4071Y-4.8138
X8.4071Y-4.9122
X8.485Y-2.9181
X8.815Y-2.937
X8.9134Y-2.937
X9.8319Y-2.8748
X9.9303Y-2.8748
T3
X9.9805Y-4.4049
X9.9805Y-4.6018
T4
X5.5425Y-4.1197
X5.5425Y-4.5197
X5.7031Y-4.3205
X5.7031Y-4.4205
X5.7031Y-4.5205
X5.7031Y-4.6205
X5.7031Y-4.7205
X5.7031Y-4.8205
X5.7031Y-4.9205
X5.7512Y-4.1307
X5.948Y-4.1307
X6.0031Y-4.3205
X6.0031Y-4.4205
X6.0031Y-4.5205
X6.0031Y-4.6205
X6.0031Y-4.7205
X6.0031Y-4.8205
X6.0031Y-4.9205
X6.0591Y-3.4291
X6.1575Y-3.4291
X6.1654Y-4.422
X6.1654Y-4.822
X6.3051Y-4.1177
X6.3051Y-4.5177
X6.4191Y-4.8693
X6.4191Y-5.2693
X6.5738Y-5.6506
X6.575Y-4.7701
X6.575Y-4.8701
X6.575Y-4.9701
X6.575Y-5.0701
X6.575Y-5.1701
X6.575Y-5.2701
X6.575Y-5.3701
X6.627Y-4.5772
X6.7717Y-3.0945
X6.7717Y-3.1929
X6.8238Y-4.5772
X6.875Y-4.7701
X6.875Y-4.8701
X6.875Y-4.9701
X6.875Y-5.0701
X6.875Y-5.1701
X6.875Y-5.2701
X6.875Y-5.3701
X6.9213Y-3.6039
X6.9213Y-4.0039
X6.9738Y-5.6506
X7.0685Y-3.8059
X7.0685Y-3.9059
X7.0685Y-4.0059
X7.0685Y-4.1059
X7.0685Y-4.2059
X7.0685Y-4.3059
X7.0685Y-4.4059
X7.07Y-4.67
X7.07Y-5.07
X7.111Y-3.615
X7.3079Y-3.615
X7.3685Y-3.8059
X7.3685Y-3.9059
X7.3685Y-4.0059
X7.3685Y-4.1059
X7.3685Y-4.2059
X7.3685Y-4.3059
X7.3685Y-4.4059
X7.4528Y-4.815
X7.4528Y-5.215
X7.485Y-5.3173
X7.485Y-5.7173
X7.5354Y-3.9071
X7.5354Y-4.3071
X7.5669Y-3.115
X7.5669Y-3.515
X7.6181Y-5.3165
X7.6181Y-5.7165
X7.7874Y-4.8157
X7.7874Y-4.9157
X7.7874Y-5.0157
X7.7874Y-5.1157
X7.7874Y-5.2157
X7.7874Y-5.3157
X7.7874Y-5.4157
X7.8433Y-4.6283
X7.8614Y-2.9299
X7.8614Y-3.0299
X7.8614Y-3.1299
X7.8614Y-3.2299
X7.8614Y-3.3299
X7.8614Y-3.4299
X7.8614Y-3.5299
X7.9134Y-2.7409
X8.0114Y-5.6093
X8.0402Y-4.6283
X8.0874Y-4.8157
X8.0874Y-4.9157
X8.0874Y-5.0157
X8.0874Y-5.1157
X8.0874Y-5.2157
X8.0874Y-5.3157
X8.0874Y-5.4157
X8.1102Y-2.7409
X8.1614Y-2.9299
X8.1614Y-3.0299
X8.1614Y-3.1299
X8.1614Y-3.2299
X8.1614Y-3.3299
X8.1614Y-3.4299
X8.1614Y-3.5299
X8.2409Y-4.1496
X8.2409Y-4.5496
X8.2748Y-4.9161
X8.2748Y-5.3161
X8.374Y-4.1504
X8.374Y-4.5504
X8.4114Y-5.6093
X8.4882Y-3.0291
X8.4882Y-3.4291
X8.548Y-3.9496
X8.548Y-4.3496
X8.5522Y-5.2065
X8.5522Y-5.6065
X8.6811Y-3.9496
X8.6811Y-4.3496
X8.6988Y-5.2077
X8.6988Y-5.6077
X8.8142Y-3.0638
X8.8157Y-3.1937
X9.2142Y-3.0638
X9.2157Y-3.1937
X9.3646Y-2.8945
X9.3646Y-2.9945
X9.3646Y-3.0945
X9.3646Y-3.1945
X9.3646Y-3.2945
X9.3646Y-3.3945
X9.3646Y-3.4945
X9.4193Y-2.7037
X9.6161Y-2.7037
X9.6427Y-4.7522
X9.6427Y-5.1522
X9.6646Y-2.8945
X9.6646Y-2.9945
X9.6646Y-3.0945
X9.6646Y-3.1945
X9.6646Y-3.2945
X9.6646Y-3.3945
X9.6646Y-3.4945
X9.7157Y-3.8469
X9.7157Y-4.2469
X9.7207Y-4.4049
X9.7207Y-4.6018
X9.7252Y-5.6496
X9.7805Y-4.7522
X9.7805Y-5.1522
X9.8252Y-5.7496
X9.8346Y-3.0945
X9.8346Y-3.4945
X9.8535Y-3.8469
X9.8535Y-4.2469
X9.9252Y-5.6496
X9.9291Y-4.9724
X9.9291Y-5.3724
X10.063Y-4.9724
X10.063Y-5.3724
T5
X9.9543Y-4.7524
X9.9543Y-4.8524
T6
X6.6732Y-4.0543
X6.6732Y-4.1543
X6.6732Y-4.2543
X6.6732Y-4.3543
X6.7549Y-5.8051
X6.8549Y-5.8051
X6.9549Y-5.8051
T7
X8.8781Y-3.9482
X8.8781Y-4.0482
X8.8781Y-4.1482
X8.8781Y-4.2482
X8.8781Y-4.3482
X8.8781Y-4.4482
X8.8781Y-4.5482
X8.8781Y-4.6482
X8.8781Y-4.7482
X8.8781Y-4.8482
X8.8781Y-4.9482
X8.8781Y-5.0482
X8.8781Y-5.1482
X8.8781Y-5.2482
X8.8781Y-5.3482
X9.4781Y-3.9482
X9.4781Y-4.0482
X9.4781Y-4.1482
X9.4781Y-4.2482
X9.4781Y-4.3482
X9.4781Y-4.4482
X9.4781Y-4.5482
X9.4781Y-4.6482
X9.4781Y-4.7482
X9.4781Y-4.8482
X9.4781Y-4.9482
X9.4781Y-5.0482
X9.4781Y-5.1482
X9.4781Y-5.2482
X9.4781Y-5.3482
T8
X6.4352Y-2.9895
X6.4352Y-3.0895
X6.4352Y-3.1895
T9
X5.9589Y-2.9889
X6.1589Y-2.9889
M30
