%TF.GenerationSoftware,KiCad,Pcbnew,8.0.0*%
%TF.CreationDate,2025-03-12T14:14:56+01:00*%
%TF.ProjectId,Coincidence_board,436f696e-6369-4646-956e-63655f626f61,rev?*%
%TF.SameCoordinates,Original*%
%TF.FileFunction,Drillmap*%
%TF.FilePolarity,Positive*%
%FSLAX45Y45*%
G04 Gerber Fmt 4.5, Leading zero omitted, Abs format (unit mm)*
G04 Created by KiCad (PCBNEW 8.0.0) date 2025-03-12 14:14:56*
%MOMM*%
%LPD*%
G01*
G04 APERTURE LIST*
%ADD10C,0.050000*%
%ADD11C,0.200000*%
%ADD12C,0.320000*%
G04 APERTURE END LIST*
D10*
X13450000Y-6545000D02*
X26030000Y-6545000D01*
X26030000Y-15287000D01*
X13450000Y-15287000D01*
X13450000Y-6545000D01*
D11*
D12*
X13800000Y-14380000D02*
X14120000Y-14700000D01*
X14120000Y-14380000D02*
X13800000Y-14700000D01*
X13950000Y-7080000D02*
X14270000Y-7400000D01*
X14270000Y-7080000D02*
X13950000Y-7400000D01*
X23081000Y-12971800D02*
X23401000Y-13291800D01*
X23401000Y-12971800D02*
X23081000Y-13291800D01*
X25367000Y-7612400D02*
X25687000Y-7932400D01*
X25687000Y-7612400D02*
X25367000Y-7932400D01*
D11*
X13708277Y-15600984D02*
X13708277Y-15400984D01*
X13708277Y-15400984D02*
X13755896Y-15400984D01*
X13755896Y-15400984D02*
X13784467Y-15410508D01*
X13784467Y-15410508D02*
X13803515Y-15429555D01*
X13803515Y-15429555D02*
X13813039Y-15448603D01*
X13813039Y-15448603D02*
X13822562Y-15486698D01*
X13822562Y-15486698D02*
X13822562Y-15515269D01*
X13822562Y-15515269D02*
X13813039Y-15553365D01*
X13813039Y-15553365D02*
X13803515Y-15572412D01*
X13803515Y-15572412D02*
X13784467Y-15591460D01*
X13784467Y-15591460D02*
X13755896Y-15600984D01*
X13755896Y-15600984D02*
X13708277Y-15600984D01*
X13908277Y-15600984D02*
X13908277Y-15467650D01*
X13908277Y-15505746D02*
X13917801Y-15486698D01*
X13917801Y-15486698D02*
X13927324Y-15477174D01*
X13927324Y-15477174D02*
X13946372Y-15467650D01*
X13946372Y-15467650D02*
X13965420Y-15467650D01*
X14032086Y-15600984D02*
X14032086Y-15467650D01*
X14032086Y-15400984D02*
X14022562Y-15410508D01*
X14022562Y-15410508D02*
X14032086Y-15420031D01*
X14032086Y-15420031D02*
X14041610Y-15410508D01*
X14041610Y-15410508D02*
X14032086Y-15400984D01*
X14032086Y-15400984D02*
X14032086Y-15420031D01*
X14155896Y-15600984D02*
X14136848Y-15591460D01*
X14136848Y-15591460D02*
X14127324Y-15572412D01*
X14127324Y-15572412D02*
X14127324Y-15400984D01*
X14260658Y-15600984D02*
X14241610Y-15591460D01*
X14241610Y-15591460D02*
X14232086Y-15572412D01*
X14232086Y-15572412D02*
X14232086Y-15400984D01*
X14489229Y-15600984D02*
X14489229Y-15400984D01*
X14489229Y-15400984D02*
X14555896Y-15543841D01*
X14555896Y-15543841D02*
X14622562Y-15400984D01*
X14622562Y-15400984D02*
X14622562Y-15600984D01*
X14803515Y-15600984D02*
X14803515Y-15496222D01*
X14803515Y-15496222D02*
X14793991Y-15477174D01*
X14793991Y-15477174D02*
X14774943Y-15467650D01*
X14774943Y-15467650D02*
X14736848Y-15467650D01*
X14736848Y-15467650D02*
X14717801Y-15477174D01*
X14803515Y-15591460D02*
X14784467Y-15600984D01*
X14784467Y-15600984D02*
X14736848Y-15600984D01*
X14736848Y-15600984D02*
X14717801Y-15591460D01*
X14717801Y-15591460D02*
X14708277Y-15572412D01*
X14708277Y-15572412D02*
X14708277Y-15553365D01*
X14708277Y-15553365D02*
X14717801Y-15534317D01*
X14717801Y-15534317D02*
X14736848Y-15524793D01*
X14736848Y-15524793D02*
X14784467Y-15524793D01*
X14784467Y-15524793D02*
X14803515Y-15515269D01*
X14898753Y-15467650D02*
X14898753Y-15667650D01*
X14898753Y-15477174D02*
X14917801Y-15467650D01*
X14917801Y-15467650D02*
X14955896Y-15467650D01*
X14955896Y-15467650D02*
X14974943Y-15477174D01*
X14974943Y-15477174D02*
X14984467Y-15486698D01*
X14984467Y-15486698D02*
X14993991Y-15505746D01*
X14993991Y-15505746D02*
X14993991Y-15562888D01*
X14993991Y-15562888D02*
X14984467Y-15581936D01*
X14984467Y-15581936D02*
X14974943Y-15591460D01*
X14974943Y-15591460D02*
X14955896Y-15600984D01*
X14955896Y-15600984D02*
X14917801Y-15600984D01*
X14917801Y-15600984D02*
X14898753Y-15591460D01*
X15079705Y-15581936D02*
X15089229Y-15591460D01*
X15089229Y-15591460D02*
X15079705Y-15600984D01*
X15079705Y-15600984D02*
X15070182Y-15591460D01*
X15070182Y-15591460D02*
X15079705Y-15581936D01*
X15079705Y-15581936D02*
X15079705Y-15600984D01*
X15079705Y-15477174D02*
X15089229Y-15486698D01*
X15089229Y-15486698D02*
X15079705Y-15496222D01*
X15079705Y-15496222D02*
X15070182Y-15486698D01*
X15070182Y-15486698D02*
X15079705Y-15477174D01*
X15079705Y-15477174D02*
X15079705Y-15496222D01*
X13247500Y-15829500D02*
X13447500Y-16029500D01*
X13447500Y-15829500D02*
X13247500Y-16029500D01*
X13689229Y-15820984D02*
X13813039Y-15820984D01*
X13813039Y-15820984D02*
X13746372Y-15897174D01*
X13746372Y-15897174D02*
X13774943Y-15897174D01*
X13774943Y-15897174D02*
X13793991Y-15906698D01*
X13793991Y-15906698D02*
X13803515Y-15916222D01*
X13803515Y-15916222D02*
X13813039Y-15935269D01*
X13813039Y-15935269D02*
X13813039Y-15982888D01*
X13813039Y-15982888D02*
X13803515Y-16001936D01*
X13803515Y-16001936D02*
X13793991Y-16011460D01*
X13793991Y-16011460D02*
X13774943Y-16020984D01*
X13774943Y-16020984D02*
X13717801Y-16020984D01*
X13717801Y-16020984D02*
X13698753Y-16011460D01*
X13698753Y-16011460D02*
X13689229Y-16001936D01*
X13898753Y-16001936D02*
X13908277Y-16011460D01*
X13908277Y-16011460D02*
X13898753Y-16020984D01*
X13898753Y-16020984D02*
X13889229Y-16011460D01*
X13889229Y-16011460D02*
X13898753Y-16001936D01*
X13898753Y-16001936D02*
X13898753Y-16020984D01*
X13984467Y-15840031D02*
X13993991Y-15830508D01*
X13993991Y-15830508D02*
X14013039Y-15820984D01*
X14013039Y-15820984D02*
X14060658Y-15820984D01*
X14060658Y-15820984D02*
X14079705Y-15830508D01*
X14079705Y-15830508D02*
X14089229Y-15840031D01*
X14089229Y-15840031D02*
X14098753Y-15859079D01*
X14098753Y-15859079D02*
X14098753Y-15878127D01*
X14098753Y-15878127D02*
X14089229Y-15906698D01*
X14089229Y-15906698D02*
X13974943Y-16020984D01*
X13974943Y-16020984D02*
X14098753Y-16020984D01*
X14222562Y-15820984D02*
X14241610Y-15820984D01*
X14241610Y-15820984D02*
X14260658Y-15830508D01*
X14260658Y-15830508D02*
X14270182Y-15840031D01*
X14270182Y-15840031D02*
X14279705Y-15859079D01*
X14279705Y-15859079D02*
X14289229Y-15897174D01*
X14289229Y-15897174D02*
X14289229Y-15944793D01*
X14289229Y-15944793D02*
X14279705Y-15982888D01*
X14279705Y-15982888D02*
X14270182Y-16001936D01*
X14270182Y-16001936D02*
X14260658Y-16011460D01*
X14260658Y-16011460D02*
X14241610Y-16020984D01*
X14241610Y-16020984D02*
X14222562Y-16020984D01*
X14222562Y-16020984D02*
X14203515Y-16011460D01*
X14203515Y-16011460D02*
X14193991Y-16001936D01*
X14193991Y-16001936D02*
X14184467Y-15982888D01*
X14184467Y-15982888D02*
X14174943Y-15944793D01*
X14174943Y-15944793D02*
X14174943Y-15897174D01*
X14174943Y-15897174D02*
X14184467Y-15859079D01*
X14184467Y-15859079D02*
X14193991Y-15840031D01*
X14193991Y-15840031D02*
X14203515Y-15830508D01*
X14203515Y-15830508D02*
X14222562Y-15820984D01*
X14413039Y-15820984D02*
X14432086Y-15820984D01*
X14432086Y-15820984D02*
X14451134Y-15830508D01*
X14451134Y-15830508D02*
X14460658Y-15840031D01*
X14460658Y-15840031D02*
X14470182Y-15859079D01*
X14470182Y-15859079D02*
X14479705Y-15897174D01*
X14479705Y-15897174D02*
X14479705Y-15944793D01*
X14479705Y-15944793D02*
X14470182Y-15982888D01*
X14470182Y-15982888D02*
X14460658Y-16001936D01*
X14460658Y-16001936D02*
X14451134Y-16011460D01*
X14451134Y-16011460D02*
X14432086Y-16020984D01*
X14432086Y-16020984D02*
X14413039Y-16020984D01*
X14413039Y-16020984D02*
X14393991Y-16011460D01*
X14393991Y-16011460D02*
X14384467Y-16001936D01*
X14384467Y-16001936D02*
X14374943Y-15982888D01*
X14374943Y-15982888D02*
X14365420Y-15944793D01*
X14365420Y-15944793D02*
X14365420Y-15897174D01*
X14365420Y-15897174D02*
X14374943Y-15859079D01*
X14374943Y-15859079D02*
X14384467Y-15840031D01*
X14384467Y-15840031D02*
X14393991Y-15830508D01*
X14393991Y-15830508D02*
X14413039Y-15820984D01*
X14565420Y-16020984D02*
X14565420Y-15887650D01*
X14565420Y-15906698D02*
X14574943Y-15897174D01*
X14574943Y-15897174D02*
X14593991Y-15887650D01*
X14593991Y-15887650D02*
X14622563Y-15887650D01*
X14622563Y-15887650D02*
X14641610Y-15897174D01*
X14641610Y-15897174D02*
X14651134Y-15916222D01*
X14651134Y-15916222D02*
X14651134Y-16020984D01*
X14651134Y-15916222D02*
X14660658Y-15897174D01*
X14660658Y-15897174D02*
X14679705Y-15887650D01*
X14679705Y-15887650D02*
X14708277Y-15887650D01*
X14708277Y-15887650D02*
X14727324Y-15897174D01*
X14727324Y-15897174D02*
X14736848Y-15916222D01*
X14736848Y-15916222D02*
X14736848Y-16020984D01*
X14832086Y-16020984D02*
X14832086Y-15887650D01*
X14832086Y-15906698D02*
X14841610Y-15897174D01*
X14841610Y-15897174D02*
X14860658Y-15887650D01*
X14860658Y-15887650D02*
X14889229Y-15887650D01*
X14889229Y-15887650D02*
X14908277Y-15897174D01*
X14908277Y-15897174D02*
X14917801Y-15916222D01*
X14917801Y-15916222D02*
X14917801Y-16020984D01*
X14917801Y-15916222D02*
X14927324Y-15897174D01*
X14927324Y-15897174D02*
X14946372Y-15887650D01*
X14946372Y-15887650D02*
X14974943Y-15887650D01*
X14974943Y-15887650D02*
X14993991Y-15897174D01*
X14993991Y-15897174D02*
X15003515Y-15916222D01*
X15003515Y-15916222D02*
X15003515Y-16020984D01*
X15393991Y-15811460D02*
X15222563Y-16068603D01*
X15651134Y-15820984D02*
X15670182Y-15820984D01*
X15670182Y-15820984D02*
X15689229Y-15830508D01*
X15689229Y-15830508D02*
X15698753Y-15840031D01*
X15698753Y-15840031D02*
X15708277Y-15859079D01*
X15708277Y-15859079D02*
X15717801Y-15897174D01*
X15717801Y-15897174D02*
X15717801Y-15944793D01*
X15717801Y-15944793D02*
X15708277Y-15982888D01*
X15708277Y-15982888D02*
X15698753Y-16001936D01*
X15698753Y-16001936D02*
X15689229Y-16011460D01*
X15689229Y-16011460D02*
X15670182Y-16020984D01*
X15670182Y-16020984D02*
X15651134Y-16020984D01*
X15651134Y-16020984D02*
X15632086Y-16011460D01*
X15632086Y-16011460D02*
X15622563Y-16001936D01*
X15622563Y-16001936D02*
X15613039Y-15982888D01*
X15613039Y-15982888D02*
X15603515Y-15944793D01*
X15603515Y-15944793D02*
X15603515Y-15897174D01*
X15603515Y-15897174D02*
X15613039Y-15859079D01*
X15613039Y-15859079D02*
X15622563Y-15840031D01*
X15622563Y-15840031D02*
X15632086Y-15830508D01*
X15632086Y-15830508D02*
X15651134Y-15820984D01*
X15803515Y-16001936D02*
X15813039Y-16011460D01*
X15813039Y-16011460D02*
X15803515Y-16020984D01*
X15803515Y-16020984D02*
X15793991Y-16011460D01*
X15793991Y-16011460D02*
X15803515Y-16001936D01*
X15803515Y-16001936D02*
X15803515Y-16020984D01*
X16003515Y-16020984D02*
X15889229Y-16020984D01*
X15946372Y-16020984D02*
X15946372Y-15820984D01*
X15946372Y-15820984D02*
X15927325Y-15849555D01*
X15927325Y-15849555D02*
X15908277Y-15868603D01*
X15908277Y-15868603D02*
X15889229Y-15878127D01*
X16079706Y-15840031D02*
X16089229Y-15830508D01*
X16089229Y-15830508D02*
X16108277Y-15820984D01*
X16108277Y-15820984D02*
X16155896Y-15820984D01*
X16155896Y-15820984D02*
X16174944Y-15830508D01*
X16174944Y-15830508D02*
X16184467Y-15840031D01*
X16184467Y-15840031D02*
X16193991Y-15859079D01*
X16193991Y-15859079D02*
X16193991Y-15878127D01*
X16193991Y-15878127D02*
X16184467Y-15906698D01*
X16184467Y-15906698D02*
X16070182Y-16020984D01*
X16070182Y-16020984D02*
X16193991Y-16020984D01*
X16365420Y-15820984D02*
X16327325Y-15820984D01*
X16327325Y-15820984D02*
X16308277Y-15830508D01*
X16308277Y-15830508D02*
X16298753Y-15840031D01*
X16298753Y-15840031D02*
X16279706Y-15868603D01*
X16279706Y-15868603D02*
X16270182Y-15906698D01*
X16270182Y-15906698D02*
X16270182Y-15982888D01*
X16270182Y-15982888D02*
X16279706Y-16001936D01*
X16279706Y-16001936D02*
X16289229Y-16011460D01*
X16289229Y-16011460D02*
X16308277Y-16020984D01*
X16308277Y-16020984D02*
X16346372Y-16020984D01*
X16346372Y-16020984D02*
X16365420Y-16011460D01*
X16365420Y-16011460D02*
X16374944Y-16001936D01*
X16374944Y-16001936D02*
X16384467Y-15982888D01*
X16384467Y-15982888D02*
X16384467Y-15935269D01*
X16384467Y-15935269D02*
X16374944Y-15916222D01*
X16374944Y-15916222D02*
X16365420Y-15906698D01*
X16365420Y-15906698D02*
X16346372Y-15897174D01*
X16346372Y-15897174D02*
X16308277Y-15897174D01*
X16308277Y-15897174D02*
X16289229Y-15906698D01*
X16289229Y-15906698D02*
X16279706Y-15916222D01*
X16279706Y-15916222D02*
X16270182Y-15935269D01*
X16508277Y-15820984D02*
X16527325Y-15820984D01*
X16527325Y-15820984D02*
X16546372Y-15830508D01*
X16546372Y-15830508D02*
X16555896Y-15840031D01*
X16555896Y-15840031D02*
X16565420Y-15859079D01*
X16565420Y-15859079D02*
X16574944Y-15897174D01*
X16574944Y-15897174D02*
X16574944Y-15944793D01*
X16574944Y-15944793D02*
X16565420Y-15982888D01*
X16565420Y-15982888D02*
X16555896Y-16001936D01*
X16555896Y-16001936D02*
X16546372Y-16011460D01*
X16546372Y-16011460D02*
X16527325Y-16020984D01*
X16527325Y-16020984D02*
X16508277Y-16020984D01*
X16508277Y-16020984D02*
X16489229Y-16011460D01*
X16489229Y-16011460D02*
X16479706Y-16001936D01*
X16479706Y-16001936D02*
X16470182Y-15982888D01*
X16470182Y-15982888D02*
X16460658Y-15944793D01*
X16460658Y-15944793D02*
X16460658Y-15897174D01*
X16460658Y-15897174D02*
X16470182Y-15859079D01*
X16470182Y-15859079D02*
X16479706Y-15840031D01*
X16479706Y-15840031D02*
X16489229Y-15830508D01*
X16489229Y-15830508D02*
X16508277Y-15820984D01*
X16651134Y-15820984D02*
X16651134Y-15859079D01*
X16727325Y-15820984D02*
X16727325Y-15859079D01*
X17022563Y-16097174D02*
X17013039Y-16087650D01*
X17013039Y-16087650D02*
X16993991Y-16059079D01*
X16993991Y-16059079D02*
X16984468Y-16040031D01*
X16984468Y-16040031D02*
X16974944Y-16011460D01*
X16974944Y-16011460D02*
X16965420Y-15963841D01*
X16965420Y-15963841D02*
X16965420Y-15925746D01*
X16965420Y-15925746D02*
X16974944Y-15878127D01*
X16974944Y-15878127D02*
X16984468Y-15849555D01*
X16984468Y-15849555D02*
X16993991Y-15830508D01*
X16993991Y-15830508D02*
X17013039Y-15801936D01*
X17013039Y-15801936D02*
X17022563Y-15792412D01*
X17184468Y-15887650D02*
X17184468Y-16020984D01*
X17136849Y-15811460D02*
X17089230Y-15954317D01*
X17089230Y-15954317D02*
X17213039Y-15954317D01*
X17441611Y-16020984D02*
X17441611Y-15820984D01*
X17527325Y-16020984D02*
X17527325Y-15916222D01*
X17527325Y-15916222D02*
X17517801Y-15897174D01*
X17517801Y-15897174D02*
X17498753Y-15887650D01*
X17498753Y-15887650D02*
X17470182Y-15887650D01*
X17470182Y-15887650D02*
X17451134Y-15897174D01*
X17451134Y-15897174D02*
X17441611Y-15906698D01*
X17651134Y-16020984D02*
X17632087Y-16011460D01*
X17632087Y-16011460D02*
X17622563Y-16001936D01*
X17622563Y-16001936D02*
X17613039Y-15982888D01*
X17613039Y-15982888D02*
X17613039Y-15925746D01*
X17613039Y-15925746D02*
X17622563Y-15906698D01*
X17622563Y-15906698D02*
X17632087Y-15897174D01*
X17632087Y-15897174D02*
X17651134Y-15887650D01*
X17651134Y-15887650D02*
X17679706Y-15887650D01*
X17679706Y-15887650D02*
X17698753Y-15897174D01*
X17698753Y-15897174D02*
X17708277Y-15906698D01*
X17708277Y-15906698D02*
X17717801Y-15925746D01*
X17717801Y-15925746D02*
X17717801Y-15982888D01*
X17717801Y-15982888D02*
X17708277Y-16001936D01*
X17708277Y-16001936D02*
X17698753Y-16011460D01*
X17698753Y-16011460D02*
X17679706Y-16020984D01*
X17679706Y-16020984D02*
X17651134Y-16020984D01*
X17832087Y-16020984D02*
X17813039Y-16011460D01*
X17813039Y-16011460D02*
X17803515Y-15992412D01*
X17803515Y-15992412D02*
X17803515Y-15820984D01*
X17984468Y-16011460D02*
X17965420Y-16020984D01*
X17965420Y-16020984D02*
X17927325Y-16020984D01*
X17927325Y-16020984D02*
X17908277Y-16011460D01*
X17908277Y-16011460D02*
X17898753Y-15992412D01*
X17898753Y-15992412D02*
X17898753Y-15916222D01*
X17898753Y-15916222D02*
X17908277Y-15897174D01*
X17908277Y-15897174D02*
X17927325Y-15887650D01*
X17927325Y-15887650D02*
X17965420Y-15887650D01*
X17965420Y-15887650D02*
X17984468Y-15897174D01*
X17984468Y-15897174D02*
X17993992Y-15916222D01*
X17993992Y-15916222D02*
X17993992Y-15935269D01*
X17993992Y-15935269D02*
X17898753Y-15954317D01*
X18070182Y-16011460D02*
X18089230Y-16020984D01*
X18089230Y-16020984D02*
X18127325Y-16020984D01*
X18127325Y-16020984D02*
X18146373Y-16011460D01*
X18146373Y-16011460D02*
X18155896Y-15992412D01*
X18155896Y-15992412D02*
X18155896Y-15982888D01*
X18155896Y-15982888D02*
X18146373Y-15963841D01*
X18146373Y-15963841D02*
X18127325Y-15954317D01*
X18127325Y-15954317D02*
X18098753Y-15954317D01*
X18098753Y-15954317D02*
X18079706Y-15944793D01*
X18079706Y-15944793D02*
X18070182Y-15925746D01*
X18070182Y-15925746D02*
X18070182Y-15916222D01*
X18070182Y-15916222D02*
X18079706Y-15897174D01*
X18079706Y-15897174D02*
X18098753Y-15887650D01*
X18098753Y-15887650D02*
X18127325Y-15887650D01*
X18127325Y-15887650D02*
X18146373Y-15897174D01*
X18222563Y-16097174D02*
X18232087Y-16087650D01*
X18232087Y-16087650D02*
X18251134Y-16059079D01*
X18251134Y-16059079D02*
X18260658Y-16040031D01*
X18260658Y-16040031D02*
X18270182Y-16011460D01*
X18270182Y-16011460D02*
X18279706Y-15963841D01*
X18279706Y-15963841D02*
X18279706Y-15925746D01*
X18279706Y-15925746D02*
X18270182Y-15878127D01*
X18270182Y-15878127D02*
X18260658Y-15849555D01*
X18260658Y-15849555D02*
X18251134Y-15830508D01*
X18251134Y-15830508D02*
X18232087Y-15801936D01*
X18232087Y-15801936D02*
X18222563Y-15792412D01*
X18584468Y-16097174D02*
X18574944Y-16087650D01*
X18574944Y-16087650D02*
X18555896Y-16059079D01*
X18555896Y-16059079D02*
X18546373Y-16040031D01*
X18546373Y-16040031D02*
X18536849Y-16011460D01*
X18536849Y-16011460D02*
X18527325Y-15963841D01*
X18527325Y-15963841D02*
X18527325Y-15925746D01*
X18527325Y-15925746D02*
X18536849Y-15878127D01*
X18536849Y-15878127D02*
X18546373Y-15849555D01*
X18546373Y-15849555D02*
X18555896Y-15830508D01*
X18555896Y-15830508D02*
X18574944Y-15801936D01*
X18574944Y-15801936D02*
X18584468Y-15792412D01*
X18660658Y-15887650D02*
X18660658Y-16020984D01*
X18660658Y-15906698D02*
X18670182Y-15897174D01*
X18670182Y-15897174D02*
X18689230Y-15887650D01*
X18689230Y-15887650D02*
X18717801Y-15887650D01*
X18717801Y-15887650D02*
X18736849Y-15897174D01*
X18736849Y-15897174D02*
X18746373Y-15916222D01*
X18746373Y-15916222D02*
X18746373Y-16020984D01*
X18870182Y-16020984D02*
X18851134Y-16011460D01*
X18851134Y-16011460D02*
X18841611Y-16001936D01*
X18841611Y-16001936D02*
X18832087Y-15982888D01*
X18832087Y-15982888D02*
X18832087Y-15925746D01*
X18832087Y-15925746D02*
X18841611Y-15906698D01*
X18841611Y-15906698D02*
X18851134Y-15897174D01*
X18851134Y-15897174D02*
X18870182Y-15887650D01*
X18870182Y-15887650D02*
X18898754Y-15887650D01*
X18898754Y-15887650D02*
X18917801Y-15897174D01*
X18917801Y-15897174D02*
X18927325Y-15906698D01*
X18927325Y-15906698D02*
X18936849Y-15925746D01*
X18936849Y-15925746D02*
X18936849Y-15982888D01*
X18936849Y-15982888D02*
X18927325Y-16001936D01*
X18927325Y-16001936D02*
X18917801Y-16011460D01*
X18917801Y-16011460D02*
X18898754Y-16020984D01*
X18898754Y-16020984D02*
X18870182Y-16020984D01*
X18993992Y-15887650D02*
X19070182Y-15887650D01*
X19022563Y-15820984D02*
X19022563Y-15992412D01*
X19022563Y-15992412D02*
X19032087Y-16011460D01*
X19032087Y-16011460D02*
X19051134Y-16020984D01*
X19051134Y-16020984D02*
X19070182Y-16020984D01*
X19289230Y-15887650D02*
X19289230Y-16087650D01*
X19289230Y-15897174D02*
X19308277Y-15887650D01*
X19308277Y-15887650D02*
X19346373Y-15887650D01*
X19346373Y-15887650D02*
X19365420Y-15897174D01*
X19365420Y-15897174D02*
X19374944Y-15906698D01*
X19374944Y-15906698D02*
X19384468Y-15925746D01*
X19384468Y-15925746D02*
X19384468Y-15982888D01*
X19384468Y-15982888D02*
X19374944Y-16001936D01*
X19374944Y-16001936D02*
X19365420Y-16011460D01*
X19365420Y-16011460D02*
X19346373Y-16020984D01*
X19346373Y-16020984D02*
X19308277Y-16020984D01*
X19308277Y-16020984D02*
X19289230Y-16011460D01*
X19498754Y-16020984D02*
X19479706Y-16011460D01*
X19479706Y-16011460D02*
X19470182Y-15992412D01*
X19470182Y-15992412D02*
X19470182Y-15820984D01*
X19660658Y-16020984D02*
X19660658Y-15916222D01*
X19660658Y-15916222D02*
X19651135Y-15897174D01*
X19651135Y-15897174D02*
X19632087Y-15887650D01*
X19632087Y-15887650D02*
X19593992Y-15887650D01*
X19593992Y-15887650D02*
X19574944Y-15897174D01*
X19660658Y-16011460D02*
X19641611Y-16020984D01*
X19641611Y-16020984D02*
X19593992Y-16020984D01*
X19593992Y-16020984D02*
X19574944Y-16011460D01*
X19574944Y-16011460D02*
X19565420Y-15992412D01*
X19565420Y-15992412D02*
X19565420Y-15973365D01*
X19565420Y-15973365D02*
X19574944Y-15954317D01*
X19574944Y-15954317D02*
X19593992Y-15944793D01*
X19593992Y-15944793D02*
X19641611Y-15944793D01*
X19641611Y-15944793D02*
X19660658Y-15935269D01*
X19727325Y-15887650D02*
X19803515Y-15887650D01*
X19755896Y-15820984D02*
X19755896Y-15992412D01*
X19755896Y-15992412D02*
X19765420Y-16011460D01*
X19765420Y-16011460D02*
X19784468Y-16020984D01*
X19784468Y-16020984D02*
X19803515Y-16020984D01*
X19946373Y-16011460D02*
X19927325Y-16020984D01*
X19927325Y-16020984D02*
X19889230Y-16020984D01*
X19889230Y-16020984D02*
X19870182Y-16011460D01*
X19870182Y-16011460D02*
X19860658Y-15992412D01*
X19860658Y-15992412D02*
X19860658Y-15916222D01*
X19860658Y-15916222D02*
X19870182Y-15897174D01*
X19870182Y-15897174D02*
X19889230Y-15887650D01*
X19889230Y-15887650D02*
X19927325Y-15887650D01*
X19927325Y-15887650D02*
X19946373Y-15897174D01*
X19946373Y-15897174D02*
X19955896Y-15916222D01*
X19955896Y-15916222D02*
X19955896Y-15935269D01*
X19955896Y-15935269D02*
X19860658Y-15954317D01*
X20127325Y-16020984D02*
X20127325Y-15820984D01*
X20127325Y-16011460D02*
X20108277Y-16020984D01*
X20108277Y-16020984D02*
X20070182Y-16020984D01*
X20070182Y-16020984D02*
X20051135Y-16011460D01*
X20051135Y-16011460D02*
X20041611Y-16001936D01*
X20041611Y-16001936D02*
X20032087Y-15982888D01*
X20032087Y-15982888D02*
X20032087Y-15925746D01*
X20032087Y-15925746D02*
X20041611Y-15906698D01*
X20041611Y-15906698D02*
X20051135Y-15897174D01*
X20051135Y-15897174D02*
X20070182Y-15887650D01*
X20070182Y-15887650D02*
X20108277Y-15887650D01*
X20108277Y-15887650D02*
X20127325Y-15897174D01*
X20203516Y-16097174D02*
X20213039Y-16087650D01*
X20213039Y-16087650D02*
X20232087Y-16059079D01*
X20232087Y-16059079D02*
X20241611Y-16040031D01*
X20241611Y-16040031D02*
X20251135Y-16011460D01*
X20251135Y-16011460D02*
X20260658Y-15963841D01*
X20260658Y-15963841D02*
X20260658Y-15925746D01*
X20260658Y-15925746D02*
X20251135Y-15878127D01*
X20251135Y-15878127D02*
X20241611Y-15849555D01*
X20241611Y-15849555D02*
X20232087Y-15830508D01*
X20232087Y-15830508D02*
X20213039Y-15801936D01*
X20213039Y-15801936D02*
X20203516Y-15792412D01*
M02*
