%TF.GenerationSoftware,KiCad,Pcbnew,8.0.0*%
%TF.CreationDate,2025-03-12T14:14:52+01:00*%
%TF.ProjectId,Coincidence_board,436f696e-6369-4646-956e-63655f626f61,rev?*%
%TF.SameCoordinates,Original*%
%TF.FileFunction,Soldermask,Bot*%
%TF.FilePolarity,Negative*%
%FSLAX46Y46*%
G04 Gerber Fmt 4.6, Leading zero omitted, Abs format (unit mm)*
G04 Created by KiCad (PCBNEW 8.0.0) date 2025-03-12 14:14:52*
%MOMM*%
%LPD*%
G01*
G04 APERTURE LIST*
G04 Aperture macros list*
%AMRoundRect*
0 Rectangle with rounded corners*
0 $1 Rounding radius*
0 $2 $3 $4 $5 $6 $7 $8 $9 X,Y pos of 4 corners*
0 Add a 4 corners polygon primitive as box body*
4,1,4,$2,$3,$4,$5,$6,$7,$8,$9,$2,$3,0*
0 Add four circle primitives for the rounded corners*
1,1,$1+$1,$2,$3*
1,1,$1+$1,$4,$5*
1,1,$1+$1,$6,$7*
1,1,$1+$1,$8,$9*
0 Add four rect primitives between the rounded corners*
20,1,$1+$1,$2,$3,$4,$5,0*
20,1,$1+$1,$4,$5,$6,$7,0*
20,1,$1+$1,$6,$7,$8,$9,0*
20,1,$1+$1,$8,$9,$2,$3,0*%
G04 Aperture macros list end*
%ADD10C,1.600000*%
%ADD11O,1.600000X1.600000*%
%ADD12C,1.400000*%
%ADD13RoundRect,0.102000X0.765000X0.765000X-0.765000X0.765000X-0.765000X-0.765000X0.765000X-0.765000X0*%
%ADD14C,1.734000*%
%ADD15R,2.600000X2.600000*%
%ADD16C,2.600000*%
%ADD17R,1.600000X1.600000*%
%ADD18C,1.524000*%
%ADD19R,2.000000X1.905000*%
%ADD20O,2.000000X1.905000*%
%ADD21R,2.400000X1.600000*%
%ADD22O,2.400000X1.600000*%
%ADD23R,1.700000X1.700000*%
%ADD24O,1.700000X1.700000*%
%ADD25R,1.800000X1.800000*%
%ADD26C,1.800000*%
%ADD27C,3.200000*%
%ADD28C,1.440000*%
G04 APERTURE END LIST*
D10*
%TO.C,R1*%
X244925000Y-120705000D03*
D11*
X244925000Y-130865000D03*
%TD*%
D10*
%TO.C,R17*%
X209320000Y-115560000D03*
D11*
X209320000Y-105400000D03*
%TD*%
D12*
%TO.C,C5*%
X213020000Y-74120000D03*
X215520000Y-74120000D03*
%TD*%
D10*
%TO.C,R24*%
X177135000Y-143525000D03*
D11*
X166975000Y-143525000D03*
%TD*%
D10*
%TO.C,R25*%
X246780000Y-97710000D03*
D11*
X246780000Y-107870000D03*
%TD*%
D13*
%TO.C,U8*%
X240745000Y-135845000D03*
D14*
X240745000Y-133305000D03*
X240745000Y-130765000D03*
X240745000Y-128225000D03*
X240745000Y-125685000D03*
X240745000Y-123145000D03*
X240745000Y-120605000D03*
X240745000Y-118065000D03*
X240745000Y-115525000D03*
X240745000Y-112985000D03*
X240745000Y-110445000D03*
X240745000Y-107905000D03*
X240745000Y-105365000D03*
X240745000Y-102825000D03*
X240745000Y-100285000D03*
D13*
X225505000Y-135845000D03*
D14*
X225505000Y-133305000D03*
X225505000Y-130765000D03*
X225505000Y-128225000D03*
X225505000Y-125685000D03*
X225505000Y-123145000D03*
X225505000Y-120605000D03*
X225505000Y-118065000D03*
X225505000Y-115525000D03*
X225505000Y-112985000D03*
X225505000Y-110445000D03*
X225505000Y-107905000D03*
X225505000Y-105365000D03*
X225505000Y-102825000D03*
X225505000Y-100285000D03*
%TD*%
D15*
%TO.C,J3*%
X151355000Y-75917623D03*
D16*
X156435000Y-75917623D03*
%TD*%
D10*
%TO.C,R29*%
X252200000Y-136460000D03*
D11*
X252200000Y-126300000D03*
%TD*%
D10*
%TO.C,R13*%
X249800000Y-78600000D03*
D11*
X249800000Y-88760000D03*
%TD*%
D10*
%TO.C,R28*%
X213650000Y-142475000D03*
D11*
X203490000Y-142475000D03*
%TD*%
D17*
%TO.C,C2*%
X172000000Y-81100000D03*
D10*
X172000000Y-78600000D03*
%TD*%
D18*
%TO.C,SW1*%
X253505000Y-111885000D03*
X253505000Y-116885000D03*
%TD*%
D12*
%TO.C,C6*%
X156600000Y-104625000D03*
X156600000Y-107125000D03*
%TD*%
D19*
%TO.C,U3*%
X163455000Y-75932623D03*
D20*
X163455000Y-78472623D03*
X163455000Y-81012623D03*
%TD*%
D10*
%TO.C,C1*%
X246905000Y-111885000D03*
X246905000Y-116885000D03*
%TD*%
%TO.C,R14*%
X163045000Y-123680000D03*
D11*
X163045000Y-133840000D03*
%TD*%
D21*
%TO.C,U5*%
X197800000Y-122320000D03*
D22*
X197800000Y-124860000D03*
X197800000Y-127400000D03*
X197800000Y-129940000D03*
X197800000Y-132480000D03*
X197800000Y-135020000D03*
X197800000Y-137560000D03*
X205420000Y-137560000D03*
X205420000Y-135020000D03*
X205420000Y-132480000D03*
X205420000Y-129940000D03*
X205420000Y-127400000D03*
X205420000Y-124860000D03*
X205420000Y-122320000D03*
%TD*%
D10*
%TO.C,R10*%
X234040000Y-77820000D03*
D11*
X223880000Y-77820000D03*
%TD*%
D10*
%TO.C,R18*%
X212700000Y-105420000D03*
D11*
X212700000Y-115580000D03*
%TD*%
D10*
%TO.C,C9*%
X239250000Y-68675000D03*
X244250000Y-68675000D03*
%TD*%
%TO.C,R5*%
X140780000Y-114800000D03*
D11*
X140780000Y-104640000D03*
%TD*%
D21*
%TO.C,U6*%
X237860000Y-73520000D03*
D22*
X237860000Y-76060000D03*
X237860000Y-78600000D03*
X237860000Y-81140000D03*
X237860000Y-83680000D03*
X237860000Y-86220000D03*
X237860000Y-88760000D03*
X245480000Y-88760000D03*
X245480000Y-86220000D03*
X245480000Y-83680000D03*
X245480000Y-81140000D03*
X245480000Y-78600000D03*
X245480000Y-76060000D03*
X245480000Y-73520000D03*
%TD*%
D10*
%TO.C,C8*%
X151080000Y-104920000D03*
X146080000Y-104920000D03*
%TD*%
%TO.C,R19*%
X217120000Y-100320000D03*
D11*
X217120000Y-110480000D03*
%TD*%
D10*
%TO.C,R21*%
X190120000Y-135060000D03*
D11*
X190120000Y-145220000D03*
%TD*%
D12*
%TO.C,C14*%
X213540000Y-122270000D03*
X213540000Y-124770000D03*
%TD*%
D10*
%TO.C,R2*%
X179578000Y-128778000D03*
D11*
X179578000Y-118618000D03*
%TD*%
D10*
%TO.C,R12*%
X234080000Y-81120000D03*
D11*
X223920000Y-81120000D03*
%TD*%
D10*
%TO.C,R15*%
X191400000Y-99240000D03*
D11*
X191400000Y-109400000D03*
%TD*%
D21*
%TO.C,U4*%
X167005000Y-121160000D03*
D22*
X167005000Y-123700000D03*
X167005000Y-126240000D03*
X167005000Y-128780000D03*
X167005000Y-131320000D03*
X167005000Y-133860000D03*
X167005000Y-136400000D03*
X174625000Y-136400000D03*
X174625000Y-133860000D03*
X174625000Y-131320000D03*
X174625000Y-128780000D03*
X174625000Y-126240000D03*
X174625000Y-123700000D03*
X174625000Y-121160000D03*
%TD*%
D17*
%TO.C,C3*%
X156400000Y-87100000D03*
D10*
X153900000Y-87100000D03*
%TD*%
%TO.C,R20*%
X220500000Y-110480000D03*
D11*
X220500000Y-100320000D03*
%TD*%
D12*
%TO.C,C7*%
X195650000Y-76670000D03*
X195650000Y-79170000D03*
%TD*%
D10*
%TO.C,R3*%
X248425000Y-120705000D03*
D11*
X248425000Y-130865000D03*
%TD*%
D23*
%TO.C,J5*%
X171575000Y-147450000D03*
D24*
X174115000Y-147450000D03*
X176655000Y-147450000D03*
%TD*%
D10*
%TO.C,R4*%
X215600000Y-76940000D03*
D11*
X215600000Y-87100000D03*
%TD*%
D10*
%TO.C,C11*%
X180620000Y-91820000D03*
X185620000Y-91820000D03*
%TD*%
%TO.C,R22*%
X217225000Y-132245000D03*
D11*
X217225000Y-142405000D03*
%TD*%
D10*
%TO.C,R23*%
X193500000Y-145200000D03*
D11*
X193500000Y-135040000D03*
%TD*%
D10*
%TO.C,R16*%
X175800000Y-101700000D03*
D11*
X175800000Y-91540000D03*
%TD*%
D10*
%TO.C,R26*%
X250280000Y-107870000D03*
D11*
X250280000Y-97710000D03*
%TD*%
D10*
%TO.C,C4*%
X204220000Y-117560000D03*
X199220000Y-117560000D03*
%TD*%
D12*
%TO.C,C17*%
X163075000Y-118210000D03*
X163075000Y-120710000D03*
%TD*%
%TO.C,C18*%
X194550000Y-101790000D03*
X194550000Y-99290000D03*
%TD*%
D25*
%TO.C,D1*%
X252840000Y-120710000D03*
D26*
X252840000Y-123250000D03*
%TD*%
D10*
%TO.C,R6*%
X160150000Y-104590000D03*
D11*
X160150000Y-114750000D03*
%TD*%
D10*
%TO.C,C12*%
X201000000Y-69620000D03*
X206000000Y-69620000D03*
%TD*%
D27*
%TO.C,*%
X232410000Y-131318000D03*
%TD*%
D21*
%TO.C,U7*%
X179540000Y-96670000D03*
D22*
X179540000Y-99210000D03*
X179540000Y-101750000D03*
X179540000Y-104290000D03*
X179540000Y-106830000D03*
X179540000Y-109370000D03*
X179540000Y-111910000D03*
X187160000Y-111910000D03*
X187160000Y-109370000D03*
X187160000Y-106830000D03*
X187160000Y-104290000D03*
X187160000Y-101750000D03*
X187160000Y-99210000D03*
X187160000Y-96670000D03*
%TD*%
D21*
%TO.C,U1*%
X144860000Y-109740000D03*
D22*
X144860000Y-112280000D03*
X144860000Y-114820000D03*
X144860000Y-117360000D03*
X144860000Y-119900000D03*
X144860000Y-122440000D03*
X144860000Y-124980000D03*
X152480000Y-124980000D03*
X152480000Y-122440000D03*
X152480000Y-119900000D03*
X152480000Y-117360000D03*
X152480000Y-114820000D03*
X152480000Y-112280000D03*
X152480000Y-109740000D03*
%TD*%
D12*
%TO.C,C16*%
X252230000Y-73020000D03*
X249730000Y-73020000D03*
%TD*%
D27*
%TO.C,M*%
X139600000Y-145400000D03*
%TD*%
D12*
%TO.C,C15*%
X223900000Y-74600000D03*
X226400000Y-74600000D03*
%TD*%
D10*
%TO.C,R27*%
X220950000Y-132275000D03*
D11*
X220950000Y-142435000D03*
%TD*%
D10*
%TO.C,C10*%
X168325000Y-116260000D03*
X173325000Y-116260000D03*
%TD*%
D21*
%TO.C,U2*%
X199680000Y-74420000D03*
D22*
X199680000Y-76960000D03*
X199680000Y-79500000D03*
X199680000Y-82040000D03*
X199680000Y-84580000D03*
X199680000Y-87120000D03*
X199680000Y-89660000D03*
X207300000Y-89660000D03*
X207300000Y-87120000D03*
X207300000Y-84580000D03*
X207300000Y-82040000D03*
X207300000Y-79500000D03*
X207300000Y-76960000D03*
X207300000Y-74420000D03*
%TD*%
D27*
%TO.C,*%
X255270000Y-77724000D03*
%TD*%
%TO.C,M*%
X141100000Y-72400000D03*
%TD*%
D10*
%TO.C,R7*%
X156600000Y-112320000D03*
D11*
X156600000Y-122480000D03*
%TD*%
D28*
%TO.C,RV1*%
X247020000Y-143500000D03*
X249560000Y-146040000D03*
X252100000Y-143500000D03*
%TD*%
D10*
%TO.C,R11*%
X210180000Y-124870000D03*
D11*
X210180000Y-135030000D03*
%TD*%
D10*
%TO.C,R8*%
X192200000Y-79120000D03*
D11*
X192200000Y-89280000D03*
%TD*%
D12*
%TO.C,C13*%
X185830000Y-132570000D03*
X185830000Y-130070000D03*
%TD*%
D23*
%TO.C,J1*%
X169500000Y-110600000D03*
D24*
X169500000Y-108060000D03*
X169500000Y-105520000D03*
X169500000Y-102980000D03*
%TD*%
D10*
%TO.C,R30*%
X255600000Y-126300000D03*
D11*
X255600000Y-136460000D03*
%TD*%
D10*
%TO.C,R9*%
X189300000Y-122300000D03*
D11*
X189300000Y-132460000D03*
%TD*%
M02*
