M48
; DRILL file {KiCad 8.0.1} date 2025-03-06T17:02:38+0100
; FORMAT={-:-/ absolute / metric / decimal}
; #@! TF.CreationDate,2025-03-06T17:02:38+01:00
; #@! TF.GenerationSoftware,Kicad,Pcbnew,8.0.1
; #@! TF.FileFunction,MixedPlating,1,2
FMAT,2
METRIC
; #@! TA.AperFunction,Plated,PTH,ViaDrill
T1C0.600
; #@! TA.AperFunction,Plated,PTH,ComponentDrill
T2C0.700
; #@! TA.AperFunction,Plated,PTH,ComponentDrill
T3C0.762
; #@! TA.AperFunction,Plated,PTH,ComponentDrill
T4C0.800
; #@! TA.AperFunction,Plated,PTH,ComponentDrill
T5C0.900
; #@! TA.AperFunction,Plated,PTH,ComponentDrill
T6C1.000
; #@! TA.AperFunction,Plated,PTH,ComponentDrill
T7C1.100
; #@! TA.AperFunction,Plated,PTH,ComponentDrill
T8C1.300
; #@! TA.AperFunction,NonPlated,NPTH,ComponentDrill
T9C3.200
%
G90
G05
T1
X159.512Y-90.932
X164.592Y-91.44
X170.2Y-103.9
X171.2Y-94.3
X173.95Y-126.25
X175.2Y-96.1
X197.866Y-82.7
X198.882Y-86.106
X209.296Y-77.47
X218.059Y-96.774
X219.8Y-138.0
X222.4Y-110.9
X223.901Y-141.478
X231.4Y-116.5
X234.315Y-80.391
X234.315Y-82.931
X234.315Y-82.931
X234.7Y-130.5
X234.7Y-130.5
X234.8Y-136.7
X235.1Y-120.6
X235.6Y-140.6
X236.199Y-88.158
X237.236Y-132.842
X241.5Y-119.4
X246.0Y-88.2
X247.65Y-97.028
X248.666Y-83.693
T2
X166.88Y-125.67
X166.88Y-128.17
X172.8Y-83.9
X172.8Y-86.4
X182.2Y-126.8
X182.2Y-129.3
X183.15Y-80.95
X183.15Y-83.45
X199.4Y-75.1
X199.4Y-77.6
X226.42Y-127.8
X228.92Y-127.8
X235.88Y-105.78
X235.88Y-108.28
X238.35Y-74.85
X240.85Y-74.85
X251.3Y-81.75
X251.3Y-84.25
T3
X131.0Y-140.2
X136.0Y-140.2
T4
X131.0Y-131.2
X133.06Y-97.66
X133.06Y-102.74
X135.6Y-100.2
X136.0Y-131.2
X136.8Y-85.0
X136.8Y-90.0
X138.32Y-111.72
X138.32Y-121.88
X140.88Y-128.12
X140.88Y-138.28
X145.8Y-75.32
X145.8Y-77.82
X145.8Y-83.22
X145.8Y-85.72
X153.72Y-97.52
X153.72Y-107.68
X156.972Y-92.202
X156.972Y-102.362
X157.24Y-107.6
X163.0Y-124.64
X163.0Y-134.8
X163.6Y-82.4
X166.52Y-119.32
X167.4Y-107.6
X168.6Y-82.4
X172.8Y-90.0
X172.8Y-100.16
X176.68Y-119.32
X177.84Y-95.6
X177.84Y-100.68
X179.8Y-80.8
X179.8Y-90.96
X182.04Y-109.6
X182.04Y-112.8
X187.0Y-122.6
X187.0Y-132.76
X188.0Y-72.8
X188.0Y-95.6
X188.0Y-100.68
X192.2Y-109.6
X192.2Y-112.8
X193.0Y-72.8
X202.8Y-77.7
X202.8Y-87.86
X207.72Y-81.6
X207.74Y-85.2
X213.2Y-115.4
X213.2Y-125.56
X217.551Y-115.443
X217.551Y-125.603
X217.88Y-81.6
X217.9Y-85.2
X221.65Y-95.72
X221.65Y-105.88
X222.32Y-128.8
X222.32Y-138.96
X225.552Y-96.266
X226.12Y-123.4
X226.45Y-99.72
X226.52Y-145.0
X229.2Y-74.8
X229.2Y-84.96
X231.12Y-123.4
X231.45Y-99.72
X233.2Y-92.8
X235.712Y-96.266
X236.68Y-145.0
X239.5Y-130.3
X239.5Y-140.46
X239.64Y-145.08
X240.8Y-99.44
X240.8Y-109.6
X243.36Y-92.8
X244.4Y-75.0
X246.2Y-115.2
X246.2Y-122.82
X246.2Y-130.4
X246.2Y-138.02
X249.4Y-75.0
X249.6Y-115.2
X249.6Y-122.82
X249.61Y-130.39
X249.61Y-138.01
X249.8Y-145.08
X253.0Y-99.4
X253.0Y-109.56
X253.0Y-115.2
X253.0Y-122.82
X253.0Y-130.4
X253.0Y-138.02
X255.5Y-81.8
X255.5Y-91.96
T5
X133.335Y-121.925
X133.335Y-124.465
T6
X144.92Y-95.18
X144.92Y-97.72
X144.92Y-100.26
X144.92Y-102.8
X144.92Y-105.34
X144.92Y-107.88
X144.92Y-110.42
X144.92Y-112.96
X144.92Y-115.5
X144.92Y-118.04
X144.92Y-120.58
X144.92Y-123.12
X144.92Y-125.66
X144.92Y-128.2
X144.92Y-130.74
X144.92Y-133.28
X144.92Y-135.82
X144.92Y-138.36
X144.92Y-140.9
X144.92Y-143.44
X147.46Y-95.18
X147.46Y-97.72
X147.46Y-100.26
X147.46Y-102.8
X147.46Y-105.34
X147.46Y-107.88
X147.46Y-110.42
X147.46Y-112.96
X147.46Y-115.5
X147.46Y-118.04
X147.46Y-120.58
X147.46Y-123.12
X147.46Y-125.66
X147.46Y-128.2
X147.46Y-130.74
X147.46Y-133.28
X147.46Y-135.82
X147.46Y-138.36
X147.46Y-140.9
X147.46Y-143.44
X158.75Y-85.09
X158.75Y-87.63
X205.96Y-95.18
X205.96Y-97.72
X205.96Y-100.26
X205.96Y-102.8
X205.96Y-105.34
X205.96Y-107.88
X205.96Y-110.42
X205.96Y-112.96
X205.96Y-115.5
X205.96Y-118.04
X205.96Y-120.58
X205.96Y-123.12
X205.96Y-125.66
X205.96Y-128.2
X205.96Y-130.74
X205.96Y-133.28
X205.96Y-135.82
X205.96Y-138.36
X205.96Y-140.9
X205.96Y-143.44
X208.5Y-95.18
X208.5Y-97.72
X208.5Y-100.26
X208.5Y-102.8
X208.5Y-105.34
X208.5Y-107.88
X208.5Y-110.42
X208.5Y-112.96
X208.5Y-115.5
X208.5Y-118.04
X208.5Y-120.58
X208.5Y-123.12
X208.5Y-125.66
X208.5Y-128.2
X208.5Y-130.74
X208.5Y-133.28
X208.5Y-135.82
X208.5Y-138.36
X208.5Y-140.9
X208.5Y-143.44
X222.25Y-84.836
X222.25Y-87.376
X222.25Y-89.916
X246.99Y-126.65
X249.53Y-126.65
X252.07Y-126.65
X254.61Y-126.65
T7
X152.8Y-75.32
X152.8Y-77.86
X152.8Y-80.4
T8
X131.52Y-75.32
X136.6Y-75.32
T9
X129.0Y-87.4
X216.4Y-145.6
X220.5Y-71.2
M30
